<?xml version="1.0" encoding="UTF-8" standalone="no"?>
<svg
   id="Capa_1"
   version="1.1"
   viewBox="0 0 107.56667 100.08157"
   xml:space="preserve"
   sodipodi:docname="off_word.svg"
   inkscape:version="1.3.2 (091e20e, 2023-11-25, custom)"
   width="107.56667"
   height="100.08157"
   xmlns:inkscape="http://www.inkscape.org/namespaces/inkscape"
   xmlns:sodipodi="http://sodipodi.sourceforge.net/DTD/sodipodi-0.dtd"
   xmlns="http://www.w3.org/2000/svg"
   xmlns:svg="http://www.w3.org/2000/svg"
   xmlns:rdf="http://www.w3.org/1999/02/22-rdf-syntax-ns#"
   xmlns:cc="http://creativecommons.org/ns#"
   xmlns:dc="http://purl.org/dc/elements/1.1/"><metadata
     id="metadata25"><rdf:RDF><cc:Work
         rdf:about=""><dc:format>image/svg+xml</dc:format><dc:type
           rdf:resource="http://purl.org/dc/dcmitype/StillImage" /></cc:Work></rdf:RDF></metadata><defs
     id="defs23" /><sodipodi:namedview
     pagecolor="#ffffff"
     bordercolor="#666666"
     borderopacity="1"
     objecttolerance="10"
     gridtolerance="10"
     guidetolerance="10"
     inkscape:pageopacity="0"
     inkscape:pageshadow="2"
     inkscape:window-width="1676"
     inkscape:window-height="964"
     id="namedview21"
     showgrid="false"
     inkscape:zoom="6"
     inkscape:cx="25.75"
     inkscape:cy="49.833333"
     inkscape:current-layer="Capa_1"
     inkscape:showpageshadow="2"
     inkscape:pagecheckerboard="0"
     inkscape:deskcolor="#d1d1d1"
     inkscape:window-x="0"
     inkscape:window-y="0"
     inkscape:window-maximized="0" /><style
     type="text/css"
     id="style2">
	.st0{fill:#21A365;}
	.st1{fill:#107C41;}
	.st2{fill:#185B37;}
	.st3{fill:#33C481;}
	.st4{fill:#17864C;}
	.st5{fill:#FFFFFF;}
	.st6{fill:#036C70;}
	.st7{fill:#1A9BA1;}
	.st8{fill:#37C6D0;}
	.st9{fill:#04878B;}
	.st10{fill:#4F59CA;}
	.st11{fill:#7B82EA;}
	.st12{fill:#4C53BB;}
	.st13{fill:#0F78D5;}
	.st14{fill:#29A7EB;}
	.st15{fill:#0358A8;}
	.st16{fill:#0F79D6;}
	.st17{fill:#038387;}
	.st18{fill:#048A8E;}
	.st19{fill:#C8421D;}
	.st20{fill:#FF8F6A;}
	.st21{fill:#ED6B47;}
	.st22{fill:#891323;}
	.st23{fill:#AF2131;}
	.st24{fill:#C94E60;}
	.st25{fill:#E08195;}
	.st26{fill:#B42839;}
	.st27{fill:#0464B8;}
	.st28{fill:#0377D4;}
	.st29{fill:#4FD8FF;}
	.st30{fill:#1681D7;}
	.st31{fill:#0178D4;}
	.st32{fill:#042071;}
	.st33{fill:#168FDE;}
	.st34{fill:#CA64EA;}
	.st35{fill:#7E1FAF;}
	.st36{fill:#AE4BD5;}
	.st37{fill:#9332BF;}
	.st38{fill:#7719AA;}
	.st39{fill:#0078D4;}
	.st40{fill:#1490DF;}
	.st41{fill:#0364B8;}
	.st42{fill:#28A8EA;}
	.st43{fill:#41A5ED;}
	.st44{fill:#2C7BD5;}
	.st45{fill:#195ABE;}
	.st46{fill:#103E91;}
	.st47{fill:#2166C3;}
	.st48{opacity:0.2;}
</style><path
     class="st43"
     d="M 107.56666,24.978342 H 24.810138 V 4.877925 C 24.810138,2.186656 26.996794,0 29.688063,0 h 72.916577 c 2.69127,0 4.87792,2.186656 4.87792,4.877925 v 20.100417 z"
     id="path4"
     inkscape:connector-curvature="0"
     style="fill:#41a5ed;stroke-width:0.841022" /><rect
     class="st44"
     height="25.062445"
     width="82.756531"
     x="24.810139"
     y="24.978344"
     id="rect6"
     style="fill:#2c7bd5;stroke-width:0.841022" /><rect
     class="st45"
     height="25.062445"
     width="82.756531"
     x="24.810139"
     y="50.040787"
     id="rect8"
     style="fill:#195abe;stroke-width:0.841022" /><path
     class="st46"
     d="M 102.68874,100.08158 H 29.772166 c -2.69127,0 -4.877926,-2.186663 -4.877926,-4.877933 V 75.103232 h 82.67242 v 20.100415 c 0,2.69127 -2.18665,4.877933 -4.87792,4.877933 z"
     id="path10"
     inkscape:connector-curvature="0"
     style="fill:#103e91;stroke-width:0.841022" /><path
     class="st47"
     d="M 49.956685,77.37399 H 5.382538 C 2.438962,77.37399 0,74.935027 0,71.991452 v -43.90133 c 0,-2.943575 2.438962,-5.382538 5.382538,-5.382538 h 44.574147 c 2.943575,0 5.382538,2.438963 5.382538,5.382538 v 43.90133 c 0,2.943575 -2.35486,5.382538 -5.382538,5.382538 z"
     id="path12"
     inkscape:connector-curvature="0"
     style="fill:#2166c3;stroke-width:0.841022" /><g
     id="g16"
     transform="matrix(0.84102163,0,0,0.84102163,-0.084102,-3.784598)"><path
       class="st5"
       d="M 19.3,82.4 10.4,46.5 h 7.1 L 21,62.8 c 0.9,4.4 1.8,8.9 2.4,12.5 h 0.1 c 0.6,-3.8 1.6,-8 2.6,-12.6 L 30,46.5 h 7 L 40.6,63 c 0.9,4.3 1.7,8.2 2.2,12.1 h 0.1 c 0.6,-4 1.5,-8 2.5,-12.4 L 49.2,46.5 H 56 L 46.2,82.4 H 39 L 35.2,65.5 c -0.9,-4 -1.6,-7.4 -2.1,-11.3 H 33 c -0.6,3.8 -1.3,7.3 -2.4,11.4 l -4.2,16.9 h -7.1 z"
       id="path14"
       inkscape:connector-curvature="0"
       style="fill:#ffffff" /></g><path
     class="st48"
     d="m 55.339223,27.585509 c 0,0.168205 0,0.336409 0,0.504613 v 43.90133 c 0,2.943575 -2.438963,5.382538 -5.382538,5.382538 H 24.89424 v 4.793823 h 29.603962 c 2.943575,0 5.382538,-2.438962 5.382538,-5.382538 V 32.883946 c 0,-2.69127 -1.93435,-4.962028 -4.541517,-5.298437 z"
     id="path18"
     inkscape:connector-curvature="0"
     style="opacity:0.2;stroke-width:0.841022" /></svg>
