<?xml version="1.0" encoding="UTF-8" standalone="no"?>
<svg
   width="256px"
   height="288px"
   viewBox="0 0 256 288"
   version="1.1"
   preserveAspectRatio="xMidYMid"
   id="svg5"
   sodipodi:docname="csharp.svg"
   inkscape:version="1.3.2 (091e20e, 2023-11-25, custom)"
   xmlns:inkscape="http://www.inkscape.org/namespaces/inkscape"
   xmlns:sodipodi="http://sodipodi.sourceforge.net/DTD/sodipodi-0.dtd"
   xmlns="http://www.w3.org/2000/svg"
   xmlns:svg="http://www.w3.org/2000/svg">
  <defs
     id="defs5" />
  <sodipodi:namedview
     id="namedview5"
     pagecolor="#ffffff"
     bordercolor="#000000"
     borderopacity="0.25"
     inkscape:showpageshadow="2"
     inkscape:pageopacity="0.0"
     inkscape:pagecheckerboard="0"
     inkscape:deskcolor="#d1d1d1"
     inkscape:zoom="2.8854167"
     inkscape:cx="128.05776"
     inkscape:cy="144"
     inkscape:window-width="1920"
     inkscape:window-height="1027"
     inkscape:window-x="1912"
     inkscape:window-y="-8"
     inkscape:window-maximized="1"
     inkscape:current-layer="g5" />
  <g
     id="g5">
    <path
       d="M255.569,84.452376 C255.567,79.622376 254.534,75.354376 252.445,71.691376 C250.393,68.089376 247.32,65.070376 243.198,62.683376 C209.173,43.064376 175.115,23.505376 141.101,3.86637605 C131.931,-1.42762395 123.04,-1.23462395 113.938,4.13537605 C100.395,12.122376 32.59,50.969376 12.385,62.672376 C4.064,67.489376 0.015,74.861376 0.013,84.443376 C0,123.898376 0.013,163.352376 0,202.808376 C0,207.532376 0.991,211.717376 2.988,215.325376 C5.041,219.036376 8.157,222.138376 12.374,224.579376 C32.58,236.282376 100.394,275.126376 113.934,283.115376 C123.04,288.488376 131.931,288.680376 141.104,283.384376 C175.119,263.744376 209.179,244.186376 243.209,224.567376 C247.426,222.127376 250.542,219.023376 252.595,215.315376 C254.589,211.707376 255.582,207.522376 255.582,202.797376 C255.582,202.797376 255.582,123.908376 255.569,84.452376"
       fill="#A179DC"
       fill-rule="nonzero"
       id="path1" />
    <path
       d="M128.182,143.241376 L2.988,215.325376 C5.041,219.036376 8.157,222.138376 12.374,224.579376 C32.58,236.282376 100.394,275.126376 113.934,283.115376 C123.04,288.488376 131.931,288.680376 141.104,283.384376 C175.119,263.744376 209.179,244.186376 243.209,224.567376 C247.426,222.127376 250.542,219.023376 252.595,215.315376 L128.182,143.241376"
       fill="#280068"
       fill-rule="nonzero"
       id="path2" />
    <path
       d="M255.569,84.452376 C255.567,79.622376 254.534,75.354376 252.445,71.691376 L128.182,143.241376 L252.595,215.315376 C254.589,211.707376 255.58,207.522376 255.582,202.797376 C255.582,202.797376 255.582,123.908376 255.569,84.452376"
       fill="#390091"
       fill-rule="nonzero"
       id="path3" />
    <path
       d="M201.892326,116.294008 L201.892326,129.767692 L215.36601,129.767692 L215.36601,116.294008 L222.102852,116.294008 L222.102852,129.767692 L235.576537,129.767692 L235.576537,136.504534 L222.102852,136.504534 L222.102852,149.978218 L235.576537,149.978218 L235.576537,156.71506 L222.102852,156.71506 L222.102852,170.188744 L215.36601,170.188744 L215.36601,156.71506 L201.892326,156.71506 L201.892326,170.188744 L195.155484,170.188744 L195.155484,156.71506 L181.6818,156.71506 L181.6818,149.978218 L195.155484,149.978218 L195.155484,136.504534 L181.6818,136.504534 L181.6818,129.767692 L195.155484,129.767692 L195.155484,116.294008 L201.892326,116.294008 Z M215.36601,136.504534 L201.892326,136.504534 L201.892326,149.978218 L215.36601,149.978218 L215.36601,136.504534 Z"
       fill="#FFFFFF"
       id="path4" />
    <path
       d="m 128.45675,48.625876 c 35.14377,0 65.82713,19.086298 82.26181,47.456067 l -0.16037,-0.273067 -41.34857,23.808284 C 161.06296,105.82355 146.12814,96.515072 128.99638,96.323372 l -0.53963,-0.003 c -26.12557,0 -47.306079,21.179386 -47.306079,47.304966 0,25.19487 20.381539,47.30608 47.306079,47.30608 17.69277,0 33.10889,-9.72336 41.22157,-24.11084 l -0.19713,0.34532 41.28649,23.91803 c -16.2544,28.12956 -46.51741,47.15695 -81.2527,47.53619 l -1.05823,0.006 c -53.905099,0 -95.000558,-44.14027 -95.000558,-95.00056 0,-52.466056 42.532268,-94.999444 95.000558,-94.999444 z"
       fill="#ffffff"
       fill-rule="nonzero"
       id="path5"
       sodipodi:nodetypes="scccccsscccccss" />
  </g>
</svg>
