<?xml version="1.0" encoding="UTF-8" standalone="no"?>
<svg
   width="727.487"
   height="1006.066"
   version="1.1"
   id="svg2"
   sodipodi:docname="java.svg"
   inkscape:version="1.3.2 (091e20e, 2023-11-25, custom)"
   xmlns:inkscape="http://www.inkscape.org/namespaces/inkscape"
   xmlns:sodipodi="http://sodipodi.sourceforge.net/DTD/sodipodi-0.dtd"
   xmlns="http://www.w3.org/2000/svg"
   xmlns:svg="http://www.w3.org/2000/svg">
  <defs
     id="defs2" />
  <sodipodi:namedview
     id="namedview2"
     pagecolor="#ffffff"
     bordercolor="#000000"
     borderopacity="0.25"
     inkscape:showpageshadow="2"
     inkscape:pageopacity="0.0"
     inkscape:pagecheckerboard="0"
     inkscape:deskcolor="#d1d1d1"
     inkscape:zoom="0.73866667"
     inkscape:cx="360.7852"
     inkscape:cy="479.91877"
     inkscape:window-width="1920"
     inkscape:window-height="1027"
     inkscape:window-x="1912"
     inkscape:window-y="-8"
     inkscape:window-maximized="1"
     inkscape:current-layer="svg2" />
  <path
     style="fill:#f79221;stroke:none"
     d="m 457.69758,0 c 0.219,10.2797 3.202,20.654 3.911,31 1.398,20.422 -2.008,42.241 -10.198,60.996 -28.116,64.388 -90.36,107.996 -142.713,151.569 -22.629,18.834 -44.631,38.805 -62.373,62.435 -7.078,9.426 -14.858,19.891 -19.072,31 -5.24,13.814 -8.891,28.197 -9.516,43 -2.395,56.788 37.04,105.623 78.961,138.996 10.9,8.678 22.37,16.3 33.91,24.054 5.804,3.899 12.015,9.009 19.09,9.95 -2.612,-5.6 -7.668,-9.412 -11.715,-14 -8.998,-10.202 -18.137,-20.165 -26.401,-31 -30.544,-40.049 -54.155,-98.395 -33.291,-147.911 15.37,-36.474 48.697,-64.418 77.407,-90.258 43.434,-39.091 90.955,-78.794 114.252,-134.001 5.926,-14.045 9.006,-28.895 11.338,-43.83 2.205,-14.117 2.094,-28.872 -0.181,-43 -2.935,-18.23 -10.99,-33.4502 -20.409,-49 h -3 m -58,581 c 8.467,3.612 18.859,-7.619 25,-12.754 20.057,-16.772 39.612,-38.594 44.536,-65.246 4.819,-26.082 -8.853,-47.748 -21.453,-69.427 -17.602,-30.287 -35.782,-61.509 -25.105,-97.573 12.162,-41.081 47.462,-72.477 81.022,-96.848 10.483,-7.613 21.608,-15.063 33,-21.221 4.874,-2.636 13.099,-5.396 15,-10.931 -8.76,1.294 -17.1,5.384 -25.17,8.866 -9.295,4.01 -18.627,7.714 -27.869,11.92 -10.659,4.85 -21.304,9.93 -31.533,15.642 -46.217,25.809 -95.288,66.275 -103.633,121.572 -1.351,8.952 -2.696,17.828 -1.666,27 2.705,24.099 14.897,45.992 27.949,66 14.324,21.959 30.248,45.646 29.904,73 -0.163,12.886 -5.279,24.694 -11.406,35.714 -2.703,4.862 -6.417,9.178 -8.576,14.286 z"
     id="path1" />
  <path
     style="fill:#05799a;stroke:none"
     d="m 610.69758,552 c 11.432,0 22.133,-0.557 33,3.618 6.072,2.333 11.99,5.534 17,9.708 25.282,21.061 24.993,53.727 12.044,81.674 -13.926,30.055 -41.18,51.426 -68.044,69.333 -10.386,6.924 -21.465,14.839 -33,19.667 v 2 c 5.684,2.602 11.299,-0.177 17,-1.96 13.087,-4.092 25.368,-9.764 38,-14.955 32.598,-13.397 66.296,-34.726 86.558,-64.085 16.197,-23.469 19.817,-55.348 4.327,-80.004 -16.926,-26.942 -47.342,-34.043 -76.885,-33.996 -8.244,0.013 -26.683,-0.028 -30,9 m -26,63 c -2.831,-4.991 -9.159,-7.093 -14,-9.872 -4.346,-2.494 -8.973,-6.579 -14,-7.536 -6.551,-1.248 -15.573,2.852 -22,4.188 -14.165,2.945 -28.675,5.635 -43,7.502 -82.916,10.807 -166.787,14.942 -250,4 -19.257,-2.532 -38.145,-5.682 -57,-10.176 -8.144,-1.942 -19.605,-4.512 -24.392,-12.121 -5.7,-9.059 11.491,-15.362 17.392,-17.975 22.653,-10.03 49.475,-15.843 74,-19.01 -2.546,-3.558 -6.053,-2.206 -10,-2.039 -8.796,0.371 -17.238,1.994 -26,2.87 -32.408,3.24 -66.679,9.131 -97,21.37 -8.776,3.542 -27.242002,11.611 -24.566002,23.799 2.446,11.134 18.354002,16.327 27.566002,20 28.951,11.545 62.055,18.234 93,21.089 17.615,1.626 35.265,4.607 53,5.822 35.15,2.407 70.815,2.669 106,1.128 35.78,-1.567 71.537,-2.57 107,-8.364 23.756,-3.881 47.712,-8.111 71,-14.365 11.099,-2.98 21.762,-7.983 33,-10.31 m -44,106 v -2 c -7.364,-3.442 -14.611,-7.895 -21.576,-12.106 -4.662,-2.818 -9.874,-6.875 -15.424,-7.591 -7.387,-0.952 -16.782,3.623 -24,5.186 -16.655,3.606 -34.074,6.146 -51,8.225 -28.447,3.493 -57.33,4.286 -86,4.286 -20.264,0 -40.86,-0.018 -61,-2.174 -21.167,-2.266 -44.079,-5.147 -64,-12.992 -6.571,-2.587 -18.023,-6.336 -18.664,-14.834 -0.551,-7.315 7.674,-10.53 10.664,-16 -19.846,3.739 -41.279,6.766 -59.285,16.478 -7.555,4.074 -17.461,11.669 -12.536,21.522 4.562,9.127 16.007,13.812 24.821,17.573 23.09,9.852 47.487,13.08 71.91,17.682 22.695,4.277 45.988,5.773 69.09,6.784 26.275,1.151 51.708,1.851 78,0.05 54.327,-3.72 108.098,-9.177 159,-30.089 m -44,112 v -2 c -9.919,-4.274 -19.749,-10.427 -29,-16.011 -4.363,-2.633 -9.936,-7.46 -15.004,-8.386 -4.012,-0.732 -9.017,1.761 -12.996,2.48 -11.147,2.015 -22.731,4.9 -34,5.824 -37.759,3.095 -75.194,3.774 -113,1.003 -14.482,-1.062 -31.695,-4.384 -45,-10.205 -4.382,-1.917 -11.503,-5.348 -12.339,-10.72 -0.485,-3.119 2.156,-6.257 3.339,-8.985 -15.12,0.322 -35.979,6.209 -48,15.529 -6.968,5.401 -12.338,14.112 -6.486,22.471 6.283,8.975 16.596,13.72 26.486,17.424 17.936,6.719 36.101,10.955 55,13.872 44.401,6.855 90.35,8.185 135,2.874 33.127,-3.941 66.086,-9.549 96,-25.17 m 151,22 c -5.228,12.114 -15.939,19.777 -27,26.189 -23.798,13.796 -50.765,18.681 -77,25.391 -13.11,3.354 -26.683,4.569 -40,6.745 -36.827,6.015 -73.755,8.085 -111,9.715 -51.82,2.27 -103.398,2.67 -155,-3.76 -13.651,-1.694 -27.514,-2.519 -41,-5.396 -31.567,-6.732 -65.037,-9.209 -94.91,-22.59 C 91.683578,886.769 77.558578,882.117 72.925578,871 c -4.135,-9.923 4.69,-19.44 11.773,-25.195 C 102.44658,831.383 123.05258,827.16 143.69758,819 c -3.496,-3.658 -7.4,-2.358 -12,-1.586 -9.025,1.513 -18.029,3.177 -27,4.986 -29.494002,5.945 -61.852002,15.288 -87.000002,32.271 -12.984,8.769 -23.697,23.164 -13.87,38.328 8.479,13.086 26.789,19.62 40.87,24.368 32.979,11.123 66.487002,18.513 101.000002,22.923 40.308,5.14 80.412,9.84 121,12.62 8.305,0.57 16.685,-0.23 25,0.13 53.098,2.32 106.167,0.41 159,-4.87 36.784,-3.68 74.018,-7.69 110,-16.65 22.821,-5.67 46.031,-11.64 67.039,-22.437 7.471,-3.839 14.731,-7.393 20.961,-13.173 10.378,-9.629 17.616,-25.08 5.907,-36.851 -2.132,-2.144 -4.062,-3.26 -6.907,-4.059 m 52,48 c -6.733,9.479 -18.171,16.09 -28,22 -24.943,15 -52.23,24.73 -80,32.97 -75.943,22.54 -156.13,29.11 -235,31.04 -31.57,0.78 -63.43,2.06 -95,-0.1 -31.733,-2.17 -63.386,-4.31 -95,-8.19 -8.035,-0.99 -16.005,-2.05 -24,-3.31 -6.242,-0.99 -10.914,-2.97 -17,-0.41 v 2 c 48.837,13.73 99.508,20.63 150,24.09 97.002,6.65 194.909,2.84 290,-18.42 35.26,-7.89 71.932,-18.45 103,-37.48 17.062,-10.45 31.391,-23.66 34,-44.19 z"
     id="path2" />
</svg>
