<svg version="1.0" width="683.57" height="218.39" xmlns:xlink="http://www.w3.org/1999/xlink" xmlns="http://www.w3.org/2000/svg"><defs><linearGradient id="b"><stop style="stop-color:#a5f02f;stop-opacity:.99473685" offset="0"/><stop style="stop-color:#6bdf00;stop-opacity:1" offset="1"/></linearGradient><linearGradient id="a"><stop style="stop-color:#b0fa00;stop-opacity:1" offset="0"/><stop style="stop-color:#90ff0b;stop-opacity:1" offset=".13"/><stop style="stop-color:#c2ff30;stop-opacity:1" offset=".49"/><stop style="stop-color:#a0ff0b;stop-opacity:1" offset=".84"/><stop style="stop-color:#7ef90b;stop-opacity:1" offset="1"/></linearGradient><linearGradient xlink:href="#a" id="h" x1="144.36" y1="9.19" x2="144.36" y2="158.25" gradientUnits="userSpaceOnUse"/><linearGradient xlink:href="#a" id="g" x1="281.68" y1="42.12" x2="281.43" y2="158.37" gradientUnits="userSpaceOnUse"/><linearGradient xlink:href="#a" id="f" x1="341.01" y1="41.15" x2="343.67" y2="159.48" gradientUnits="userSpaceOnUse"/><linearGradient xlink:href="#a" id="e" x1="482.23" y1="41.59" x2="482.5" y2="157.84" gradientUnits="userSpaceOnUse"/><linearGradient xlink:href="#a" id="d" x1="603.12" y1="41.69" x2="603.89" y2="157.95" gradientUnits="userSpaceOnUse"/><filter style="color-interpolation-filters:sRGB" id="c" x="-.03" y="-.1" width="1.07" height="1.19"><feGaussianBlur stdDeviation="8.90482 7.37123" result="blur"/></filter></defs><g style="display:inline"><path style="display:inline;fill:#000;fill-opacity:.27037773;stroke:none;stroke-width:3;stroke-linecap:round;stroke-linejoin:bevel;stroke-opacity:1;filter:url(#c)" d="m100.97 28.36-20.39.03c-12 .09-15.28 1.09-15.45 8.42l-.04 36.41c.16 6.92 3.03 8.32 15.43 8.4l30.08-.03c22.46.51 32.19 4.47 33.26 18.11l-.02 46.33c-1.08 13.65-10.8 17.61-33.26 18.14l-38.43-.02c-22.47-.54-32.2-4.51-33.28-18.14v-22.18h27.08v19.56c.16 7 2.65 8.33 15.44 8.41h19.93c11.7-.07 15.27-1.18 15.44-8.4v-41.05c-.15-6.8-2.8-8.32-15.42-8.4l-30.07.02C48.8 93.45 39.08 89.5 38 75.87l.04-41.65c1.1-13.63 10.83-17.6 33.3-18.16l38.9-.06c22.49.5 32.21 4.44 33.27 18.07l-.04 22.2-27.1.03.03-19.56c-.14-6.99-2.62-8.32-15.43-8.38zM281.16 146.1l.29-79.41c-1.02-13.63-10.74-17.57-33.32-18l-45.17.14c-22.5.6-32.24 4.6-33.35 18.23l-.07 78.97c1.09 13.65 10.81 17.64 33.29 18.2l45.08.07c22.56-.48 32.19-4.46 33.25-18.2zm-84.98-2.7.09-73.76c.18-6.74 3.24-8.34 15.47-8.47l27.51-.09c12.25.05 15.3 1.63 15.44 8.37l-.18 73.97c-.16 6.86-2.8 8.38-15.43 8.45l-27.46-.02c-12.62-.1-15.28-1.63-15.44-8.45zm167.33 21.81 18.25-.22c22.87-.91 32.6-4.98 33.74-18.82l-.45-79.64c-1.18-13.67-11.04-17.68-33.73-18.28l-17.87-.02c-16.9.29-20 3.3-24.18 8.72l-2.2-.03-.05-8.65-27.37.12-.17 150.41 27.41.2-.47-43.19 2.3.05c3.58 5.22 6.47 9.06 24.79 9.35zm-27.34-22.81.75-72.23c.25-6.67 4.34-9.49 17.05-9.64h18c12.6.12 15.5 1.55 15.7 8.45l.73 74.65c-.23 7.28-2.78 8.6-15.9 9.07l-18.95.09c-13.14-.5-17.1-3.53-17.38-10.4zm206.68-93.5-96.81-.35.06 12.37 70.62.27-74.76 90.01-.04 13.21 101.04-.2v-12.38l-74.86.06L542.88 62zm102.66.16-40.66-.05c-22.49.5-32.2 4.45-33.27 18.08l.06 78.93c1.09 13.66 10.81 17.62 33.27 18.14l39.32-.02c22.45-.54 32.19-4.5 33.28-18.14v-12.3h-27.09v9.68c-.15 7-2.65 8.33-15.44 8.41h-20.82c-12.63-.07-15.27-1.6-15.43-8.4V111.3l80.1.03-.02-44.12c-1.1-13.62-10.83-17.6-33.3-18.15Zm-31.4 12.3 22.16.03c12.22.1 15.27 1.7 15.45 8.43l.02 29.15-53.02-.03-.03-29.18c.16-6.72 3.19-8.32 15.42-8.4z" transform="translate(-16.63 1.7)"/><path style="display:inline;fill:url(#d);fill-opacity:1;stroke:url(#radialGradient463);stroke-width:3;stroke-linecap:round;stroke-linejoin:bevel;stroke-dasharray:none;stroke-opacity:1" d="m645.5 43.07-40.65-.05c-22.49.5-32.2 4.45-33.27 18.08l.06 78.93c1.09 13.66 10.81 17.62 33.27 18.14l39.32-.02c22.45-.54 32.19-4.5 33.28-18.14v-12.3 0h-27.09v9.68c-.15 7-2.65 8.33-15.44 8.41h-20.82c-12.63-.07-15.27-1.6-15.43-8.4V105.3v0l80.1.03-.02-44.12c-1.1-13.62-10.83-17.6-33.3-18.15Zm-31.39 12.3 22.16.03c12.22.1 15.27 1.7 15.45 8.43l.02 29.15-53.02-.03-.03-29.18c.16-6.72 3.19-8.32 15.42-8.4z" transform="translate(-16.63 1.7)"/><path style="display:inline;fill:url(#e);stroke:url(#radialGradient464);stroke-width:3;stroke-linecap:round;stroke-linejoin:bevel" d="M542.85 42.9v0l-96.81-.34v0l.06 12.37 70.62.27-74.76 90.01-.04 13.21 101.04-.2v-12.38l-74.86.06L542.88 56z" transform="translate(-16.63 1.7)"/><path style="display:inline;fill:url(#f);fill-opacity:1;stroke:url(#radialGradient465);stroke-width:3;stroke-linecap:round;stroke-linejoin:bevel;stroke-dasharray:none;stroke-opacity:1" d="m363.51 159.22 18.25-.22c22.87-.91 32.6-4.98 33.74-18.82l-.45-79.64c-1.18-13.67-11.04-17.68-33.73-18.28l-17.87-.02c-16.9.29-20 3.3-24.18 8.72l-2.2-.03v0l-.05-8.65v0l-27.37.12v0l-.17 150.41v0l27.41.2v0l-.47-43.19 2.3.05c3.58 5.22 6.47 9.06 24.79 9.35zm-27.34-22.81.75-72.23c.25-6.67 4.34-9.49 17.05-9.64h18c12.6.12 15.5 1.55 15.7 8.45l.73 74.65c-.23 7.28-2.78 8.6-15.9 9.07l-18.95.09c-13.14-.5-17.1-3.53-17.38-10.4z" transform="translate(-16.63 1.7)"/><path style="display:inline;fill:url(#g);fill-opacity:1;stroke:url(#radialGradient466);stroke-width:3;stroke-linecap:round;stroke-linejoin:bevel;stroke-dasharray:none;stroke-opacity:1" d="m281.16 140.11.29-79.41c-1.02-13.63-10.74-17.57-33.32-18l-45.17.14c-22.5.6-32.24 4.6-33.35 18.23l-.07 78.97c1.09 13.65 10.81 17.64 33.29 18.2l45.08.07c22.56-.48 32.19-4.46 33.25-18.2zm-84.98-2.7.09-73.76c.18-6.74 3.24-8.34 15.47-8.47l27.51-.09c12.25.05 15.3 1.63 15.44 8.37l-.18 73.97c-.16 6.86-2.8 8.38-15.43 8.45l-27.46-.02c-12.62-.1-15.28-1.63-15.44-8.45z" transform="translate(-16.63 1.7)"/><path style="display:inline;fill:url(#h);stroke:url(#radialGradient467);stroke-width:3;stroke-linecap:round;stroke-linejoin:bevel" d="m100.97 22.36-20.39.03c-12 .09-15.28 1.09-15.45 8.42l-.04 36.41c.16 6.92 3.03 8.32 15.43 8.4l30.08-.03c22.46.51 32.19 4.47 33.26 18.11l-.02 46.33c-1.08 13.65-10.8 17.61-33.26 18.14l-38.43-.02c-22.47-.54-32.2-4.51-33.28-18.14v-22.18 0h27.08v19.56c.16 7 2.65 8.33 15.44 8.41h19.93c11.7-.07 15.27-1.18 15.44-8.4V96.35c-.15-6.8-2.8-8.32-15.42-8.4l-30.07.02C48.8 87.45 39.08 83.5 38 69.87l.04-41.65c1.1-13.63 10.83-17.6 33.3-18.16l38.9-.06c22.49.5 32.21 4.44 33.27 18.07l-.04 22.2v0l-27.1.03.03-19.56c-.14-6.99-2.62-8.32-15.43-8.38z" transform="translate(-16.63 1.7)"/></g></svg>