<svg xmlns="http://www.w3.org/2000/svg" xml:space="preserve" version="1.0" viewBox="0 0 10 10"><path d="M2.6 3.63c.01-.8.14-1.38.34-2.39l.17-.22.28.18s.07 1.08-.22 2.14c0 0-.04.21-.17.28-.07.04-.29.09-.4.01z" style="font-variation-settings:'wght' 700;fill:#fff;stroke-width:2;stroke-linecap:round;stroke-linejoin:round"/><path d="M4.9 4.83c-.65.01-.9.26-.9.43.01.18-.06.49 1.06.9l.2.06c1.33.44 1.27.69 1.27.69l-.27.24a5 5 0 0 0-1.23.28c-.63.24-.8.52-.77.61.03.14.22.28.22.28s.31-.32.4-.33c.08 0 .11.11.16.1 1.7-.5 2.2-.42 2.2-1.13.02-.71-.9-.82-2.16-1.49 0-.05.1-.12.1-.12L7 5.26l.06-.12a7 7 0 0 0-2.16-.31z" style="font-variation-settings:'wght' 700;fill:#fff;fill-opacity:1;stroke-width:2;stroke-linecap:round;stroke-linejoin:round"/></svg>