<?xml version="1.0" encoding="UTF-8" standalone="no"?>
<svg
   xml:space="preserve"
   viewBox="0 0 68.7 69.5"
   clip-rule="evenodd"
   fill-rule="evenodd"
   stroke-linejoin="round"
   stroke-miterlimit="1.41"
   version="1.1"
   id="svg8"
   sodipodi:docname="bforartists_simple.svg"
   inkscape:version="1.3.2 (091e20e, 2023-11-25, custom)"
   xmlns:inkscape="http://www.inkscape.org/namespaces/inkscape"
   xmlns:sodipodi="http://sodipodi.sourceforge.net/DTD/sodipodi-0.dtd"
   xmlns="http://www.w3.org/2000/svg"
   xmlns:svg="http://www.w3.org/2000/svg"><defs
     id="defs8" /><sodipodi:namedview
     id="namedview8"
     pagecolor="#505050"
     bordercolor="#ffffff"
     borderopacity="1"
     inkscape:showpageshadow="0"
     inkscape:pageopacity="0"
     inkscape:pagecheckerboard="1"
     inkscape:deskcolor="#505050"
     inkscape:zoom="12.014388"
     inkscape:cx="36.414671"
     inkscape:cy="31.836826"
     inkscape:window-width="1920"
     inkscape:window-height="1027"
     inkscape:window-x="1912"
     inkscape:window-y="-8"
     inkscape:window-maximized="1"
     inkscape:current-layer="svg8" /><path
     d="M45.09 66.34a83.93 83.93 0 0 1-7.14-5.71c2.04-.75 3.4-4.1 5.62-2.36 2.5.96 5.08 2.17 7.83 2.08 2.23-.23 1.57-3.03 1.08-4.48-1.91-5.9-5.71-10.98-7.67-16.86-.9-3.6-1.4-7.9.97-11.07 2.5-3.06 7.26-3.66 10.6-1.65 3.54 1.94 6.14 5.24 7.78 8.88 2.82 6 4.54 12.74 3.84 19.4-.65 5.71-4.09 11.3-9.4 13.74-4.43 1.75-9.74.83-13.51-1.99"
     fill="#0c487a"
     stroke-width="1.25"
     stroke="#fff"
     id="path1"
     style="stroke-width:2;stroke-dasharray:none" /><path
     d="M60.04 15.94c-.3 3.03-.75 6.05-1.38 9.03-1.51-1.36-4.99-.89-4.8-3.35-.43-2.76-.59-5.73-2.07-8.18-1.36-1.81-3.25.35-4.35 1.36-3.48 3.44-5.61 7.93-8.45 11.88-2.27 3.47-5.59 6.5-9.64 7.67-3.69 1.12-7.67-1.39-8.9-4.9-1.4-4.06-.31-8.54 1.43-12.32 3.06-6.12 8.52-10.66 14.32-14.1C41.68-.15 48.9-.54 54.4 2.82c3.61 2.07 5.66 6.18 5.7 10.27.04.95 0 1.91-.09 2.86"
     fill="#0c487a"
     stroke-width="1.25"
     stroke="#fff"
     id="path2"
     style="stroke-width:2;stroke-dasharray:none" /><path
     d="M31.16 23.07c-2.3 3.92-5.53 3.16-6.74 2.41-1.64-1-1.63-3.9-1.07-5.74C25.38 13 32.39 7.2 38.75 4.14c2.47-1.17 5.43-2.18 8.6-1.39 2.04.52-.06 1.9-5.1 6.33-4.94 4.36-7.33 7.57-11.1 13.99z"
     fill="#4191d3"
     id="path3" /><path
     d="M27.42 19.82c-1.02 2.47-2.37 3.02-3.08 2.59-.97-.6-.7-1.88-.26-2.92 1.61-3.76 2.9-5.7 5.92-8.55 3.07-2.9 5.6-4.9 7.28-5.22 1.22-.23-1.29 1.6-3.84 4.63-1.64 1.97-3.97 4.53-6.02 9.47z"
     fill="#92bfe5"
     id="path4" /><path
     d="M53.39 37.93c-2.24-3.95.03-6.37 1.28-7.04 1.7-.92 4.19.53 5.5 1.94 4.84 5.14 6.35 14.1 5.8 21.13-.2 2.74-.8 5.8-3.08 8.14-1.47 1.52-1.6-1-2.94-7.57-1.3-6.46-2.88-10.13-6.56-16.6z"
     fill="#4191d3"
     id="path5" /><path
     d="M8.92 28.3a83.94 83.94 0 0 1 8.52-3.33c-.37 2.14 1.84 5-.77 6.05-2.08 1.68-4.4 3.3-5.67 5.72-1 2.18 1.94 2.97 3.53 3.26 6 1.2 12.21.5 18.2 1.72 3.57 1.02 7.54 2.74 9.1 6.37 1.45 3.9-.6 8.61-4.3 10.43-4.87 2.6-10.63 2.04-15.88 1.2-6.62-1.3-13.52-3.91-17.76-9.43C1.3 46.79-.29 42.18.7 37.83a14.4 14.4 0 0 1 8.25-9.53"
     fill="#0c487a"
     stroke-width="1.25"
     stroke="#fff"
     id="path6"
     style="stroke-width:2;stroke-dasharray:none" /><path
     d="M29.34 49.9c4.54.03 5.5 3.2 5.46 4.62-.05 1.93-2.56 3.36-4.43 3.8-6.87 1.62-15.4-1.55-21.2-5.54-2.27-1.55-4.62-3.6-5.51-6.74-.58-2.04 1.66-.9 8.02 1.24 6.25 2.1 10.22 2.56 17.66 2.61z"
     fill="#4191d3"
     id="path7" /><path
     d="M58.01 36.34c-1.62-2.12-1.43-3.57-.7-3.97 1-.53 1.98.33 2.66 1.24 2.45 3.28 3.5 5.37 4.45 9.4.98 4.11 1.44 7.3.87 8.92-.4 1.17-.73-1.92-2.09-5.64-.88-2.4-1.93-5.71-5.19-9.95zM28.3 54.67c2.65-.35 3.81.54 3.79 1.38-.03 1.13-1.27 1.54-2.4 1.68-4.06.48-6.4.34-10.36-.85-4.05-1.21-7.04-2.4-8.16-3.7-.82-.94 2.03.32 5.93 1 2.52.45 5.9 1.18 11.2.49z"
     fill="#92bfe5"
     id="path8" /></svg>
