<?xml version="1.0" encoding="UTF-8" standalone="no"?>
<svg
   id="Capa_1"
   version="1.1"
   viewBox="0 0 110.45804 102.77174"
   xml:space="preserve"
   sodipodi:docname="off_excel.svg"
   inkscape:version="1.3.2 (091e20e, 2023-11-25, custom)"
   width="110.45804"
   height="102.77174"
   xmlns:inkscape="http://www.inkscape.org/namespaces/inkscape"
   xmlns:sodipodi="http://sodipodi.sourceforge.net/DTD/sodipodi-0.dtd"
   xmlns="http://www.w3.org/2000/svg"
   xmlns:svg="http://www.w3.org/2000/svg"
   xmlns:rdf="http://www.w3.org/1999/02/22-rdf-syntax-ns#"
   xmlns:cc="http://creativecommons.org/ns#"
   xmlns:dc="http://purl.org/dc/elements/1.1/"><metadata
     id="metadata29"><rdf:RDF><cc:Work
         rdf:about=""><dc:format>image/svg+xml</dc:format><dc:type
           rdf:resource="http://purl.org/dc/dcmitype/StillImage" /></cc:Work></rdf:RDF></metadata><defs
     id="defs27" /><sodipodi:namedview
     pagecolor="#ffffff"
     bordercolor="#666666"
     borderopacity="1"
     objecttolerance="10"
     gridtolerance="10"
     guidetolerance="10"
     inkscape:pageopacity="0"
     inkscape:pageshadow="2"
     inkscape:window-width="1680"
     inkscape:window-height="962"
     id="namedview25"
     showgrid="false"
     inkscape:zoom="4.2426407"
     inkscape:cx="43.958471"
     inkscape:cy="54.682924"
     inkscape:current-layer="Capa_1"
     inkscape:showpageshadow="2"
     inkscape:pagecheckerboard="0"
     inkscape:deskcolor="#d1d1d1"
     inkscape:window-x="0"
     inkscape:window-y="0"
     inkscape:window-maximized="0" /><style
     type="text/css"
     id="style2">
	.st0{fill:#21A365;}
	.st1{fill:#107C41;}
	.st2{fill:#185B37;}
	.st3{fill:#33C481;}
	.st4{fill:#17864C;}
	.st5{fill:#FFFFFF;}
	.st6{fill:#036C70;}
	.st7{fill:#1A9BA1;}
	.st8{fill:#37C6D0;}
	.st9{fill:#04878B;}
	.st10{fill:#4F59CA;}
	.st11{fill:#7B82EA;}
	.st12{fill:#4C53BB;}
	.st13{fill:#0F78D5;}
	.st14{fill:#29A7EB;}
	.st15{fill:#0358A8;}
	.st16{fill:#0F79D6;}
	.st17{fill:#038387;}
	.st18{fill:#048A8E;}
	.st19{fill:#C8421D;}
	.st20{fill:#FF8F6A;}
	.st21{fill:#ED6B47;}
	.st22{fill:#891323;}
	.st23{fill:#AF2131;}
	.st24{fill:#C94E60;}
	.st25{fill:#E08195;}
	.st26{fill:#B42839;}
	.st27{fill:#0464B8;}
	.st28{fill:#0377D4;}
	.st29{fill:#4FD8FF;}
	.st30{fill:#1681D7;}
	.st31{fill:#0178D4;}
	.st32{fill:#042071;}
	.st33{fill:#168FDE;}
	.st34{fill:#CA64EA;}
	.st35{fill:#7E1FAF;}
	.st36{fill:#AE4BD5;}
	.st37{fill:#9332BF;}
	.st38{fill:#7719AA;}
	.st39{fill:#0078D4;}
	.st40{fill:#1490DF;}
	.st41{fill:#0364B8;}
	.st42{fill:#28A8EA;}
	.st43{fill:#41A5ED;}
	.st44{fill:#2C7BD5;}
	.st45{fill:#195ABE;}
	.st46{fill:#103E91;}
	.st47{fill:#2166C3;}
	.st48{opacity:0.2;}
</style><rect
     class="st0"
     height="25.736116"
     width="42.576862"
     x="67.881165"
     y="25.649754"
     id="rect4"
     style="fill:#21a365;stroke-width:0.863628" /><rect
     class="st1"
     height="25.736116"
     width="42.576862"
     x="67.881165"
     y="51.385872"
     id="rect6"
     style="fill:#107c41;stroke-width:0.863628" /><rect
     class="st1"
     height="25.736116"
     width="42.490501"
     x="25.390667"
     y="25.649754"
     id="rect8"
     style="fill:#107c41;stroke-width:0.863628" /><path
     class="st2"
     d="M 67.881168,77.121988 V 51.385871 h -42.40414 v 25.736117 3.713601 16.927112 c 0,2.763609 2.245433,5.009039 5.009043,5.009039 h 74.876559 c 2.76361,0 5.00904,-2.24543 5.00904,-5.009039 V 77.121988 Z"
     id="path10"
     inkscape:connector-curvature="0"
     style="fill:#185b37;stroke-width:0.863628" /><path
     class="st3"
     d="M 105.36263,0 H 67.794805 V 25.736117 H 110.45804 V 5.009043 C 110.37164,2.245433 108.12624,0 105.36263,0 Z"
     id="path12"
     inkscape:connector-curvature="0"
     style="fill:#33c481;stroke-width:0.863628" /><path
     class="st0"
     d="M 67.881168,0 H 30.572434 c -2.76361,0 -5.009043,2.245433 -5.009043,5.009043 V 25.649754 H 67.96753 V 0 Z"
     id="path14"
     inkscape:connector-curvature="0"
     style="fill:#21a365;stroke-width:0.863628" /><path
     class="st4"
     d="M 51.299508,79.453784 H 5.5272194 C 2.5045214,79.453784 0,76.949262 0,73.926564 V 28.845178 c 0,-3.022698 2.5045214,-5.52722 5.5272194,-5.52722 H 51.299508 c 3.022699,0 5.52722,2.504522 5.52722,5.52722 v 45.081386 c 0,3.022698 -2.418159,5.52722 -5.52722,5.52722 z"
     id="path16"
     inkscape:connector-curvature="0"
     style="fill:#17864c;stroke-width:0.863628" /><g
     id="g20"
     transform="matrix(0.86362809,0,0,0.86362809,-0.0863628,-3.8863268)"><path
       class="st5"
       d="M 40.5,82.4 36.6,75.3 C 35,72.5 34,70.6 32.9,68.5 h -0.1 c -0.9,2.1 -1.8,4 -3.3,6.8 L 26,82.4 H 18.4 L 29.2,64.3 18.7,46.5 h 7.7 l 3.9,7.4 c 1.2,2.2 2.1,4 3,6 h 0.2 c 1,-2.2 1.7,-3.8 2.9,-6 l 3.9,-7.4 h 7.6 L 37.2,64 48.3,82.4 Z"
       id="path18"
       inkscape:connector-curvature="0"
       style="fill:#ffffff" /></g><path
     class="st48"
     d="m 57.51763,28.327001 c 0,0.172726 0,0.345451 0,0.518177 v 45.081386 c 0,3.022698 -2.504521,5.52722 -5.527219,5.52722 h -25.82248 v 4.92268 H 56.56764 c 3.022698,0 5.527219,-2.504521 5.527219,-5.52722 V 33.767858 c 0.08636,-2.76361 -1.986344,-5.095406 -4.577229,-5.440857 z"
     id="path22"
     inkscape:connector-curvature="0"
     style="opacity:0.2;stroke-width:0.863628" /></svg>
