<?xml version="1.0" encoding="UTF-8" standalone="no"?>
<!-- Generator: Blender, SVG Export for Grease Pencil - v1.0 -->

<svg
   version="1.0"
   x="0px"
   y="0px"
   width="418.44928"
   height="418.44922"
   viewBox="0 0 418.44928 418.44922"
   id="svg7"
   sodipodi:docname="sannybuilder.svg"
   inkscape:version="1.3.2 (091e20e, 2023-11-25, custom)"
   xmlns:inkscape="http://www.inkscape.org/namespaces/inkscape"
   xmlns:sodipodi="http://sodipodi.sourceforge.net/DTD/sodipodi-0.dtd"
   xmlns:xlink="http://www.w3.org/1999/xlink"
   xmlns="http://www.w3.org/2000/svg"
   xmlns:svg="http://www.w3.org/2000/svg">
  <defs
     id="defs7">
    <linearGradient
       id="linearGradient5"
       inkscape:collect="always">
      <stop
         style="stop-color:#ffffff;stop-opacity:1;"
         offset="0"
         id="stop4" />
      <stop
         style="stop-color:#767676;stop-opacity:1;"
         offset="1"
         id="stop5" />
    </linearGradient>
    <linearGradient
       inkscape:collect="always"
       xlink:href="#linearGradient5"
       id="linearGradient2"
       x1="139.12636"
       y1="126.61613"
       x2="140.65607"
       y2="402.80746"
       gradientUnits="userSpaceOnUse"
       gradientTransform="translate(-9.218033,-2.1835579)" />
    <linearGradient
       inkscape:collect="always"
       xlink:href="#linearGradient5"
       id="linearGradient4"
       x1="41.039711"
       y1="125.1405"
       x2="40.471958"
       y2="403.39682"
       gradientUnits="userSpaceOnUse"
       gradientTransform="translate(-9.218033,-2.1835579)" />
    <linearGradient
       inkscape:collect="always"
       xlink:href="#linearGradient5"
       id="linearGradient7"
       x1="400.09137"
       y1="334.02896"
       x2="370.65149"
       y2="-160.39484"
       gradientUnits="userSpaceOnUse"
       gradientTransform="translate(0.2730252,-6.5640463)" />
    <linearGradient
       inkscape:collect="always"
       xlink:href="#linearGradient5"
       id="linearGradient11"
       x1="375.52539"
       y1="339.31732"
       x2="345.09912"
       y2="-160.05833"
       gradientUnits="userSpaceOnUse"
       gradientTransform="translate(0.2730252,-6.5640463)" />
  </defs>
  <sodipodi:namedview
     id="namedview7"
     pagecolor="#ffffff"
     bordercolor="#000000"
     borderopacity="0.25"
     inkscape:showpageshadow="2"
     inkscape:pageopacity="0.0"
     inkscape:pagecheckerboard="0"
     inkscape:deskcolor="#d1d1d1"
     inkscape:zoom="0.68485516"
     inkscape:cx="19.712197"
     inkscape:cy="203.69271"
     inkscape:window-width="1920"
     inkscape:window-height="1027"
     inkscape:window-x="-8"
     inkscape:window-y="-8"
     inkscape:window-maximized="1"
     inkscape:current-layer="svg7" />
  <polyline
     stroke="#000000"
     stroke-opacity="1"
     fill="none"
     stroke-linecap="round"
     stroke-width="4"
     points="418.124390,11.726501 10.000000,11.726501 10.000000,419.850830 418.124390,419.850830 418.124390,11.726501"
     id="polyline7"
     style="fill:#000000;fill-opacity:1;stroke:none;stroke-opacity:1"
     inkscape:label="bg"
     transform="matrix(1.0252984,0,0,1.0252984,-10.252984,-12.023163)" />
  <path
     id="polyline1"
     style="fill:url(#linearGradient2);stroke-width:4;stroke-linecap:round"
     d="M 274.64843,417.66726 277.0719,394.147 c 0.27684,-101.62005 -80.92913,-93.78669 -175.5838,-125.33326 -31.844968,-10.1605 -38.241337,-19.08479 -42.911697,-38.7005 5.072203,-37.26768 38.916042,-46.53849 70.489757,-48.43484 42.15515,-1.37427 75.22462,19.72556 73.80505,63.78787 h 64.32825 C 273.96791,158.45421 202.30413,130.63441 129.59063,124.43289 60.058389,130.62186 51.30986,134.82028 8.6799184,178.53545 L 0.781967,206.74001 v 46.7464 L 8.6799184,281.691 c 43.0243706,45.84543 105.8352516,53.60388 164.4470916,68.17224 38.31034,13.41543 52.31096,29.20067 37.06836,67.80402 h 64.45306"
     sodipodi:nodetypes="ccccccccccccccc" />
  <path
     id="polyline2"
     style="fill:url(#linearGradient4);stroke-width:4;stroke-linecap:round"
     d="M 52.484972,417.66726 C 49.272081,402.52062 45.891691,387.80689 46.388964,372.36935 H 0.781967 v 45.29791 h 51.703005"
     sodipodi:nodetypes="ccccc" />
  <path
     id="polyline3"
     style="fill:url(#linearGradient7);stroke-width:4;stroke-linecap:round"
     d="m 417.65022,240.30472 v 32.19288 c 0,0 -1.48053,1.13029 -2.07935,1.83435 -8.47239,9.96127 -11.78258,23.82422 -20.89514,33.20343 -1.78122,1.83334 -3.90962,4.96377 -6.36975,4.26977 -11.68159,-3.29537 -25.62411,-10.1957 -37.6001,-15.49518 -2.33751,-1.03437 -1.53972,-4.96188 -1.51208,-7.51788 0.14138,-13.07624 7.55955,-25.24628 8.56543,-38.28455 0.21238,-2.75292 0.59537,-5.75161 -0.54725,-8.26519 -2.29051,-5.03873 -6.71549,-9.44784 -11.76245,-11.72016 -2.51767,-1.13355 -5.51497,-0.7397 -8.26709,-0.51739 -13.03454,1.05291 -25.17777,8.51482 -38.25341,8.70331 -2.55589,0.0368 -6.44863,0.83428 -7.52332,-1.48499 -4.81422,-10.38949 -12.02839,-26.11574 -15.63055,-37.54398 -0.76843,-2.43791 2.41985,-4.59733 4.24676,-6.38516 9.34624,-9.14633 23.19706,-12.50657 33.12781,-21.01468 2.0968,-1.79642 4.48809,-3.64594 5.45752,-6.23126 1.94333,-5.18256 1.93208,-11.42924 -0.0299,-16.60477 -0.97872,-2.58179 -3.37662,-4.4227 -5.47986,-6.21154 -9.96136,-8.4723 -23.82434,-11.78245 -33.20349,-20.89508 -1.83334,-1.78125 -5.049,-3.9354 -4.26971,-6.36988 4.06984,-12.71406 9.67935,-26.398449 15.49505,-37.60003 1.17786,-2.268664 4.96201,-1.539724 7.51807,-1.512085 13.07624,0.141397 25.24629,7.559499 38.28455,8.565369 2.7529,0.212379 5.75157,0.595377 8.26513,-0.547241 5.03872,-2.290512 9.44777,-6.715509 11.7201,-11.762452 1.13355,-2.517672 0.73975,-5.514963 0.51745,-8.267089 -1.05285,-13.034564 -8.51479,-25.177821 -8.70325,-38.253479 -0.0368,-2.555852 -0.85593,-6.496634 1.48499,-7.523194 10.38949,-4.556084 24.30884,-12.2865803 37.54394,-15.6306153 2.47826,-0.6261674 4.59731,2.41986 6.38513,4.246765 9.14632,9.3462873 12.50647,23.1972023 21.01464,33.1279303 0.72076,0.841273 2.50013,2.189636 2.50013,2.189636 V 74.82957 l -4.37244,0.0079 c -43.2974,16.245771 -61.98651,34.66938 -67.93824,82.76472 1.3449,44.06087 31.63755,67.62733 68.23631,82.70989 l 4.07434,-0.007"
     sodipodi:nodetypes="ccsssssssssssssssssssssssssssssscccccc" />
  <path
     id="polyline4"
     style="fill:url(#linearGradient11);stroke-width:4;stroke-linecap:round"
     d="m 417.65022,177.73014 -1.3e-4,24.56796 c -11.07586,0.44233 -33.22603,-20.36442 -33.80524,-45.14174 0.18753,-25.50249 20.99412,-44.89496 33.80533,-44.38698 v 24.60471 l -1.01331,0.42188 c -5.60883,2.50526 -9.89086,7.21215 -10.07584,19.8172 0.012,10.00887 3.52587,14.95033 10.14716,19.72872 l 0.94214,0.38825"
     sodipodi:nodetypes="ccccccccc" />
  <path
     id="polyline6"
     style="display:inline;fill:#919191;fill-opacity:0.850895;stroke:none;stroke-width:1.01417;stroke-opacity:1"
     d="m 0.2421298,418.20783 c 139.3218902,0 278.6437702,0 417.9656502,0 0,-139.32188 0,-278.64376 0,-417.96563931 -139.32188,0 -278.64376,0 -417.9656502,0 0,139.32187931 0,278.64375931 0,417.96563931 z M 19.798615,17.770333 c 126.960355,0 253.920685,0 380.881035,0 0,127.636447 0,255.272907 0,382.909367 -127.63646,0 -255.27292,0 -382.909379,0 0,-127.63646 0,-255.27292 0,-382.909367 0.676115,0 1.352229,0 2.028344,0 z" />
</svg>
