<?xml version="1.0" encoding="UTF-8" standalone="no"?>
<svg
   viewBox="29.8 10.6 471.87906 454.26663"
   width="471.87906"
   height="454.26663"
   version="1.1"
   id="svg12"
   sodipodi:docname="subs_painter.svg"
   inkscape:version="1.3.2 (091e20e, 2023-11-25, custom)"
   xmlns:inkscape="http://www.inkscape.org/namespaces/inkscape"
   xmlns:sodipodi="http://sodipodi.sourceforge.net/DTD/sodipodi-0.dtd"
   xmlns="http://www.w3.org/2000/svg"
   xmlns:svg="http://www.w3.org/2000/svg"
   xmlns:rdf="http://www.w3.org/1999/02/22-rdf-syntax-ns#"
   xmlns:cc="http://creativecommons.org/ns#"
   xmlns:dc="http://purl.org/dc/elements/1.1/">
  <metadata
     id="metadata18">
    <rdf:RDF>
      <cc:Work
         rdf:about="">
        <dc:format>image/svg+xml</dc:format>
        <dc:type
           rdf:resource="http://purl.org/dc/dcmitype/StillImage" />
        <dc:title />
      </cc:Work>
    </rdf:RDF>
  </metadata>
  <defs
     id="defs16" />
  <sodipodi:namedview
     pagecolor="#ffffff"
     bordercolor="#666666"
     borderopacity="1"
     objecttolerance="10"
     gridtolerance="10"
     guidetolerance="10"
     inkscape:pageopacity="0"
     inkscape:pageshadow="2"
     inkscape:window-width="1798"
     inkscape:window-height="969"
     id="namedview14"
     showgrid="false"
     inkscape:zoom="1.7377856"
     inkscape:cx="202.84436"
     inkscape:cy="244.85184"
     inkscape:current-layer="svg12"
     inkscape:showpageshadow="2"
     inkscape:pagecheckerboard="0"
     inkscape:deskcolor="#d1d1d1"
     inkscape:window-x="0"
     inkscape:window-y="0"
     inkscape:window-maximized="0" />
  <ellipse
     style="opacity:1;fill:#ffffff;fill-opacity:1;stroke:none;stroke-width:7.85108;stroke-linejoin:miter;stroke-miterlimit:4;stroke-dasharray:none;stroke-opacity:1"
     id="path819"
     cx="238.71284"
     cy="282.92609"
     rx="159.11053"
     ry="158.24738" />
  <g
     id="g10"
     style="fill:#e1262f"
     transform="matrix(3.2166262,0,0,3.2166262,-66.055463,-23.417236)">
    <circle
       cx="94.5"
       cy="19.799999"
       transform="rotate(-80.781,94.51,19.759)"
       id="ellipse2"
       r="9.1999998" />
    <circle
       cx="162"
       cy="137.3"
       r="14.5"
       id="circle4" />
    <circle
       cx="36.200001"
       cy="137.3"
       r="6.4000001"
       id="circle6" />
    <path
       d="m 94.5,38.7 c -31,0 -56.1,25.1 -56.1,56.1 0,31 25.1,56.1 56.1,56.1 31,0 56.1,-25.1 56.1,-56.1 0,-31 -25.1,-56.1 -56.1,-56.1 z M 56.5,73 94.4,51.1 132.2,73 V 92.8 L 114.8,87.2 V 83.1 L 94.4,71.3 79.4,80 132.2,96.9 v 19.8 L 94.3,138.6 56.4,116.8 V 96.9 l 17.5,5.5 v 4.1 l 20.4,11.8 15.2,-8.8 -53,-16.8 z"
       id="path8"
       inkscape:connector-curvature="0" />
  </g>
</svg>
