<svg xmlns="http://www.w3.org/2000/svg" xmlns:xlink="http://www.w3.org/1999/xlink" fill="none" viewBox="0 0 176.5 176.5"><defs><path id="reuse-0" fill="#fff" d="M0 0h176.5v176.5H0z"/></defs><g clip-path="url(#a)" transform="translate(-8.3 -8.3)"><g clip-path="url(#b)"><mask id="c" width="177" height="177" x="8" y="8" maskUnits="userSpaceOnUse"><path fill="#fff" d="m40.6 157.5-29.4-22a7.3 7.3 0 0 1-3-6v-66a7.3 7.3 0 0 1 3-6l29.4-22a6.7 6.7 0 0 0-2 5.9v110.2a6.7 6.7 0 0 0 2 6z"/><path fill="#fff" d="M181.5 38.9a7.4 7.4 0 0 0-9.2.8l-.5.6L113 96.5l-32.4 31.1-30 28.8-.6.5a7.1 7.1 0 0 1-5 2.1c-1.7 0-3.2-.5-4.5-1.5l-29.4-22a7.3 7.3 0 0 0 10-1.1l32.7-38 26.8-31 46.9-54.6a7.2 7.2 0 0 1 5.6-2.5c1.4 0 2.8.4 4 1.2z"/><path fill="#fff" d="m181.5 154.1-44.2 29.4a7.4 7.4 0 0 1-9.6-1.3l-47-54.6-26.8-31.1-32.7-37.9a7.4 7.4 0 0 0-10-1l29.4-22.1a7.4 7.4 0 0 1 7.2-1c.8.4 1.6.9 2.3 1.6l.5.5 30 28.8 32.5 31.1 58.7 56.2.5.6a7.1 7.1 0 0 0 5 2c1.5 0 3-.4 4.2-1.2z"/><path fill="#fff" d="M184.7 45v103a7.4 7.4 0 0 1-3.2 6.1l-44.2 29.4a7.4 7.4 0 0 0 3.3-6.1V15.6a7.4 7.4 0 0 0-3.4-6.1l44.3 29.4a7.4 7.4 0 0 1 3.2 6.1z"/></mask><g mask="url(#c)"><path fill="#5e438f" d="m40.6 157.5-29.4-22a7.3 7.3 0 0 1-3-6v-66a7.3 7.3 0 0 1 3-6l29.4-22a6.7 6.7 0 0 0-2 5.9v110.2a6.7 6.7 0 0 0 2 6z"/><g filter="url(#d)"><path fill="url(#e)" d="M181.5 38.9a7.4 7.4 0 0 0-9.2.8l-.5.6-31.3 30-27.4 26.2-32.4 31.1-30 28.8-.6.5a7.1 7.1 0 0 1-5 2.1c-1.7 0-3.2-.5-4.5-1.5l-29.4-22a7.3 7.3 0 0 0 10-1.1l16.5-19.2 16.2-18.7 26.8-31.1 46.9-54.6a7.3 7.3 0 0 1 5.6-2.5c1.4 0 2.8.4 4 1.2z" style="fill:url(#e)"/></g><g filter="url(#f)"><path fill="url(#g)" d="m181.5 154.1-44.2 29.4a7.4 7.4 0 0 1-9.6-1.3l-47-54.6-26.8-31.1-16.2-18.8-16.5-19.1a7.4 7.4 0 0 0-10-1l29.4-22.1a7.4 7.4 0 0 1 7.2-1c.8.4 1.6.9 2.3 1.6l.5.5 30 28.8 32.5 31.1 27.5 26.3 31.2 30 .5.5a7.2 7.2 0 0 0 5 2c1.5 0 3-.4 4.2-1.2z" style="fill:url(#g)"/></g><g filter="url(#h)"><path fill="url(#i)" d="M184.7 45v103a7.4 7.4 0 0 1-3.2 6.1l-44.2 29.4a7.4 7.4 0 0 0 3.3-6.1V15.6a7.4 7.4 0 0 0-3.4-6.1l44.3 29.4a7.4 7.4 0 0 1 3.2 6.1z" style="fill:url(#i)"/></g></g></g></g><defs><linearGradient id="e" x1="151.6" x2="20.6" y1="8.3" y2="140.1" gradientUnits="userSpaceOnUse"><stop stop-color="#7252AA"/><stop offset="1" stop-color="#7252AA"/></linearGradient><linearGradient id="g" x1="24.8" x2="148" y1="40.4" y2="178.3" gradientUnits="userSpaceOnUse"><stop stop-color="#AE7FE2"/><stop offset="1" stop-color="#9A70D4"/></linearGradient><linearGradient id="i" x1="160.5" x2="160.5" y1="5.9" y2="183.4" gradientUnits="userSpaceOnUse"><stop stop-color="#D59DFF"/><stop offset="1" stop-color="#C18EF1"/></linearGradient><filter id="d" width="180.6" height="161.1" x="6" y="4.4" color-interpolation-filters="sRGB" filterUnits="userSpaceOnUse"><feFlood flood-opacity="0" result="BackgroundImageFix"/><feColorMatrix in="SourceAlpha" result="hardAlpha" values="0 0 0 0 0 0 0 0 0 0 0 0 0 0 0 0 0 0 127 0"/><feOffset dy=".2"/><feGaussianBlur stdDeviation=".2"/><feColorMatrix values="0 0 0 0 0 0 0 0 0 0 0 0 0 0 0 0 0 0 0.24 0"/><feBlend in2="BackgroundImageFix" result="effect1_dropShadow"/><feColorMatrix in="SourceAlpha" result="hardAlpha" values="0 0 0 0 0 0 0 0 0 0 0 0 0 0 0 0 0 0 127 0"/><feOffset dy="1.3"/><feGaussianBlur stdDeviation="2.6"/><feColorMatrix values="0 0 0 0 0 0 0 0 0 0 0 0 0 0 0 0 0 0 0.22 0"/><feBlend in2="effect1_dropShadow" result="effect2_dropShadow"/><feBlend in="SourceGraphic" in2="effect2_dropShadow" result="shape"/></filter><filter id="f" width="180.6" height="161.1" x="6" y="30.1" color-interpolation-filters="sRGB" filterUnits="userSpaceOnUse"><feFlood flood-opacity="0" result="BackgroundImageFix"/><feColorMatrix in="SourceAlpha" result="hardAlpha" values="0 0 0 0 0 0 0 0 0 0 0 0 0 0 0 0 0 0 127 0"/><feOffset dy=".2"/><feGaussianBlur stdDeviation=".2"/><feColorMatrix values="0 0 0 0 0 0 0 0 0 0 0 0 0 0 0 0 0 0 0.24 0"/><feBlend in2="BackgroundImageFix" result="effect1_dropShadow"/><feColorMatrix in="SourceAlpha" result="hardAlpha" values="0 0 0 0 0 0 0 0 0 0 0 0 0 0 0 0 0 0 127 0"/><feOffset dy="1.3"/><feGaussianBlur stdDeviation="2.6"/><feColorMatrix values="0 0 0 0 0 0 0 0 0 0 0 0 0 0 0 0 0 0 0.22 0"/><feBlend in2="effect1_dropShadow" result="effect2_dropShadow"/><feBlend in="SourceGraphic" in2="effect2_dropShadow" result="shape"/></filter><filter id="h" width="78.6" height="205.1" x="121.7" y="-6.1" color-interpolation-filters="sRGB" filterUnits="userSpaceOnUse"><feFlood flood-opacity="0" result="BackgroundImageFix"/><feColorMatrix in="SourceAlpha" result="hardAlpha" values="0 0 0 0 0 0 0 0 0 0 0 0 0 0 0 0 0 0 127 0"/><feOffset/><feGaussianBlur stdDeviation=".1"/><feColorMatrix values="0 0 0 0 0 0 0 0 0 0 0 0 0 0 0 0 0 0 0.24 0"/><feBlend in2="BackgroundImageFix" result="effect1_dropShadow"/><feColorMatrix in="SourceAlpha" result="hardAlpha" values="0 0 0 0 0 0 0 0 0 0 0 0 0 0 0 0 0 0 127 0"/><feOffset/><feGaussianBlur stdDeviation="7.8"/><feColorMatrix values="0 0 0 0 0 0 0 0 0 0 0 0 0 0 0 0 0 0 0.3 0"/><feBlend in2="effect1_dropShadow" result="effect2_dropShadow"/><feBlend in="SourceGraphic" in2="effect2_dropShadow" result="shape"/></filter><clipPath id="a"><use xlink:href="#reuse-0" transform="translate(8.3 8.3)"/></clipPath><clipPath id="b"><use xlink:href="#reuse-0" transform="translate(8.3 8.3)"/></clipPath></defs></svg>