<svg version="1.0" xml:space="preserve" viewBox="0 0 265.77 240.96" xmlns:xlink="http://www.w3.org/1999/xlink" xmlns="http://www.w3.org/2000/svg"><defs><linearGradient id="b"><stop offset="0" stop-color="#7e0e10"/><stop offset="1" stop-color="#ea5f62"/></linearGradient><linearGradient id="c"><stop offset="0" stop-color="#4d0b0b"/><stop offset="1" stop-color="#d73f3f"/></linearGradient><linearGradient id="a"><stop offset="0" stop-color="#989898"/><stop offset="1" stop-color="#424242"/></linearGradient><linearGradient xlink:href="#b" id="d" x1="40.36" y1="390.51" x2="9.99" y2="286.77" gradientUnits="userSpaceOnUse" gradientTransform="matrix(1.74819 0 0 1.27858 27.85 -294.5)"/><linearGradient xlink:href="#c" id="e" x1="40.36" y1="390.51" x2="9.99" y2="286.77" gradientUnits="userSpaceOnUse" gradientTransform="matrix(1.74819 0 0 1.27858 27.85 -294.5)"/></defs><rect width="250.82" height="171.62" x="7.48" y="34.96" ry="0" fill="url(#d)" stroke="url(#e)" stroke-width="14.95" stroke-linecap="round" stroke-linejoin="round"/><path d="m.16 111.15 2.4-8.32h1.9l2.4 8.32H5.2l-1.63-6.29h-.1l-1.64 6.29zm1.22-1.58v-1.43H5.6v1.43zm8.88 1.7q-.7 0-1.38-.12-.67-.12-1.2-.34l.22-1.58q.64.27 1.28.41.63.15 1.17.15.63 0 .96-.22.34-.22.34-.64 0-.55-.69-.87l-1.2-.58q-.88-.43-1.36-1.07-.49-.64-.49-1.41 0-1.1.72-1.69.72-.6 2.04-.6.77 0 1.45.27.7.27 1.23.78L12.28 105q-.4-.4-.81-.6-.41-.2-.8-.2-.51 0-.8.22-.28.21-.28.63 0 .27.2.52t.58.45l1.12.58q.88.45 1.35 1.06.48.61.48 1.3 0 1.12-.8 1.72-.79.6-2.26.6z" style="-inkscape-font-specification:'Cascadia Mono, @wght=700'" transform="matrix(10.51339 0 0 12.29094 59.2 -1194.23)" aria-label="AS" fill="#fff"/></svg>