<svg xmlns="http://www.w3.org/2000/svg" xmlns:xlink="http://www.w3.org/1999/xlink" viewBox="0 0 512 512"><defs><radialGradient xlink:href="#a" id="d" cx="252.74" cy="245.31" fx="252.74" fy="245.31" r="141.13" gradientTransform="matrix(1.02649 0 0 .7654 .65 66.22)" gradientUnits="userSpaceOnUse"/><radialGradient xlink:href="#b" id="c" cx="251.95" cy="249.79" fx="251.95" fy="249.79" r="199.56" gradientTransform="matrix(1.2224 .00377 -.0037 1.19565 -47.79 -41.03)" gradientUnits="userSpaceOnUse"/><linearGradient id="b"><stop offset="0" stop-color="#adc418"/><stop offset="1" stop-opacity="0"/></linearGradient><linearGradient id="a"><stop offset="0" stop-color="#fff"/><stop offset=".41" stop-color="#fff"/><stop offset="1" stop-color="#afd739"/></linearGradient></defs><ellipse cx="259.28" cy="258.58" rx="227.05" ry="223.29"/><ellipse ry="197.29" rx="200.61" cy="258.58" cx="259.28" fill="url(#c)" stroke="#323232" stroke-width="8.46"/><path d="M116.81 145.96v36.1h15.57v16.03h15.3v15.63h14.78v18.32h15.3v14h17.21v17.21h-18.35v13.83H161.2v18.07H146.3v15.42H130.9v15.81H115.2V362h96.76V346.2h16.75v-15.42H242V312.7h13.82v-13.83h12.76v12.23h11.16v18.6h13.3v15.42h14.08v16.08h97.82V325.6h-14.1V309.5h-13.28v-15.42h-14.35v-18.6h-19.68v-12.24h-19.38v-17.2h19.3v-12.4h18.44V214.8h15.34v-15.62h13.2v-16.3h13.98v-36.1h-97.1v16.3h-13.99v15.63h-13.2v18.85h-11.07v12.4h-12.67v-14.01h-13.72v-18.32h-13.2v-15.63h-16.62v-16.03z" fill="url(#d)"/><path d="M132.38 182.06v-20.09h79.9" fill="none" stroke="#000" stroke-width="2" stroke-opacity=".38"/><path d="M147.68 198.1v-20.48h81.8M162.46 213.72v-17.78h80.2" fill="none" stroke="#000" stroke-width="2" stroke-opacity=".38"/><path d="M177.76 232.04v-22.1h78.63M390.86 325.59v19.53h-83.73" fill="none" stroke="#000" stroke-width="2" stroke-opacity=".38"/><path d="M377.57 309.5v20.2h-84.53M362.8 293.88v17.22h-83.05M343.54 275.48v22.17h-74.68M390.86 182.06v-20.09h-78.49" fill="none" stroke="#000" stroke-width="2" stroke-opacity=".38"/><path d="M375.83 198.1v-20.48H295.5M361.32 213.72v-17.78h-78.79" fill="none" stroke="#000" stroke-width="2" stroke-opacity=".38"/><path d="M346.29 232.04v-22.1h-77.23M136.98 325.59v19.53h82.24" fill="none" stroke="#000" stroke-width="2" stroke-opacity=".38"/><path d="M150.03 309.5v20.2h83.03M164.54 293.88v17.22h81.57M183.45 275.48v22.17h73.36" fill="none" stroke="#000" stroke-width="2" stroke-opacity=".38"/></svg>