<svg version="1.0" viewBox="0 0 509 365" xmlns="http://www.w3.org/2000/svg"><g font-weight="400"><path d="M0 216v-3l1-3v-2l1-3 1-2 2-3 1-2 2-2 2-3 2-2 3-2 2-2 3-2 3-2 3-2 4-2 3-1 4-2 4-2 4-1 4-1 4-2 5-1 4-1 5-1h4l5-1 5-1h10l5-1h6c56 0 101 23 101 52 0 28-45 51-101 51-57 0-102-23-102-51z" fill="#00e42b"/><path d="M188 311v-6l1-2 1-3 1-3 1-2 2-3 2-2 2-3 3-2 2-2 3-2 3-2 3-2 3-2 4-2 4-2 4-2 4-1 4-2 4-1 5-2 4-1 5-1 5-1 5-1h5l5-1h5l5-1h11c59 0 107 24 107 54s-48 54-107 54-106-24-106-54z" fill="#fe0"/><path d="M293 26a96 96 0 0 0-162 69c27-1 54 9 73 29" fill="#0010eb"/><path d="M231 193c66-1 113-78 85-136-6-12-14-22-23-31-32 30-65 60-89 98 18 18 28 43 27 69z" fill="#0010eb"/><path d="M478 123c-45-45-131-27-154 33l-6 18-2 19c27-1 54 9 72 28" fill="#eb0000"/><path d="M416 290c74 1 120-95 75-152l-13-15c-32 30-65 61-90 98 18 18 29 44 28 69z" fill="#eb0000"/></g></svg>