<?xml version="1.0" encoding="UTF-8" standalone="no"?>
<svg
   version="1.0"
   width="508.733"
   height="364.9162"
   viewBox="0 0 508.733 364.9162"
   id="body"
   sodipodi:docname="snes.svg"
   inkscape:version="1.3.2 (091e20e, 2023-11-25, custom)"
   xmlns:inkscape="http://www.inkscape.org/namespaces/inkscape"
   xmlns:sodipodi="http://sodipodi.sourceforge.net/DTD/sodipodi-0.dtd"
   xmlns="http://www.w3.org/2000/svg"
   xmlns:svg="http://www.w3.org/2000/svg"
   xmlns:rdf="http://www.w3.org/1999/02/22-rdf-syntax-ns#"
   xmlns:cc="http://creativecommons.org/ns#"
   xmlns:dc="http://purl.org/dc/elements/1.1/">
  <title
     id="title822">SNES Logo</title>
  <sodipodi:namedview
     pagecolor="#ffffff"
     bordercolor="#666666"
     borderopacity="1"
     objecttolerance="10"
     gridtolerance="10"
     guidetolerance="10"
     inkscape:pageopacity="0"
     inkscape:pageshadow="2"
     inkscape:window-width="1593"
     inkscape:window-height="884"
     id="namedview14"
     showgrid="false"
     inkscape:zoom="0.84184958"
     inkscape:cx="370.61253"
     inkscape:cy="200.74845"
     inkscape:current-layer="g3512"
     inkscape:showpageshadow="2"
     inkscape:pagecheckerboard="0"
     inkscape:deskcolor="#d1d1d1"
     inkscape:window-x="0"
     inkscape:window-y="0"
     inkscape:window-maximized="0" />
  <metadata
     id="metadata13">
    <rdf:RDF>
      <cc:Work
         rdf:about="">
        <dc:format>image/svg+xml</dc:format>
        <dc:type
           rdf:resource="http://purl.org/dc/dcmitype/StillImage" />
        <dc:title>SNES Logo</dc:title>
        <dc:creator>
          <cc:Agent>
            <dc:title>Sopze</dc:title>
          </cc:Agent>
        </dc:creator>
        <dc:date>10.14.2022</dc:date>
        <cc:license
           rdf:resource="" />
      </cc:Work>
    </rdf:RDF>
  </metadata>
  <defs
     id="defs3415" />
  <desc
     id="desc3318">This was produced by version 4.2 of GNU libplot, a free library for exporting 2-D vector graphics.</desc>
  <g
     transform="matrix(5.3044703,0,0,5.3044573,-0.38391295,299.28079)"
     id="g3512">
    <path
       d="m 0.07237536,-15.756397 0.0249387,-0.498691 0.0741736,-0.492428 0.12149011,-0.485795 0.16816577,-0.473277 0.21356696,-0.473275 0.25832373,-0.460386 0.30052817,-0.447494 0.3427289,-0.441232 0.3830401,-0.428343 0.4228172,-0.415451 0.4611215,-0.409191 0.4975838,-0.390035 0.5340463,-0.383777 0.5679307,-0.364471 0.6018149,-0.351679 0.6334894,-0.338896 0.6644273,-0.319708 0.6942601,-0.306921 0.7233559,-0.287738 0.749875,-0.268554 0.7767605,-0.249386 0.80107,-0.236597 0.825376,-0.211019 0.847108,-0.198234 0.869574,-0.172655 0.888727,-0.153459 0.908616,-0.127882 0.925925,-0.108711 0.942499,-0.08314 0.957969,-0.06394 0.971965,-0.03837 0.984855,-0.01264 c 10.588149,0 19.152521,4.341649 19.152521,9.693601 0,5.371106 -8.56695,9.6936045 -19.152521,9.6936045 -10.5702473,0 -19.1378234,-4.3224985 -19.13812175,-9.6937685 z"
       style="font-style:normal;font-variant:normal;font-weight:normal;font-stretch:normal;letter-spacing:normal;word-spacing:normal;text-anchor:start;fill:#00e42b;fill-opacity:1;fill-rule:nonzero;stroke:#2cd324;stroke-width:0;stroke-linecap:butt;stroke-linejoin:miter;stroke-miterlimit:10.433;stroke-dasharray:none;stroke-dashoffset:0;stroke-opacity:1"
       id="path3324"
       inkscape:connector-curvature="0" />
    <path
       d="m 35.455272,2.1908042 0.02615,-0.5237316 0.07802,-0.517474 0.127882,-0.50973607 0.176478,-0.50126844 0.224442,-0.49242825 0.271111,-0.48358807 0.316513,-0.47327417 0.35999,-0.4622283 0.402929,-0.4541212 0.444548,-0.4349725 0.483956,-0.4283402 0.522996,-0.4154514 0.560933,-0.3963006 0.597395,-0.3837766 0.632384,-0.3708856 0.665532,-0.3516965 0.698314,-0.3388798 0.730352,-0.3197301 0.759453,-0.3005006 0.788547,-0.2877582 0.816537,-0.2621455 0.841952,-0.2493855 0.866997,-0.2238078 0.890569,-0.2046122 0.914506,-0.1790355 0.933661,-0.1598683 0.952814,-0.1406705 0.978223,-0.1087107 0.991118,-0.089516 1.004008,-0.070354 1.023158,-0.038367 1.035681,-0.01264 c 11.106689,0 20.128904,4.5590613 20.128904,10.1846667 0,5.6198629 -9.022215,10.1834173 -20.128904,10.1834173 -11.112473,0 -20.116751,-4.5609773 -20.116751,-10.1834173 z"
       style="font-style:normal;font-variant:normal;font-weight:normal;font-stretch:normal;letter-spacing:normal;word-spacing:normal;text-anchor:start;fill:#ffee00;fill-opacity:1;fill-rule:nonzero;stroke:#f8fa1a;stroke-width:0;stroke-linecap:butt;stroke-linejoin:miter;stroke-miterlimit:10.433;stroke-dasharray:none;stroke-dashoffset:0;stroke-opacity:1"
       id="path3326"
       inkscape:connector-curvature="0" />
    <path
       style="font-style:normal;font-variant:normal;font-weight:normal;font-stretch:normal;letter-spacing:normal;word-spacing:normal;text-anchor:start;fill:#0010eb;fill-opacity:1;fill-rule:nonzero;stroke:#0a12ff;stroke-width:0;stroke-linecap:butt;stroke-linejoin:miter;stroke-miterlimit:10.433;stroke-dasharray:none;stroke-dashoffset:0;stroke-opacity:1"
       d="m 55.371442,-51.587229 c -7.608391,-7.563347 -21.611823,-6.020359 -27.392855,3.020492 -2.025325,2.936887 -3.144243,6.485533 -3.175918,10.05333 5.036204,-0.221283 10.127506,1.772665 13.656115,5.391069"
       id="path3328"
       inkscape:connector-curvature="0" />
    <path
       style="font-style:normal;font-variant:normal;font-weight:normal;font-stretch:normal;letter-spacing:normal;word-spacing:normal;text-anchor:start;fill:#0010eb;fill-opacity:1;fill-rule:nonzero;stroke:#0a12ff;stroke-width:0;stroke-linecap:butt;stroke-linejoin:miter;stroke-miterlimit:10.433;stroke-dasharray:none;stroke-dashoffset:0;stroke-opacity:1"
       d="m 43.705697,-20.130023 c 12.299861,-0.02529 21.219428,-14.557145 15.895834,-25.53117 -1.015424,-2.297872 -2.597676,-4.067481 -4.230014,-5.926073 -6.141497,5.650505 -12.298792,11.453526 -16.912546,18.464964 3.39285,3.402059 5.326431,8.186857 5.244479,12.992242 z"
       id="path844"
       inkscape:connector-curvature="0"
       sodipodi:nodetypes="cccccc" />
    <path
       style="font-style:normal;font-variant:normal;font-weight:normal;font-stretch:normal;letter-spacing:normal;word-spacing:normal;text-anchor:start;fill:#eb0000;fill-opacity:1;fill-rule:nonzero;stroke:#0a12ff;stroke-width:0;stroke-linecap:butt;stroke-linejoin:miter;stroke-miterlimit:10.433;stroke-dasharray:none;stroke-dashoffset:0;stroke-opacity:1"
       d="m 90.222184,-33.152764 c -8.509825,-8.586507 -24.711943,-5.205921 -29.080073,6.071037 l -1.082458,3.374805 -0.406242,3.628199 c 5.036204,-0.22128 10.127505,1.772667 13.656115,5.39107"
       id="path3328-0"
       inkscape:connector-curvature="0" />
    <path
       style="font-style:normal;font-variant:normal;font-weight:normal;font-stretch:normal;letter-spacing:normal;word-spacing:normal;text-anchor:start;fill:#eb0000;fill-opacity:1;fill-rule:nonzero;stroke:#0a12ff;stroke-width:0;stroke-linecap:butt;stroke-linejoin:miter;stroke-miterlimit:10.433;stroke-dasharray:none;stroke-dashoffset:0;stroke-opacity:1"
       d="m 78.556436,-1.69556 c 13.827676,0.061495 22.564644,-17.904693 14.072673,-28.716885 l -2.406894,-2.740209 c -6.141493,5.650504 -12.298788,11.453524 -16.912546,18.464964 3.392854,3.402059 5.326615,8.1868196 5.244483,12.9922392 z"
       id="path844-4"
       inkscape:connector-curvature="0" />
  </g>
</svg>
