<?xml version="1.0" encoding="UTF-8"?>
<svg width="188.05" height="238.05" version="1.1" viewBox="0 0 188.05 238.05" xmlns="http://www.w3.org/2000/svg" xmlns:cc="http://creativecommons.org/ns#" xmlns:dc="http://purl.org/dc/elements/1.1/" xmlns:rdf="http://www.w3.org/1999/02/22-rdf-syntax-ns#">
 <title>Sql data base with logo</title>
 <defs>
  <style type="text/css">fill: white;#black { fill:#333; }</style>
 </defs>
 <path d="m94 0c-24.473 0-46.659 3.9823-63.531 10.93-8.4361 3.4737-15.591 7.6675-21.066 12.998-5.4755 5.3305-9.4023 12.287-9.4023 20.072s3.9269 14.742 9.4023 20.072c5.4755 5.3305 12.63 9.5243 21.066 12.998 16.872 6.9474 39.058 10.93 63.531 10.93 24.473 0 46.659-3.9823 63.531-10.93 8.4361-3.4737 15.591-7.6675 21.066-12.998 5.4755-5.3305 9.4023-12.287 9.4023-20.072s-3.9269-14.742-9.4023-20.072c-5.4755-5.3305-12.63-9.5243-21.066-12.998-16.872-6.9474-39.058-10.93-63.531-10.93zm0 18c22.471 0 42.786 3.8541 56.678 9.5742 6.9458 2.86 12.238 6.2058 15.365 9.25 3.127 3.0442 3.957 5.2964 3.957 7.1758s-0.83005 4.1316-3.957 7.1758c-3.127 3.0442-8.4194 6.39-15.365 9.25-13.892 5.7201-34.207 9.5742-56.678 9.5742-22.471 0-42.786-3.8541-56.678-9.5742-6.9458-2.86-12.238-6.2058-15.365-9.25-3.127-3.0442-3.957-5.2964-3.957-7.1758s0.83005-4.1316 3.957-7.1758c3.127-3.0442 8.4194-6.39 15.365-9.25 13.892-5.7201 34.207-9.5742 56.678-9.5742z" color="#000000" fill="#df6c20" style="-inkscape-stroke:none"/>
 <path d="m0 44v150.38l0.033203 0.38281c0.66195 7.7565 5.0112 14.368 10.789 19.568 5.7778 5.2005 13.19 9.3596 21.857 12.812 17.336 6.9058 39.838 10.906 64.312 10.906 24.475 0 46.346-3.975 62.764-10.992 8.2087-3.5086 15.119-7.7581 20.285-13.252 5.166-5.4938 8.5877-12.818 7.9258-20.574l0.0332 0.76563v-150h-18v50.977c0.10814 1.8546-0.44748 3.7106-3.0723 6.502-2.7207 2.8933-7.6142 6.1966-14.246 9.0312-13.264 5.6692-33.22 9.543-55.689 9.543-22.469 0-43.14-3.8484-57.65-9.6289-7.2554-2.8903-12.936-6.2821-16.477-9.4688-3.4904-3.1417-4.6745-5.7101-4.8652-7.625v-49.33zm18 75.678c4.3591 2.8088 9.2361 5.3003 14.68 7.4688 17.336 6.9058 39.838 10.906 64.312 10.906 24.475 0 46.346-3.975 62.764-10.992 3.7078-1.5848 7.1073-3.3477 10.244-5.2812v23.197c0.10814 1.8546-0.44748 3.7106-3.0723 6.502-2.7207 2.8933-7.6142 6.1966-14.246 9.0312-13.264 5.6692-33.22 9.543-55.689 9.543-22.469 0-43.14-3.8484-57.65-9.6289-7.2554-2.8903-12.936-6.2821-16.477-9.4688-3.4904-3.1417-4.6745-5.7101-4.8652-7.625zm0 50c4.3591 2.8088 9.2361 5.3003 14.68 7.4688 17.336 6.9058 39.838 10.906 64.312 10.906 24.475 0 46.346-3.975 62.764-10.992 3.7078-1.5848 7.1073-3.3477 10.244-5.2812v22.604l0.0332 0.38281c0.16411 1.9229-0.38478 3.8196-3.1055 6.7129s-7.6142 6.1966-14.246 9.0312c-13.264 5.6692-33.22 9.543-55.689 9.543-22.469 0-43.14-3.8484-57.65-9.6289-7.2554-2.8903-12.936-6.2821-16.477-9.4688-3.4904-3.1417-4.6745-5.7101-4.8652-7.625z" color="#000000" fill="#df6c20" style="-inkscape-stroke:none"/>
 <metadata>
  <rdf:RDF>
   <cc:Work rdf:about="">
    <dc:title>Sql data base with logo</dc:title>
   </cc:Work>
  </rdf:RDF>
 </metadata>
</svg>
