<svg xmlns="http://www.w3.org/2000/svg" viewBox="0 0 128 128"><linearGradient id="a" gradientUnits="userSpaceOnUse" x1="61.6" y1="563.3" x2="62" y2="563.3" gradientTransform="matrix(0 149.735 149.735 0 -84296.3 -9188)"><stop offset="0" stop-color="#0994DC"/><stop offset=".3" stop-color="#66CEF5"/><stop offset=".3" stop-color="#66CEF5"/><stop offset=".8" stop-color="#127BCA"/><stop offset=".8" stop-color="#127BCA"/><stop offset="1" stop-color="#127BCA"/></linearGradient><path fill="url(#a)" d="M45.3 49.6c4.4 13.5 6 37.6 19 37.6l3-.3C55.5 84 54 60.3 47 47.9l-1.7 1.7"/><linearGradient id="b" gradientUnits="userSpaceOnUse" x1="61.7" y1="563.3" x2="62.1" y2="563.3" gradientTransform="matrix(0 153.551 153.551 0 -86442.7 -9436)"><stop offset="0" stop-color="#0E76BC"/><stop offset=".4" stop-color="#36AEE8"/><stop offset=".4" stop-color="#36AEE8"/><stop offset=".8" stop-color="#00ADEF"/><stop offset=".8" stop-color="#00ADEF"/><stop offset="1" stop-color="#00ADEF"/></linearGradient><path fill="url(#b)" d="M47 48c7 12.3 8.5 36 20.3 38.9L70 86c-10.5-5-13.4-28.2-21.5-39.3L47 48"/><path fill="#14559A" d="m57.3 40.6-3 .3c-2.6.5-5.3 1.6-8 3.3l2.2 2.5c2.7-2.3 5.4-4 8-5l3.1-.8c-.7-.2-1.5-.3-2.3-.3"/><linearGradient id="c" gradientUnits="userSpaceOnUse" x1="67.5" y1="565" x2="67.9" y2="565" gradientTransform="matrix(0 -122.178 -122.178 0 69099.3 8331)"><stop offset="0" stop-color="#1C63B7"/><stop offset=".5" stop-color="#33BDF2"/><stop offset="1" stop-color="#33BDF2" stop-opacity=".4"/></linearGradient><path fill="url(#c)" d="m78.3 81.4 3.2-2.9c-4.5-13.4-6-37.9-19-37.9-1 0-2 .1-2.9.3 11.8 3 13.4 28.7 18.7 40.5"/><path fill="#3092C4" d="M59.6 40.9c-.7-.2-1.5-.3-2.3-.3h5.1c-1 0-1.9.1-2.8.3"/><path fill="#1969BC" d="m78 84.2-1.4-1.6a27 27 0 0 1-6.6 3.5 10 10 0 0 0 4.6 1c2.4 0 4.3-.2 6-1-1-.5-1.8-1.1-2.6-1.9"/><linearGradient id="d" gradientUnits="userSpaceOnUse" x1="61.9" y1="563.3" x2="62.2" y2="563.3" gradientTransform="matrix(0 159.425 159.425 0 -89733.7 -9828.1)"><stop offset="0" stop-color="#166AB8"/><stop offset=".4" stop-color="#36AEE8"/><stop offset=".4" stop-color="#36AEE8"/><stop offset=".8" stop-color="#0798DD"/><stop offset=".8" stop-color="#0798DD"/><stop offset="1" stop-color="#0798DD"/></linearGradient><path fill="url(#d)" d="M56.6 41.7c10.6 5.6 11.5 30.7 20 41l1.7-1.3C73 69.6 71.5 43.8 59.6 40.9l-3 .8"/><linearGradient id="e" gradientUnits="userSpaceOnUse" x1="62" y1="563.4" x2="62.4" y2="563.4" gradientTransform="matrix(0 169.528 169.528 0 -95443.7 -10473.4)"><stop offset="0" stop-color="#124379"/><stop offset=".4" stop-color="#1487CB"/><stop offset=".4" stop-color="#1487CB"/><stop offset=".8" stop-color="#165197"/><stop offset=".8" stop-color="#165197"/><stop offset="1" stop-color="#165197"/></linearGradient><path fill="url(#e)" d="M48.5 46.7C56.5 57.8 59.5 81 70 86c2.2-.7 4.4-2 6.6-3.5-8.5-10.2-9.4-35.3-20-40.9-2.7 1-5.4 2.7-8.1 5"/><linearGradient id="f" gradientUnits="userSpaceOnUse" x1="1006.5" y1="-1412.1" x2="1008.8" y2="-1412.1" gradientTransform="matrix(4.038 0 0 -4.038 -4028.6 -5649.3)"><stop offset="0" stop-color="#33BDF2" stop-opacity=".7"/><stop offset="1" stop-color="#1DACD8"/></linearGradient><path fill="url(#f)" d="M40 49.2c-1.2 3-2.5 6.7-4 11.7 3-4.5 6.2-8.3 9.3-11.3-.4-1.4-.9-2.6-1.4-3.6l-3.8 3.2"/><path fill="#2B74B1" d="m45 45.1-1 .9 1.3 3.6L47 48l-2-3"/><path fill="#125A9E" d="m46.4 44.2-1.4 1c.7.8 1.4 1.7 2 2.8.5-.5 1-1 1.5-1.3-.7-1-1.4-1.7-2.1-2.5"/><linearGradient id="g" gradientUnits="userSpaceOnUse" x1="67.6" y1="565.5" x2="68" y2="565.5" gradientTransform="matrix(0 -119.018 -119.018 0 67408.6 8125.8)"><stop offset="0" stop-color="#136AB4"/><stop offset=".6" stop-color="#59CAF5" stop-opacity=".5"/><stop offset="1" stop-color="#59CAF5" stop-opacity=".2"/></linearGradient><path fill="url(#g)" d="M118.8 39.6c-6 23.1-18.6 41.7-29 46.4h-.1l-.6.3h-.2l-.3.2h-.4l-.1.1-.2.1h-.4l-.2.1h-.2c.5.3 1 .3 1.5.3 10 0 20-17.8 36.7-47.5h-6.6z"/><linearGradient id="h" gradientUnits="userSpaceOnUse" x1="998.2" y1="-1414.8" x2="1006.8" y2="-1414.8" gradientTransform="matrix(4.038 0 0 -4.038 -4028.6 -5649.3)"><stop offset="0" stop-color="#05A1E6" stop-opacity=".2"/><stop offset="1" stop-color="#05A1E6"/></linearGradient><path fill="url(#h)" d="m33.8 41.6.2-.1.2-.1.4-.2h.4l.2-.1.6-.2h.5l.3-.1h.5v-.1h.4-1C25 40.6 9.7 61.3 2.7 88.3h1.4l6-11.3c5-19 14.8-32 23.7-35.5"/><path fill="#0D82CA" d="M40 49.2c1.4-1.2 2.6-2.3 4-3.2a18 18 0 0 0-1-1.8c-1 1.2-2 2.9-3 5m1-7.5c.7.6 1.4 1.5 2 2.5l.6-.7c-.9-.7-1.8-1.4-2.7-1.9v.1h.1"/><linearGradient id="i" gradientUnits="userSpaceOnUse" x1="67.5" y1="564.4" x2="67.9" y2="564.4" gradientTransform="matrix(0 -121.865 -121.865 0 68797.7 8310.5)"><stop offset="0" stop-color="#318ED5"/><stop offset="1" stop-color="#38A7E4"/></linearGradient><path fill="url(#i)" d="M10.1 77.1C20.4 57.4 25.2 45 33.8 41.6 24.9 45 15 58 10 77"/><path fill="#127BCA" d="m43.6 43.5-.6.7 1 1.8 1-.9-1.4-1.6"/><linearGradient id="j" gradientUnits="userSpaceOnUse" x1="67.6" y1="564.4" x2="68" y2="564.4" gradientTransform="matrix(0 -118.46 -118.46 0 66884.7 8093)"><stop offset="0" stop-color="#05A1E6"/><stop offset="1" stop-color="#05A1E6" stop-opacity=".5"/></linearGradient><path fill="url(#j)" d="M14.8 88.3H14c10.3-.2 15-5.4 17.4-13l4.5-14.5a205 205 0 0 0-13 21.6 11 11 0 0 1-8.1 6"/><linearGradient id="k" gradientUnits="userSpaceOnUse" x1="68.3" y1="564.5" x2="68.7" y2="564.5" gradientTransform="matrix(0 -100.1 -100.1 0 56536.6 6924.3)"><stop offset="0" stop-color="#1959A6"/><stop offset=".5" stop-color="#05A1E6"/><stop offset=".5" stop-color="#05A1E6"/><stop offset=".9" stop-color="#7EC5EA"/><stop offset="1" stop-color="#7EC5EA"/></linearGradient><path fill="url(#k)" d="M14.8 88.3c2.7-.3 6-2 8-6A207 207 0 0 1 36 61c1.6-5 3-8.8 4.2-11.7a132.9 132.9 0 0 0-25.3 39.1"/><path fill="#05A1E6" d="M10.1 77.1a388 388 0 0 1-6 11.3H8c.5-4 1.2-7.7 2.1-11.3"/><linearGradient id="l" gradientUnits="userSpaceOnUse" x1="67.9" y1="563.8" x2="68.3" y2="563.8" gradientTransform="scale(-110.211 110.211) rotate(-80 -301.7 323)"><stop offset="0" stop-color="#165096"/><stop offset="1" stop-color="#0D82CA"/></linearGradient><path fill="url(#l)" d="M37 40.7h-.4v.1H36v.1h-.4l-.6.2h-.2l-.2.1-.5.2H34l-.2.1C25.2 45 20.4 57.6 10 77.2c-.9 3.6-1.6 7.4-2.1 11.3h6.9A133 133 0 0 1 40 49.2a22 22 0 0 1 2.9-5c-.6-1.1-1.3-2-2-2.6h-.1l-.1-.1h-.2l-.1-.1h-.1l-.2-.2h-.2l-.3-.2H39l-.6-.2h-.7l-.3-.1h-.3"/><linearGradient id="m" gradientUnits="userSpaceOnUse" x1="70.8" y1="566.9" x2="71.2" y2="566.9" gradientTransform="matrix(0 -56.721 -56.721 0 32252.1 4080.3)"><stop offset="0" stop-color="#05A1E6"/><stop offset=".9" stop-color="#0495D6"/><stop offset="1" stop-color="#0495D6"/></linearGradient><path fill="url(#m)" d="m95.3 52.4-5 15.8c5.5-7.4 10.8-16.8 15.9-27.6-6 1.9-9.1 6.1-10.9 11.8"/><linearGradient id="n" gradientUnits="userSpaceOnUse" x1="61.6" y1="562.2" x2="62" y2="562.2" gradientTransform="scale(-132.813 132.813) rotate(80 365.2 244)"><stop offset="0" stop-color="#38A7E4" stop-opacity=".3"/><stop offset="1" stop-color="#0E88D3"/><stop offset="1" stop-color="#0E88D3"/><stop offset="1" stop-color="#0E88D3"/></linearGradient><path fill="url(#n)" d="m90.5 85.6-.8.4c10.5-4.7 23-23.3 29-46.4h-1.2c-13.8 24.6-18.2 41.1-27 46"/><path fill="#079AE1" d="M83.7 83.6c2.3-2.8 4.1-7.6 6.7-15.4-3 4-6 7.5-8.9 10.3a27 27 0 0 0 2.2 5"/><path fill="#1969BC" d="M83.7 83.6a9.4 9.4 0 0 1-3.2 2.5c1 .5 2 .9 3.2 1h2.9l.5-.2a7.2 7.2 0 0 1-3.4-3.3"/><path fill="#1E5CB3" d="M64.3 87.2a15.7 15.7 0 0 0 5.7-1 10.2 10.2 0 0 0 4.6 1H64.3zm10.3 0c2.4 0 4.3-.3 6-1.1 1 .5 2 .9 3.1 1H85 74.6z"/><path fill="#1D60B5" d="M84.9 87.2H86V87h.3l.3-.1.5-.1 1.5.3H85z"/><path fill="#175FAB" d="M81.5 78.5a47.2 47.2 0 0 1-5 4.1l1.5 1.6a11 11 0 0 0 2.5 1.9l.7-.3c.9-.6 1.7-1.3 2.5-2.2a27 27 0 0 1-2.2-5"/><linearGradient id="o" gradientUnits="userSpaceOnUse" x1="61.1" y1="562.7" x2="61.5" y2="562.7" gradientTransform="matrix(0 123.742 123.742 0 -69523.6 -7527.2)"><stop offset="0" stop-color="#168CD4"/><stop offset=".5" stop-color="#1C87CC"/><stop offset="1" stop-color="#154B8D"/></linearGradient><path fill="url(#o)" d="M113.7 39.6h-7.1l-.5 1c-5 10.8-10.3 20.2-15.7 27.6a50.7 50.7 0 0 1-6.7 15.3c1 1.7 2 2.9 3.4 3.4h.2l.2-.1h.3v-.1h.3v-.1h.4l.1-.1.3-.1.2-.1h.1l.6-.3.8-.4c8.8-4.9 13.2-21.4 27-46h-3.8z"/><path fill="#7DCBEC" d="M37.4 40.7h.6l.3.1.6.1.3.1.3.1.3.1.3.1.3.1.2.2h.4c1 .5 1.8 1.2 2.7 2l1-1a10.6 10.6 0 0 0-7.2-1.9"/><path fill="#5EC5ED" d="m43.6 43.5 1.4 1.6 1.4-.9-1.9-1.5a9 9 0 0 0-1 .8"/><g transform="matrix(5.048 0 0 -5.048 -9064.3 2270.6)"><linearGradient id="p" gradientUnits="userSpaceOnUse" x1="1807" y1="336.2" x2="1807.3" y2="336.2" gradientTransform="scale(30.857 -30.857) rotate(22.5 1812.7 -4229)"><stop offset="0" stop-color="#97D6EE"/><stop offset=".7" stop-color="#55C1EA"/><stop offset="1" stop-color="#55C1EA"/></linearGradient><path fill="url(#p)" d="M1803 441.7h.1c.5 0 1-.1 1.3-.4.4.3.8.4 1.5.4h-3.1.2"/></g><g transform="matrix(5.048 0 0 -5.048 -9064.3 2270.6)"><linearGradient id="q" gradientUnits="userSpaceOnUse" x1="1808.8" y1="335.2" x2="1809.2" y2="335.2" gradientTransform="scale(24.717 -24.717) rotate(-24.4 124.1 4175.4)"><stop offset="0" stop-color="#7ACCEC"/><stop offset="1" stop-color="#3FB7ED"/></linearGradient><path fill="url(#q)" d="M1805.9 441.7c-.7 0-1.1 0-1.5-.4l.3-.3c.6.4 1.1.6 1.6.7h.6-1z"/></g><linearGradient id="r" gradientUnits="userSpaceOnUse" x1="61" y1="562.7" x2="61.4" y2="562.7" gradientTransform="matrix(0 121.032 121.032 0 -68011.7 -7346.7)"><stop offset="0" stop-color="#1DA7E7"/><stop offset="1" stop-color="#37ABE7" stop-opacity="0"/></linearGradient><path fill="url(#r)" d="m90.4 68.2 5-15.8c1.7-5.7 4.8-10 10.7-11.8l.5-1c-9.6.6-14.1 5.5-16.4 12.8-4 12.7-6.4 20.9-8.7 26.1 3-2.8 6-6.3 8.9-10.3"/></svg>