<svg version="1.0" viewBox="0 0 738 687" xmlns:xlink="http://www.w3.org/1999/xlink" xmlns="http://www.w3.org/2000/svg"><defs><linearGradient id="b"><stop offset="0" stop-color="#c3cdd2"/><stop offset="1" stop-color="#b3bdc2"/></linearGradient><linearGradient id="a"><stop offset="0" stop-color="#d0dae0"/><stop offset="1" stop-color="#c7cfd5"/></linearGradient><linearGradient xlink:href="#a" id="c" x1="110.4" y1="61.6" x2="382.7" y2="432.8" gradientUnits="userSpaceOnUse" gradientTransform="translate(-7 -7)"/><linearGradient xlink:href="#b" id="d" x1="449.6" y1="411.3" x2="688.4" y2="628.1" gradientUnits="userSpaceOnUse" gradientTransform="translate(-7 -7)"/></defs><path d="m233 3-35 4-11 61-23 9-50-37-28 21 21 58-16 20-61-7-14 32 47 40-3 25-57 24 4 35 60 10 9 24-37 50 21 28 57-21 20 16-7 62 32 14 39-47 25 4 25 58 35-4 10-61 23-9 52 38 29-20-22-58 18-20 64 5 14-34-48-43 3-26 57-23-5-35-62-11-10-24 38-48-21-28-60 21-20-16 8-61-32-14-40 48-25-4zm8 142a99 99 0 0 1 99 99 99 99 0 0 1-99 99 99 99 0 0 1-99-99 99 99 0 0 1 99-99z" fill="url(#c)" stroke="#959b9f" stroke-width="5.5" stroke-linecap="round" stroke-linejoin="round"/><path d="m208 16-2 1-4 21-6 32c-1 4-4 7-8 8l-22 9c-4 0-8-1-11-3l-40-31h-2l-11 9-3 2-1 2 6 17 12 33c1 4 0 8-3 11l-15 19c-3 2-7 3-11 2l-49-5-2 1-7 15v2l3 3 38 32c3 3 4 8 2 11l-3 24c-1 3-4 6-8 8l-46 19-2 2 2 18 2 1 13 3 39 7c4 1 7 4 8 8l8 22c1 4 0 8-3 11l-30 41v2l10 14h2l11-3 39-15c4-1 9 1 11 3l19 15c2 3 3 8 2 11l-6 51 2 2 15 7h2l7-8 27-33c3-3 8-4 12-3l23 4c4 1 7 4 8 8l20 47 2 2 17-2 2-2 1-7 8-45c1-4 4-7 8-8l23-8c3-1 7 0 10 3l43 31h2l15-10v-2l-2-7-17-43c-1-4 1-9 4-11l17-20c3-2 7-3 11-2l52 4 1-1 8-18v-2l-43-38c-2-3-3-7-2-11l2-20 1-6c2-3 4-5 7-6l47-19 2-2-1-6-2-11-1-2-44-8-11-2c-4-1-7-5-8-8l-9-22c-1-4 0-8 3-11l31-40v-2l-5-6-5-8h-3l-26 9-25 9c-4 1-8-1-11-3l-19-15c-2-3-3-7-2-11l6-49-1-2-9-4-7-3h-2l-15 18-20 24c-3 2-8 3-12 2l-23-3c-4-1-7-5-8-8l-19-46-2-2-12 2-5 1zm33 119a110 110 0 0 1 78 34l2 1c8 9 15 20 20 31l1 3a109 109 0 0 1-166 127l-2-1a109 109 0 0 1-42-79v-12c1-17 6-34 14-49l1-1a108 108 0 0 1 43-41l2-1a108 108 0 0 1 49-12z" fill="none" stroke="#fdfdfe" stroke-width="5.5" stroke-linecap="round" stroke-linejoin="round"/><path d="m574 336-34 2-17 62-18 9-57-26-25 27 32 53-8 19-60 22 1 34 62 15 8 18-27 57 26 23 54-32 19 7 21 58 35-1 16-61 18-8 57 26 23-26-31-54 7-18 59-22-1-35-60-15-9-18 27-58-25-23-54 32-19-7zm-12 120a56 56 0 0 1 56 56 56 56 0 0 1-56 55 56 56 0 0 1-56-55 56 56 0 0 1 56-56z" fill="url(#d)" stroke="#959b9f" stroke-width="5.5" stroke-linecap="round" stroke-linejoin="round"/><path d="m564 346-15 1c-2 0-3 2-3 3l-14 53c-2 4-5 6-8 7l-17 8c-4 1-7 0-10-2l-46-20c-1-1-2 0-3 1l-12 12 1 4 26 45c2 4 1 8-1 12l-7 17c-1 3-5 4-8 5l-48 17c-2 1-2 3-2 4l1 15 2 2 53 13c3 2 6 5 7 9l7 16c1 4 0 7-2 10l-21 45c-1 1 0 3 1 4l11 10c1 1 3 0 4-1l47-26c3-2 7-1 11 0l17 7c3 2 5 5 5 8l17 47a880 880 0 0 0 19 1l2-3 14-51c1-4 5-6 8-8l17-7c3-1 6 0 9 1l10 5 36 16a933 933 0 0 0 14-13v-3l-26-46c-2-3-1-8 1-11l4-13 2-3c1-2 3-4 6-5l5-3 45-16 1-3v-16l-3-2-51-13c-3-2-6-5-7-9l-8-17 2-10 22-45c0-2 0-3-2-4l-11-10h-3l-46 27c-3 2-7 1-10 0l-13-5-4-1c-4-2-6-6-7-9l-16-48-3-2zm-2 100a66 66 0 0 1 64 80l-1 2a65 65 0 0 1-96 40 65 65 0 0 1-33-54v-6c1-11 4-21 9-30l1-1a65 65 0 0 1 35-28h2l10-3h9z" fill="none" stroke="#fff" stroke-width="5.5" stroke-linecap="round" stroke-linejoin="round"/></svg>