<svg xmlns="http://www.w3.org/2000/svg" viewBox="0 0 727.5 1006.1"><path d="M458 0c0 10 3 21 4 31 1 20-2 42-11 61-28 64-90 108-142 152-23 18-45 38-63 62-7 9-15 20-19 31-5 14-9 28-9 43-3 57 37 106 79 139 11 9 22 16 34 24 5 4 12 9 19 10-3-6-8-9-12-14l-26-31c-31-40-55-98-34-148 16-36 49-64 78-90 43-39 91-79 114-134a185 185 0 0 0 11-87c-3-18-11-33-20-49h-3m-58 581c8 4 19-8 25-13 20-17 39-38 44-65 5-26-9-48-21-69-18-31-36-62-25-98 12-41 47-72 81-97 10-7 21-15 33-21 5-3 13-5 15-11-9 1-17 5-25 9l-28 12-32 15c-46 26-95 67-104 122-1 9-2 18-1 27 3 24 15 46 28 66 14 22 30 46 30 73 0 13-6 25-12 36l-8 14z" fill="#f79221"/><path d="M611 552c11 0 22-1 33 4 6 2 12 5 17 9 25 21 25 54 12 82-14 30-41 51-68 69-11 7-22 15-33 20v2c5 3 11 0 17-2 13-4 25-10 38-15 32-13 66-35 86-64 16-23 20-55 5-80-17-27-48-34-77-34-9 0-27 0-30 9m-26 63c-3-5-9-7-14-10-5-2-9-6-14-7-7-2-16 2-22 4l-43 7a962 962 0 0 1-307-6c-8-2-20-4-25-12-5-9 12-15 18-18 22-10 49-16 74-19-3-4-6-2-10-2-9 0-18 2-26 3-33 3-67 9-97 21-9 4-28 12-25 24 3 11 18 16 28 20 29 12 62 18 93 21 17 2 35 5 53 6 35 2 71 3 106 1s71-3 107-8c23-4 47-8 71-15 11-3 21-8 33-10m-44 106v-2c-8-3-15-8-22-12-5-3-10-7-15-8-8-1-17 4-24 5a574 574 0 0 1-137 13c-21 0-41 0-61-2-21-2-44-5-64-13-7-3-18-7-19-15-1-7 8-11 11-16-20 4-42 7-60 16-7 5-17 12-12 22 4 9 16 14 25 18a489 489 0 0 0 141 24 688 688 0 0 0 237-30m-44 112v-2c-10-4-20-10-29-16-5-3-10-7-15-8-4-1-9 1-13 2l-34 6c-38 3-75 4-113 1-15-1-32-4-45-10-5-2-12-6-13-11 0-3 3-6 4-9-15 0-36 6-48 16-7 5-13 14-7 22 6 9 17 14 27 17a502 502 0 0 0 190 17c33-4 66-9 96-25m151 22c-6 12-16 20-27 26-24 14-51 19-77 26-13 3-27 4-40 6-37 6-74 8-111 10-52 2-104 3-155-4-14-1-28-2-41-5-32-7-65-9-95-23-10-4-24-9-29-20-4-10 5-19 12-25 17-15 38-19 59-27-4-4-8-2-12-2l-27 5c-30 6-62 16-87 33-13 8-24 23-14 38 8 13 27 20 41 24 33 11 66 19 101 23 40 5 80 10 121 13h25a1111 1111 0 0 0 269-21c23-6 46-12 67-23 7-4 14-7 21-13 10-10 17-25 6-37l-7-4m52 48c-7 9-18 16-28 22-25 15-53 25-80 33-76 23-156 29-235 31-32 1-64 2-95 0-32-2-64-4-95-8l-24-4c-7-1-11-3-17 0v2a1011 1011 0 0 0 440 6c35-8 72-19 103-38 17-10 31-23 34-44z" fill="#05799a"/></svg>