<svg xmlns="http://www.w3.org/2000/svg" viewBox="0 0 400 400"><g fill-rule="evenodd"><path d="M0 200v200h400V0H0v200m310-18c16 1 28 6 38 16l9 13-29 19-2-3c-13-21-44-15-40 7 2 9 6 12 29 22 25 10 36 18 44 29 11 16 12 41 2 58-20 32-81 34-111 4-6-6-13-16-12-17l30-17 2 3c10 13 20 19 35 19 17 0 27-8 25-21-1-9-6-14-31-24-34-15-46-27-49-49-6-36 20-62 60-59m-93 71-1 73c-5 26-21 40-49 42-27 2-49-9-60-31l-2-3 15-9 15-9 3 3c6 12 12 16 22 16 11 0 17-4 19-14l1-70v-67h37v69" fill="#f3db4c"/><path d="M298 182c-33 2-53 27-48 59 3 22 15 34 49 49 25 10 30 15 31 24 2 13-8 21-25 21-15 0-25-6-35-19l-2-3-30 17c-1 1 6 11 12 17 30 30 91 28 111-4 10-17 9-42-2-58-8-11-19-19-44-29-23-10-27-13-29-22-2-11 6-20 18-20 10 0 17 5 22 13l2 3 29-19-9-13c-12-12-29-18-50-16m-118 69-1 70c-2 10-8 14-19 14-10 0-16-4-22-16l-3-3-15 9-15 9 2 3c11 22 33 33 60 31 28-2 44-16 49-42l1-73v-69h-37v67" fill="#343434"/></g></svg>