<svg version="1.0" xmlns="http://www.w3.org/2000/svg" xml:space="preserve" viewBox="0 0 947 947"><path fill="navy" d="M836 474a362 362 0 1 0-725 0 362 362 0 0 0 725 0"/><path fill="#FFF" d="M730 324a106 106 0 1 0-213 0 106 106 0 0 0 213 0"/><path fill="navy" d="M942 112a106 106 0 1 0-213 0 106 106 0 0 0 213 0"/><g fill="#FFF"><path d="M258 628h117v26H228V418h30v211zM516 655v-24c-16 22-32 31-57 31-34 0-55-18-55-47V484h27v121c0 20 14 33 35 33 29 0 47-22 47-57v-97h27v171h-24zM738 659l-18 3c-18 0-26-8-28-25a81 81 0 0 1-58 25c-35 0-56-19-56-50 0-23 10-38 30-46 10-4 16-6 54-11 22-2 29-7 29-18v-8c0-16-14-25-38-25-26 0-38 9-40 30h-28c1-17 4-26 12-35 11-13 32-20 57-20 42 0 64 16 64 46v101c0 8 5 13 15 13h5v20zm-47-89c-9 4-15 6-44 10s-41 13-41 31c0 17 12 27 34 27 16 0 29-5 40-15 8-8 11-13 11-22v-31z"/></g><path fill="none" stroke="gray" stroke-width="10.9" stroke-miterlimit="10" stroke-dasharray="41" d="M891 261A468 468 0 1 1 710 69"/></svg>