<svg xmlns="http://www.w3.org/2000/svg" xml:space="preserve" width="64" height="64"><g transform="translate(-1.37 -17.3) scale(.46387)"><path d="M88.82 51.58v25.97L118 152.49s8.9 18.3-16.57 22.76H43.31s-23.75-2.47-18.06-21.28l30.67-76.42V51.58Z" style="fill:#009688"/><path d="M89.44 48.56h-35c-2.84 0-5.15-2.52-5.15-5.63 0-3.12 2.3-5.64 5.15-5.64h35c2.85 0 5.15 2.52 5.15 5.64 0 3.11-2.3 5.63-5.15 5.63z" style="fill:#004d40"/><path d="M80.2 93.98c3.76 0 6.82 3.67 6.82 8.21 0 4.53-3.06 8.2-6.82 8.2-3.76 0-6.82-3.67-6.82-8.2 0-4.54 3.06-8.21 6.82-8.21z" style="fill:#fff"/><ellipse cx="59.27" cy="108.36" rx="5.75" ry="6.93" style="fill:#fff"/><path d="M91.42 75.83V63.48s15.66-3.46 23.48 14.76c0 0-12.2 8.89-23.48-2.41zm-38.36 0V63.48S37.4 60.02 29.57 78.24c0 0 12.19 8.89 23.49-2.41z" style="fill:#004d40"/><path d="M100.83 126.94a98.1 98.1 0 0 0-57.34-.46l-10.55 25.4c-4.75 15.17 15.08 17.16 15.08 17.16h48.55c21.28-3.6 13.84-18.35 13.84-18.35z" style="fill:#fff"/><path d="M64.13 136.37c0 2.74-3.68 4.97-8.21 4.97-4.54 0-8.2-2.23-8.2-4.97 0-2.75 3.66-4.97 8.2-4.97 4.53 0 8.21 2.22 8.21 4.97zm29.21 0c0 2.74-3.68 4.97-8.2 4.97-4.55 0-8.21-2.23-8.21-4.97 0-2.75 3.66-4.97 8.21-4.97 4.53 0 8.2 2.22 8.2 4.97z" style="fill:#004d40"/></g></svg>