<svg xmlns="http://www.w3.org/2000/svg" xmlns:xlink="http://www.w3.org/1999/xlink" viewBox="0 0 206 182"><defs><linearGradient id="b" y1="0" x1="0" x2="100%" y2="0"><stop stop-color="#d7d7d7" offset="0"/><stop stop-color="#e7e7e7" offset=".5"/><stop stop-color="#d7d7d7" offset="1"/></linearGradient><linearGradient id="a" x1="0" y1="0" x2="0" y2="100%"><stop stop-color="#d8d8d8" offset="0"/><stop stop-color="#a3a3a3" offset="1"/></linearGradient><symbol id="c" viewBox="0 0 60 60"><rect rx="3" ry="3" width="54" height="58" fill="url(#a)"/><rect x="2" y="1" rx="3" ry="3" width="50" height="50" stroke-width=".25" stroke="#fff" fill="url(#b)"/></symbol></defs><use xlink:href="#c" width="60" height="60"/><use xlink:href="#c" x="60" width="60" height="60"/><use xlink:href="#c" x="120" width="60" height="60"/><rect fill="#3c3cff" opacity=".25" x="120" rx="3" ry="3" width="54" height="58"/><use xlink:href="#c" x="22" y="62" width="60" height="60"/><use xlink:href="#c" x="82" y="62" width="60" height="60"/><rect fill="#3c3c3c" opacity=".35" x="82" y="62" rx="3" ry="3" width="54" height="58"/><use xlink:href="#c" x="142" y="62" width="60" height="60"/><use xlink:href="#c" x="32" y="124" width="60" height="60"/><rect fill="#3c3c3c" opacity=".35" x="32" y="124" rx="3" ry="3" width="54" height="58"/><use xlink:href="#c" x="92" y="124" width="60" height="60"/><rect fill="#3c3c3c" opacity=".35" x="92" y="124" rx="3" ry="3" width="54" height="58"/><use xlink:href="#c" x="152" y="124" width="60" height="60"/><rect fill="#3c3c3c" opacity=".35" x="152" y="124" rx="3" ry="3" width="54" height="58"/><text x="130" y="43" style="font:900 18px sans-serif" fill="#222">3</text></svg>