<?xml version="1.0" encoding="UTF-8" standalone="no"?>
<!-- Created with Inkscape (http://www.inkscape.org/) -->

<svg
   width="383.79913mm"
   height="411.44315mm"
   viewBox="0 0 383.79913 411.44315"
   version="1.1"
   id="svg1412"
   inkscape:version="1.3.2 (091e20e, 2023-11-25, custom)"
   sodipodi:docname="marmoset.svg"
   xmlns:inkscape="http://www.inkscape.org/namespaces/inkscape"
   xmlns:sodipodi="http://sodipodi.sourceforge.net/DTD/sodipodi-0.dtd"
   xmlns="http://www.w3.org/2000/svg"
   xmlns:svg="http://www.w3.org/2000/svg"
   xmlns:rdf="http://www.w3.org/1999/02/22-rdf-syntax-ns#"
   xmlns:cc="http://creativecommons.org/ns#"
   xmlns:dc="http://purl.org/dc/elements/1.1/">
  <defs
     id="defs1406" />
  <sodipodi:namedview
     id="base"
     pagecolor="#ffffff"
     bordercolor="#666666"
     borderopacity="1.0"
     inkscape:pageopacity="0.0"
     inkscape:pageshadow="2"
     inkscape:zoom="0.2475329"
     inkscape:cx="1428.093"
     inkscape:cy="805.95347"
     inkscape:document-units="mm"
     inkscape:current-layer="layer1"
     showgrid="false"
     inkscape:pagecheckerboard="true"
     inkscape:showpageshadow="2"
     inkscape:deskcolor="#d1d1d1"
     inkscape:window-width="1920"
     inkscape:window-height="1027"
     inkscape:window-x="1912"
     inkscape:window-y="-8"
     inkscape:window-maximized="1" />
  <metadata
     id="metadata1409">
    <rdf:RDF>
      <cc:Work
         rdf:about="">
        <dc:format>image/svg+xml</dc:format>
        <dc:type
           rdf:resource="http://purl.org/dc/dcmitype/StillImage" />
        <dc:title />
      </cc:Work>
    </rdf:RDF>
  </metadata>
  <g
     inkscape:label="Layer 1"
     inkscape:groupmode="layer"
     id="layer1"
     transform="translate(-64.144687,155.86991)">
    <path
       style="fill:#222222;fill-opacity:1;stroke:none;stroke-width:2;stroke-linecap:butt;stroke-linejoin:miter;stroke-miterlimit:4;stroke-dasharray:none;stroke-opacity:1"
       d="m 399.03341,148.39814 c 0,0 18.4589,5.58384 30.93861,-2.15181 12.47971,-7.73565 14.22992,-26.44602 14.22992,-26.44602 0,0 0.87081,-11.64363 -2.11546,-15.86927 -2.98626,-4.225638 -13.38616,-6.848626 -13.38616,-6.848626 0,0 19.28857,-56.585686 19.24341,-86.060797 -0.062,-40.434162 -9.87514,-77.956245 -51.53716,-113.856817 -29.33239,-25.276 -84.94753,-52.05932 -144.19586,-53.01108 -56.61908,-0.90951 -115.47013,24.51461 -150.10263,63.442459 C 81.24733,-68.95578 67.385263,-19.161326 65.748304,1.3999143 60.128994,71.981978 80.180856,98.15149 80.180856,98.15149 c 0,0 -9.331989,1.202885 -12.617187,5.18611 -3.285198,3.98322 -3.418982,16.99726 -3.418982,16.99726 0,0 0.608301,14.02963 11.49259,23.78699 10.884288,9.75736 36.883193,4.81085 36.883193,4.81085 0,0 7.87882,11.68356 13.89802,21.11429 6.0192,9.43073 22.57167,19.15006 31.5378,28.86511 8.96613,9.71505 22.45064,28.86511 22.45064,28.86511 l 16.57071,-15.50164 24.85607,43.29767 c 0,0 1.0495,-5.30117 2.28129,-7.32699 1.23179,-2.02582 10.53184,-8.26885 16.01717,-13.17449 5.48533,-4.90564 15.3775,-14.7781 15.3775,-14.7781 l 19.51067,22.98518 c 0,0 7.48468,-18.7353 14.99952,-24.33496 7.51484,-5.59967 21.61641,-12.0137 21.61641,-12.0137 l 8.81989,17.63979 c 0,0 14.03216,-21.10613 17.40494,-23.75456 2.95581,-2.32099 20.0128,-11.52502 20.0128,-11.52502 l 4.81085,4.00905 c 0,0 4.12164,-2.98835 5.87993,-4.81085 11.654,-12.07958 30.46873,-40.09045 30.46873,-40.09045 z"
       id="path1968"
       inkscape:connector-curvature="0"
       sodipodi:nodetypes="czczcsssssczczczzccczzcczccsccsc" />
    <path
       style="fill:#ff0044;fill-opacity:1;stroke:none;stroke-width:1.83305;stroke-linecap:butt;stroke-linejoin:miter;stroke-miterlimit:4;stroke-dasharray:none;stroke-opacity:1"
       d="m 396.04451,131.55501 9.72835,1.32189 c 0,0 -1.31073,-9.34986 1.94408,-12.21687 3.23857,-2.85271 9.25638,-5.35199 9.25638,-5.35199 0,0 -8.51183,-2.6926 -6.57385,-9.34258 5.63599,-19.339288 21.00562,-54.636881 23.6304,-92.589967 -0.0569,-37.023371 -9.05951,-71.380317 -47.28058,-104.252525 -26.90975,-23.143858 -77.93149,-47.667898 -132.28635,-48.539368 -51.94277,-0.83279 -105.93317,22.4467 -137.7053,58.090818 C 97.619836,-59.855481 84.902677,-14.261391 83.400918,4.5654229 78.245721,69.193596 85.47193,76.677064 91.83148,89.147295 c 6.35955,12.470235 12.54917,14.462445 9.53531,18.109655 -3.013871,3.64722 -15.272205,7.15554 -15.272205,7.15554 -0.04003,2.3815 10.528018,2.23059 12.480354,7.30497 1.116412,2.9017 -8.840803,8.96771 -3.696823,8.98795 14.139564,0.0557 24.805074,1.45222 31.164714,9.74946 0,0 6.49759,14.22637 8.47462,19.06598 0,0 20.97465,20.4741 26.26082,22.42192 4.53431,1.67077 21.38693,29.14828 21.38693,29.14828 l 12.17883,-13.43821 c 15.46462,3.60863 26.75013,38.6627 26.75013,38.6627 0,0 31.66643,-29.36347 36.96213,-28.86458 5.2957,0.4989 13.74226,15.75559 13.74226,15.75559 0,0 3.15628,-13.19856 20.29021,-20.71719 17.13394,-7.51862 23.22929,-8.57922 30.27375,-4.72746 23.87897,-15.98371 31.60502,-26.87634 35.15072,-26.17634 3.54571,0.70001 1.47594,7.26748 3.29288,5.82336 12.01413,-9.549 35.2384,-45.85391 35.2384,-45.85391 z"
       id="path1968-9"
       inkscape:connector-curvature="0"
       sodipodi:nodetypes="ccscscsssszzssscssccczczczsc" />
    <path
       style="fill:#222222;fill-opacity:1;stroke:none;stroke-width:2;stroke-linecap:butt;stroke-linejoin:miter;stroke-miterlimit:4;stroke-dasharray:none;stroke-opacity:1"
       d="m 163.53887,24.435227 c 14.1742,-12.580742 51.38108,-6.842287 62.52956,-2.404983 11.14848,4.437304 19.48663,31.394358 29.39425,31.264775 9.90762,-0.129582 13.6121,-24.016889 29.66144,-30.730333 13.97478,-5.845652 46.27651,-10.571743 60.92625,1.06888 14.64974,11.640623 14.04585,33.826531 10.42161,48.099675 -3.62424,14.273144 -15.13604,22.931932 -24.85149,27.790907 -9.71545,4.858972 -26.44958,-2.506026 -36.34198,9.085492 -9.8924,11.59152 -3.02231,31.32667 -6.41328,48.90133 -4.23848,8.50672 -7.75879,11.28023 -18.4382,11.49048 -10.67942,0.21025 -15.23157,-10.15439 -15.23157,-10.15439 0,0 -4.42112,10.80466 -15.23157,10.15439 -10.81044,-0.65027 -12.77464,-3.11463 -17.1021,-12.02491 -3.68526,-19.22785 3.45762,-39.86163 -8.01661,-49.97021 -11.47424,-10.108578 -27.09287,-3.14653 -36.07475,-7.214953 -8.98188,-4.068419 -19.08961,-11.279749 -23.24817,-24.851492 -4.15856,-13.571743 -6.15759,-37.923916 8.01661,-50.504658 z"
       id="path1990"
       inkscape:connector-curvature="0"
       sodipodi:nodetypes="zzzszzzzczczczzzz" />
    <path
       id="path1972"
       style="fill:#ff0044;fill-opacity:1;stroke:none;stroke-width:0.264583px;stroke-linecap:butt;stroke-linejoin:miter;stroke-opacity:1"
       d="m 280.5957,75.357742 c 0,0 2.7838,-3.301716 5.49214,-6.513921 2.70833,-3.212205 4.2681,-9.550996 12.83635,-13.137215 8.56825,-3.586219 36.84589,3.401142 36.84589,3.401142 0,0 -8.806,22.443847 -25.69766,25.697651 -16.89166,3.253803 -29.47672,-9.447657 -29.47672,-9.447657 z M 176.09822,60.242757 c 0,0 28.54946,-7.971723 36.79259,-4.451042 8.24313,3.520681 9.30635,9.079926 11.84152,12.200424 2.53517,3.120498 7.74939,8.01661 6.41329,8.01661 -1.3361,0 -10.94581,12.723093 -29.98565,8.564488 -19.03984,-4.158606 -25.06175,-24.33048 -25.06175,-24.33048 z"
       inkscape:connector-curvature="0"
       sodipodi:nodetypes="czzczcczzszc" />
  </g>
</svg>
