<?xml version="1.0" encoding="UTF-8" standalone="no"?>
<svg
   role="img"
   focusable="false"
   aria-hidden="true"
   viewBox="0 0 425.59509 460.99185"
   version="1.1"
   id="svg4"
   sodipodi:docname="paintdotnet.svg"
   width="425.59509"
   height="460.99185"
   inkscape:version="1.3.2 (091e20e, 2023-11-25, custom)"
   xmlns:inkscape="http://www.inkscape.org/namespaces/inkscape"
   xmlns:sodipodi="http://sodipodi.sourceforge.net/DTD/sodipodi-0.dtd"
   xmlns:xlink="http://www.w3.org/1999/xlink"
   xmlns="http://www.w3.org/2000/svg"
   xmlns:svg="http://www.w3.org/2000/svg"
   xmlns:rdf="http://www.w3.org/1999/02/22-rdf-syntax-ns#"
   xmlns:cc="http://creativecommons.org/ns#"
   xmlns:dc="http://purl.org/dc/elements/1.1/">
  <metadata
     id="metadata10">
    <rdf:RDF>
      <cc:Work
         rdf:about="">
        <dc:format>image/svg+xml</dc:format>
        <dc:type
           rdf:resource="http://purl.org/dc/dcmitype/StillImage" />
        <dc:title />
      </cc:Work>
    </rdf:RDF>
  </metadata>
  <defs
     id="defs8">
    <linearGradient
       inkscape:collect="always"
       id="linearGradient1330">
      <stop
         style="stop-color:#1981bc;stop-opacity:1"
         offset="0"
         id="stop1326" />
      <stop
         style="stop-color:#2594d3;stop-opacity:1"
         offset="1"
         id="stop1328" />
    </linearGradient>
    <linearGradient
       inkscape:collect="always"
       id="linearGradient1322">
      <stop
         style="stop-color:#e01141;stop-opacity:1"
         offset="0"
         id="stop1318" />
      <stop
         style="stop-color:#ea1342;stop-opacity:1"
         offset="1"
         id="stop1320" />
    </linearGradient>
    <linearGradient
       id="linearGradient1316"
       inkscape:collect="always">
      <stop
         id="stop1312"
         offset="0"
         style="stop-color:#363434;stop-opacity:1" />
      <stop
         id="stop1314"
         offset="1"
         style="stop-color:#484646;stop-opacity:1" />
    </linearGradient>
    <linearGradient
       inkscape:collect="always"
       id="linearGradient1306">
      <stop
         style="stop-color:#ececec;stop-opacity:1;"
         offset="0"
         id="stop1302" />
      <stop
         style="stop-color:#fafafa;stop-opacity:1"
         offset="1"
         id="stop1304" />
    </linearGradient>
    <linearGradient
       inkscape:collect="always"
       id="linearGradient1164">
      <stop
         style="stop-color:#e7e7e7;stop-opacity:1;"
         offset="0"
         id="stop1160" />
      <stop
         style="stop-color:#f7f7f7;stop-opacity:1"
         offset="1"
         id="stop1162" />
    </linearGradient>
    <linearGradient
       inkscape:collect="always"
       id="linearGradient1080">
      <stop
         style="stop-color:#104766;stop-opacity:1;"
         offset="0"
         id="stop1076" />
      <stop
         style="stop-color:#0b3349;stop-opacity:1"
         offset="1"
         id="stop1078" />
    </linearGradient>
    <linearGradient
       inkscape:collect="always"
       id="linearGradient1070">
      <stop
         style="stop-color:#0e71b9;stop-opacity:1;"
         offset="0"
         id="stop1066" />
      <stop
         style="stop-color:#0a5a9a;stop-opacity:1"
         offset="1"
         id="stop1068" />
    </linearGradient>
    <linearGradient
       inkscape:collect="always"
       id="linearGradient1062">
      <stop
         style="stop-color:#0e3a7d;stop-opacity:1;"
         offset="0"
         id="stop1058" />
      <stop
         style="stop-color:#06224d;stop-opacity:1"
         offset="1"
         id="stop1060" />
    </linearGradient>
    <linearGradient
       inkscape:collect="always"
       id="linearGradient856">
      <stop
         style="stop-color:#e3d3f6;stop-opacity:1"
         offset="0"
         id="stop852" />
      <stop
         id="stop1277"
         offset="0.4326185"
         style="stop-color:#9bc1e2;stop-opacity:1" />
      <stop
         id="stop1275"
         offset="0.75781679"
         style="stop-color:#6dbcd0;stop-opacity:1" />
      <stop
         style="stop-color:#2aa4c4;stop-opacity:1"
         offset="1"
         id="stop854" />
    </linearGradient>
    <radialGradient
       inkscape:collect="always"
       xlink:href="#linearGradient856"
       id="radialGradient858"
       cx="785.23444"
       cy="370.03525"
       fx="785.23444"
       fy="370.03525"
       r="146.43002"
       gradientTransform="matrix(0.21337707,-2.6994516,2.6292727,0.20782981,-819.87457,2355.6335)"
       gradientUnits="userSpaceOnUse" />
    <filter
       inkscape:collect="always"
       style="color-interpolation-filters:sRGB"
       id="filter1016"
       x="-0.053416902"
       width="1.1068338"
       y="-0.04990263"
       height="1.0998053">
      <feGaussianBlur
         inkscape:collect="always"
         stdDeviation="6.5181986"
         id="feGaussianBlur1018" />
    </filter>
    <filter
       inkscape:collect="always"
       style="color-interpolation-filters:sRGB"
       id="filter1016-0"
       x="-0.053416902"
       width="1.1068338"
       y="-0.04990263"
       height="1.0998053">
      <feGaussianBlur
         inkscape:collect="always"
         stdDeviation="6.5181986"
         id="feGaussianBlur1018-4" />
    </filter>
    <linearGradient
       inkscape:collect="always"
       xlink:href="#linearGradient1080"
       id="linearGradient1132"
       gradientUnits="userSpaceOnUse"
       x1="539.19598"
       y1="286.7865"
       x2="571.36932"
       y2="308.23541"
       gradientTransform="translate(-514.15527,-25.029697)" />
    <linearGradient
       inkscape:collect="always"
       xlink:href="#linearGradient1070"
       id="linearGradient1140"
       gradientUnits="userSpaceOnUse"
       x1="599.06866"
       y1="-133.16589"
       x2="769.22198"
       y2="-134.2068"
       gradientTransform="matrix(0.77380295,0.63342639,-0.7679813,0.64047227,-514.15507,-25.029755)" />
    <linearGradient
       inkscape:collect="always"
       xlink:href="#linearGradient1062"
       id="linearGradient1148"
       gradientUnits="userSpaceOnUse"
       x1="685.12402"
       y1="-183.34106"
       x2="852.04926"
       y2="-181.18941"
       gradientTransform="matrix(0.77380295,0.63342639,-0.7679813,0.64047227,-514.15507,-25.02978)" />
    <linearGradient
       inkscape:collect="always"
       xlink:href="#linearGradient1164"
       id="linearGradient1166"
       x1="680.96313"
       y1="461.72577"
       x2="678.87091"
       y2="40.55912"
       gradientUnits="userSpaceOnUse"
       gradientTransform="translate(-514.15527,-25.029697)" />
    <filter
       inkscape:collect="always"
       style="color-interpolation-filters:sRGB"
       id="filter1269"
       x="-0.13015403"
       width="1.2603081"
       y="-0.20230394"
       height="1.4046079">
      <feGaussianBlur
         inkscape:collect="always"
         stdDeviation="5.6547302"
         id="feGaussianBlur1271" />
    </filter>
    <linearGradient
       inkscape:collect="always"
       xlink:href="#linearGradient1306"
       id="linearGradient1308"
       x1="670.62097"
       y1="325.56625"
       x2="710.10419"
       y2="376.31625"
       gradientUnits="userSpaceOnUse"
       gradientTransform="translate(-514.15527,-25.029697)" />
    <linearGradient
       inkscape:collect="always"
       xlink:href="#linearGradient1316"
       id="linearGradient1310"
       x1="725.63647"
       y1="342.88364"
       x2="700.06274"
       y2="312.3602"
       gradientUnits="userSpaceOnUse"
       gradientTransform="translate(-514.15527,-25.029697)" />
    <linearGradient
       inkscape:collect="always"
       xlink:href="#linearGradient1322"
       id="linearGradient1324"
       x1="914.08331"
       y1="144.5"
       x2="721.58331"
       y2="317.16666"
       gradientUnits="userSpaceOnUse"
       gradientTransform="translate(-514.15527,-25.029697)" />
    <linearGradient
       inkscape:collect="always"
       xlink:href="#linearGradient1330"
       id="linearGradient1332"
       x1="661.5"
       y1="386"
       x2="650.41669"
       y2="355.66666"
       gradientUnits="userSpaceOnUse"
       gradientTransform="translate(-514.15527,-25.029697)" />
    <filter
       inkscape:collect="always"
       style="color-interpolation-filters:sRGB"
       id="filter1416"
       x="-0.25430798"
       width="1.5229317"
       y="-0.21123361"
       height="1.4099257">
      <feGaussianBlur
         inkscape:collect="always"
         stdDeviation="2.2317617"
         id="feGaussianBlur1418" />
    </filter>
    <filter
       inkscape:collect="always"
       style="color-interpolation-filters:sRGB"
       id="filter1595"
       x="-0.033354331"
       width="1.0667087"
       y="-0.03910154"
       height="1.0782031">
      <feGaussianBlur
         inkscape:collect="always"
         stdDeviation="4.0348505"
         id="feGaussianBlur1597" />
    </filter>
  </defs>
  <sodipodi:namedview
     pagecolor="#ffffff"
     bordercolor="#666666"
     borderopacity="1"
     objecttolerance="10"
     gridtolerance="10"
     guidetolerance="10"
     inkscape:pageopacity="0"
     inkscape:pageshadow="2"
     inkscape:window-width="1639"
     inkscape:window-height="953"
     id="namedview6"
     showgrid="false"
     inkscape:zoom="1"
     inkscape:cx="416"
     inkscape:cy="205.5"
     inkscape:current-layer="svg4"
     inkscape:showpageshadow="2"
     inkscape:pagecheckerboard="0"
     inkscape:deskcolor="#d1d1d1"
     inkscape:window-x="0"
     inkscape:window-y="0"
     inkscape:window-maximized="0" />
  <rect
     ry="8"
     y="40.949036"
     x="529.29645"
     height="313.48401"
     width="292.86005"
     id="rect868-1"
     style="opacity:0.378;fill:#000000;fill-opacity:1;stroke:none;stroke-width:2;stroke-linejoin:miter;stroke-miterlimit:4;stroke-dasharray:none;stroke-opacity:0.383495;filter:url(#filter1016-0)"
     transform="matrix(1.15924,0,0,1.3370943,-595.44684,-33.835652)" />
  <rect
     style="fill:url(#linearGradient1166);fill-opacity:1;stroke:none;stroke-width:2;stroke-linejoin:miter;stroke-miterlimit:4;stroke-dasharray:none;stroke-opacity:0.383495"
     id="rect848"
     width="337.40778"
     height="421.5535"
     x="15.141178"
     y="15.919339"
     ry="8" />
  <rect
     ry="8"
     y="43.018162"
     x="42.239994"
     height="313.48401"
     width="292.86005"
     id="rect868"
     style="opacity:0.289;fill:#000000;fill-opacity:1;stroke:none;stroke-width:2;stroke-linejoin:miter;stroke-miterlimit:4;stroke-dasharray:none;stroke-opacity:0.383495;filter:url(#filter1016)" />
  <rect
     style="fill:url(#radialGradient858);fill-opacity:1;stroke:none;stroke-width:2;stroke-linejoin:miter;stroke-miterlimit:4;stroke-dasharray:none;stroke-opacity:0.383495"
     id="rect850"
     width="292.86005"
     height="313.48401"
     x="38.239994"
     y="39.018162"
     ry="8" />
  <path
     style="fill:url(#linearGradient1132);fill-opacity:1;stroke:none;stroke-width:1px;stroke-linecap:butt;stroke-linejoin:miter;stroke-opacity:1"
     d="M 38.239231,195.09139 V 318.37655 L 108.36233,251.0328 Z"
     id="path1128"
     inkscape:connector-curvature="0" />
  <path
     style="opacity:1;fill:url(#linearGradient1148);fill-opacity:1;stroke:none;stroke-width:2.45932;stroke-linejoin:miter;stroke-miterlimit:4;stroke-dasharray:none;stroke-opacity:0.383495"
     d="m 219.75093,242.35702 c -2.4884,0.0114 -4.9734,0.81231 -6.873,2.39648 l -112.1582,93.53516 c -3.799099,3.16834 -3.777099,8.24152 0.051,11.375 l 3.4668,2.83789 h 218.8633 c 4.432,0 8,-3.568 8,-8 v -14.30664 l -104.4551,-85.50586 c -1.914,-1.56674 -4.4061,-2.3434 -6.8946,-2.33203 z"
     id="rect1144"
     inkscape:connector-curvature="0" />
  <path
     style="opacity:1;fill:url(#linearGradient1140);fill-opacity:1;stroke:none;stroke-width:2.45932;stroke-linejoin:miter;stroke-miterlimit:4;stroke-dasharray:none;stroke-opacity:0.383495"
     d="m 114.62593,219.98397 c -2.4884,0.0114 -4.9734,0.81036 -6.873,2.39453 l -69.513699,57.97266 v 64.15039 c 0,4.432 3.568,8 8,8 H 280.55763 L 121.52053,222.316 c -1.914,-1.56674 -4.4061,-2.3434 -6.8946,-2.33203 z"
     id="rect1136"
     inkscape:connector-curvature="0" />
  <path
     inkscape:connector-curvature="0"
     id="path1203"
     d="m 126.52246,79.282803 a 30.114584,27.489584 0 0 0 -29.261709,21.119137 24.645834,23.1875 0 0 0 -20.10352,22.77734 24.645834,23.1875 0 0 0 24.646479,23.1875 24.645834,23.1875 0 0 0 2.51172,-0.14648 h 47.2461 c 0.44189,0 0.86897,-0.0584 1.27929,-0.1582 a 25.8125,25.958334 0 0 0 2.77539,0.1582 25.8125,25.958334 0 0 0 25.8125,-25.95898 25.8125,25.958334 0 0 0 -25.8125,-25.957037 25.8125,25.958334 0 0 0 -2.20117,0.10938 30.114584,27.489584 0 0 0 -26.89258,-15.13086 z"
     style="opacity:0.224;fill:#000000;fill-opacity:1;stroke:none;stroke-width:1.86022;stroke-linejoin:miter;stroke-miterlimit:4;stroke-dasharray:none;stroke-opacity:0.383495;filter:url(#filter1269)" />
  <path
     style="opacity:1;fill:#ffffff;fill-opacity:1;stroke:none;stroke-width:1.86022;stroke-linejoin:miter;stroke-miterlimit:4;stroke-dasharray:none;stroke-opacity:0.383495"
     d="m 122.52246,75.282803 a 30.114584,27.489584 0 0 0 -29.261709,21.11914 24.645834,23.1875 0 0 0 -20.10352,22.777337 24.645834,23.1875 0 0 0 24.64648,23.1875 24.645834,23.1875 0 0 0 2.511719,-0.14648 h 47.2461 c 0.44189,0 0.86897,-0.0584 1.27929,-0.1582 a 25.8125,25.958334 0 0 0 2.77539,0.1582 25.8125,25.958334 0 0 0 25.8125,-25.95898 25.8125,25.958334 0 0 0 -25.8125,-25.957037 25.8125,25.958334 0 0 0 -2.20117,0.10938 30.114584,27.489584 0 0 0 -26.89258,-15.13086 z"
     id="path1168"
     inkscape:connector-curvature="0" />
  <path
     style="opacity:0.385;fill:#000000;fill-opacity:1;stroke:none;stroke-width:1px;stroke-linecap:butt;stroke-linejoin:miter;stroke-opacity:1;filter:url(#filter1595)"
     d="m 404.18826,119.98283 c -4.2417,-0.11854 -7.5606,2.15625 -7.5606,2.15625 l -206.23828,169.11524 -8.18945,6.41211 c 0,0 -7.23004,-0.91203 -15.36523,2.33594 -8.13519,3.24797 -13.80078,11.08007 -13.80078,11.08007 0,0 -9.81063,15.26598 -14.35938,23.58594 -4.54875,8.31996 -12.83984,26.29492 -12.83984,26.29492 0,0 -0.86254,2.07809 0.61914,4.53711 1.48168,2.45902 5.15625,2.11524 5.15625,2.11524 0,0 14.40819,-2.28184 21.08789,-3.50586 6.6797,-1.22402 18.56445,-3.73633 18.56445,-3.73633 l 15.02149,-4.51953 c 0,0 10.07506,-3.40509 15.75,-10.9375 5.18495,-6.88205 5.97851,-16.33399 5.97851,-16.33399 l 7.94922,-6.80468 c 0,0 -0.24327,-0.98394 -0.48047,-1.92383 0.33543,1.19074 0.48047,1.92383 0.48047,1.92383 L 413.12766,139.87541 c 0,0 6.7825,-8.16399 -0.8262,-16.08593 -2.6911,-2.80191 -5.5683,-3.73552 -8.1132,-3.80665 z"
     id="path1296-5"
     inkscape:connector-curvature="0" />
  <path
     style="fill:url(#linearGradient1310);fill-opacity:1;stroke:none;stroke-width:1px;stroke-linecap:butt;stroke-linejoin:miter;stroke-opacity:1"
     d="m 185.90748,287.33049 -8.18775,6.41064 c 0,0 9.63801,7.4977 15.16667,14.14583 5.81939,6.99772 10.80538,16.93039 10.64583,16.77084 l 7.94895,-6.80387 c 0,0 -3.65714,-15.95769 -8.24062,-21.34196 -4.32207,-5.07718 -17.33308,-9.18148 -17.33308,-9.18148 z"
     id="path1296"
     inkscape:connector-curvature="0"
     sodipodi:nodetypes="ccsccsc" />
  <path
     style="fill:url(#linearGradient1324);fill-opacity:1;stroke:none;stroke-width:1px;stroke-linecap:butt;stroke-linejoin:miter;stroke-opacity:1"
     d="M 185.90748,287.33049 392.14696,118.21412 c 0,0 8.49791,-5.82185 15.6742,1.64991 7.60867,7.92194 0.82496,16.08668 0.82496,16.08668 L 211.48118,317.85393 c 0,0 -1.68787,-9.2878 -9.26613,-18.58228 -7.54484,-9.25349 -16.30757,-11.94116 -16.30757,-11.94116 z"
     id="path1279"
     inkscape:connector-curvature="0"
     sodipodi:nodetypes="ccsccsc" />
  <path
     style="fill:url(#linearGradient1332);fill-opacity:1;stroke:none;stroke-width:1px;stroke-linecap:butt;stroke-linejoin:miter;stroke-opacity:1"
     d="m 148.55306,307.1578 c 0,0 -9.81138,15.26614 -14.36013,23.5861 -4.54875,8.31996 -12.83841,26.29553 -12.83841,26.29553 0,0 -0.86296,2.07825 0.61872,4.53727 1.48168,2.45902 5.15599,2.11395 5.15599,2.11395 0,0 14.40829,-2.28205 21.08799,-3.50607 6.6797,-1.22402 18.56501,-3.73511 18.56501,-3.73511 l -0.9831,-10.85634 z"
     id="path1300"
     inkscape:connector-curvature="0"
     sodipodi:nodetypes="czczczccc" />
  <path
     style="fill:url(#linearGradient1308);fill-opacity:1;stroke:none;stroke-width:1px;stroke-linecap:butt;stroke-linejoin:miter;stroke-opacity:1"
     d="m 177.71973,293.74113 c 0,0 -7.2308,-0.91045 -15.36599,2.33752 -8.13519,3.24797 -13.80068,11.07915 -13.80068,11.07915 0,0 -9.60917,21.35228 -6.70833,26.39583 1.89268,3.29074 14.47907,3.66658 16.47916,5.83334 3.41655,3.70124 3.02528,9.37706 5.54167,13.5625 0.78252,1.30154 2.91667,3.5 2.91667,3.5 l 15.02083,-4.52084 c 0,0 10.07507,-3.40509 15.75001,-10.9375 5.18495,-6.88205 5.97916,-16.33333 5.97916,-16.33333 0,0 -0.81706,-9.26002 -8.89583,-18.66667 -8.07877,-9.40665 -16.91667,-12.25 -16.91667,-12.25 z"
     id="path1298"
     inkscape:connector-curvature="0"
     sodipodi:nodetypes="czcsssccsczc" />
  <path
     style="fill:none;stroke:#000000;stroke-width:1px;stroke-linecap:butt;stroke-linejoin:miter;stroke-opacity:1;filter:url(#filter1416)"
     d="m 212.22017,314.7898 c -5.48008,-21.56676 -21.74353,-27.57717 -21.74353,-27.57717"
     id="path1334"
     inkscape:connector-curvature="0" />
</svg>
