<?xml version="1.0" encoding="UTF-8" standalone="no"?>
<!-- Created with Inkscape (http://www.inkscape.org/) -->

<svg
   xmlns:osb="http://www.openswatchbook.org/uri/2009/osb"
   xmlns:dc="http://purl.org/dc/elements/1.1/"
   xmlns:cc="http://creativecommons.org/ns#"
   xmlns:rdf="http://www.w3.org/1999/02/22-rdf-syntax-ns#"
   xmlns:svg="http://www.w3.org/2000/svg"
   xmlns="http://www.w3.org/2000/svg"
   xmlns:xlink="http://www.w3.org/1999/xlink"
   xmlns:sodipodi="http://sodipodi.sourceforge.net/DTD/sodipodi-0.dtd"
   xmlns:inkscape="http://www.inkscape.org/namespaces/inkscape"
   width="100mm"
   height="100mm"
   viewBox="0 0 100 100"
   version="1.1"
   id="svg8"
   sodipodi:docname="Icon_Color.svg"
   inkscape:version="0.92.4 (5da689c313, 2019-01-14)"
   inkscape:export-filename="C:\Users\Sope9\Documents\_Documentos\Art\3DModelling\Personal\Logo\Clean_Color_BGW.png"
   inkscape:export-xdpi="101.6"
   inkscape:export-ydpi="101.6">
  <defs
     id="defs2">
    <linearGradient
       inkscape:collect="always"
       id="Star">
      <stop
         style="stop-color:#424242;stop-opacity:1"
         offset="0"
         id="stop7201" />
      <stop
         id="stop7223"
         offset="0.64140248"
         style="stop-color:#1f1f1f;stop-opacity:1" />
      <stop
         style="stop-color:#35362e;stop-opacity:1"
         offset="0.75146973"
         id="stop7225" />
      <stop
         style="stop-color:#2e3527;stop-opacity:1"
         offset="1"
         id="stop7203" />
    </linearGradient>
    <linearGradient
       inkscape:collect="always"
       id="linearGradient7187">
      <stop
         style="stop-color:#c1f50d;stop-opacity:1"
         offset="0"
         id="stop7183" />
      <stop
         style="stop-color:#4cd821;stop-opacity:1"
         offset="1"
         id="stop7185" />
    </linearGradient>
    <linearGradient
       id="linearGradient7106"
       osb:paint="solid">
      <stop
         style="stop-color:#a1ff00;stop-opacity:1;"
         offset="0"
         id="stop7104" />
    </linearGradient>
    <radialGradient
       inkscape:collect="always"
       xlink:href="#linearGradient7187"
       id="radialGradient7189"
       cx="675.1806"
       cy="211.74716"
       fx="675.1806"
       fy="211.74716"
       r="126.33223"
       gradientTransform="matrix(0.45991403,0,0,0.45911062,-228.58012,271.32931)"
       gradientUnits="userSpaceOnUse" />
    <radialGradient
       inkscape:collect="always"
       xlink:href="#Star"
       id="radialGradient7221"
       cx="304.49487"
       cy="92.034538"
       fx="304.49487"
       fy="92.034538"
       r="84.472565"
       gradientTransform="matrix(1,0,0,0.99806129,-222.95681,276.37814)"
       gradientUnits="userSpaceOnUse" />
  </defs>
  <sodipodi:namedview
     id="base"
     pagecolor="#ffffff"
     bordercolor="#666666"
     borderopacity="1.0"
     inkscape:pageopacity="0.0"
     inkscape:pageshadow="2"
     inkscape:zoom="0.58446776"
     inkscape:cx="996.51951"
     inkscape:cy="114.19239"
     inkscape:document-units="mm"
     inkscape:current-layer="stroke_GP_Lines"
     showgrid="false"
     inkscape:window-width="1920"
     inkscape:window-height="1027"
     inkscape:window-x="1912"
     inkscape:window-y="-8"
     inkscape:window-maximized="1"
     showguides="false"
     inkscape:guide-bbox="true">
    <sodipodi:guide
       position="436.35566,8.8742062"
       orientation="0,1"
       id="guide5578"
       inkscape:locked="false" />
  </sodipodi:namedview>
  <metadata
     id="metadata5">
    <rdf:RDF>
      <cc:Work
         rdf:about="">
        <dc:format>image/svg+xml</dc:format>
        <dc:type
           rdf:resource="http://purl.org/dc/dcmitype/StillImage" />
        <dc:title></dc:title>
      </cc:Work>
    </rdf:RDF>
  </metadata>
  <g
     inkscape:label="Layer 1"
     inkscape:groupmode="layer"
     id="layer1"
     transform="translate(0,-197)">
    <g
       id="blender_frame_3"
       transform="matrix(0.57528867,0,0,0.57528867,3.2350306,34.899752)">
      <g
         id="blender_object_Stroke_GPencil">
        <!--Layer: stroke_GP_Lines-->
        <g
           id="stroke_GP_Lines">
          <path
             style="fill:url(#radialGradient7221);fill-opacity:1;stroke:#515142;stroke-width:3.47651553;stroke-linecap:round;stroke-linejoin:miter;stroke-miterlimit:4;stroke-dasharray:none;stroke-opacity:1"
             d="m 84.757977,286.19971 c -1.63219,-1.30107 -4.63128,-1.29104 -6.2619,0.012 l -15.5686,12.44104 -19.66925,-2.95416 c -2.06567,-0.31025 -4.66221,1.19075 -5.42597,3.13495 l -7.27691,18.52386 -18.54743,7.27002 c -1.94406,0.76201 -3.4501204,3.35557 -3.1398904,5.42047 l 2.9516004,19.64582 -12.46533043,15.5581 c -1.30383997,1.62733 -1.31760997,4.62641 -0.0162,6.25568 L 11.719137,387.0076 8.6650666,406.6948 c -0.31904,2.0566 1.1694503,4.66042 3.1093104,5.4143 l 18.49304,7.18689 7.16773,18.54026 c 0.74967,1.93911 3.34838,3.4383 5.40234,3.11673 l 19.66559,-3.07886 15.47943,12.39999 c 1.62795,1.30409 4.63124,1.27872 6.25757,-0.0274 l 15.604735,-12.53226 19.698968,2.90894 c 2.07796,0.30685 4.67949,-1.20588 5.45251,-3.15897 l 7.34906,-18.56799 18.65064,-7.29788 c 1.94761,-0.76209 3.47482,-3.35072 3.16278,-5.41871 l -2.96014,-19.6181 12.52386,-15.52105 c 1.30605,-1.61861 1.31536,-4.6194 0.0111,-6.23944 l -12.45306,-15.46808 3.044,-19.61963 c 0.31889,-2.05534 -1.1893,-4.64796 -3.12909,-5.3985 l -18.56891,-7.18463 -7.21734,-18.47406 c -0.7583,-1.941 -3.36284,-3.42793 -5.42249,-3.11114 l -19.70318,3.03045 z"
             id="polyline3729"
             inkscape:connector-curvature="0"
             sodipodi:nodetypes="sscsscsscsscsscsscsscsscsscsscsscsscs"
             inkscape:export-xdpi="101.85634"
             inkscape:export-ydpi="101.85634" />
          <path
             style="fill:url(#radialGradient7189);fill-opacity:1;stroke:none;stroke-width:0.86912888;stroke-linecap:round;stroke-linejoin:bevel;stroke-miterlimit:4;stroke-dasharray:none;stroke-opacity:1"
             d="m 82.047793,310.97679 c -3.769432,0.008 -7.555895,0.38872 -11.251728,1.13002 -3.696986,0.74154 -7.338195,1.85161 -10.820553,3.29755 -3.483486,1.44641 -6.841084,3.24265 -9.977081,5.33842 -3.136066,2.09582 -6.080142,4.51098 -8.749147,7.17627 -2.66849,2.66478 -5.087426,5.60483 -7.187054,8.73747 -2.098794,3.1314 -3.898567,6.48472 -5.348298,9.9645 -1.448881,3.47774 -2.562177,7.11476 -3.306529,10.80798 -0.740218,3.67272 -1.119771,7.43602 -1.131821,11.18256 -0.0028,0.79702 0.225468,2.38042 0.225468,2.38042 l 15.046911,-2.36604 16.005371,-0.044 -0.08354,26.30763 c 0,0 2.570391,2.36163 4.014369,3.32988 2.171539,1.45612 4.50667,2.68947 6.92476,3.68381 2.420711,0.99541 7.521213,2.25555 7.521213,2.25555 l 0.03413,-9.33302 c 0,0 5.227323,0.1093 7.835606,-0.0278 1.720391,-0.0904 3.453043,-0.18256 5.141696,-0.52369 1.690975,-0.3416 3.355933,-0.85236 4.948569,-1.51538 1.593989,-0.66358 3.13046,-1.48648 4.565902,-2.44599 1.435576,-0.9596 2.783585,-2.06476 4.006283,-3.28407 1.22192,-1.21853 2.33044,-2.56239 3.29306,-3.99461 0.96149,-1.43054 2.45228,-4.55242 2.45228,-4.55242 l 14.80258,6.07319 c 0,0 -2.39967,5.02051 -3.947,7.3209 -1.54965,2.30385 -3.33417,4.46524 -5.30069,6.42533 -1.96835,1.96191 -4.13834,3.7399 -6.44867,5.28451 -2.31003,1.54441 -4.78191,2.87029 -7.346951,3.93891 -2.56214,1.06742 -5.240909,1.8892 -7.961365,2.43971 -2.715834,0.54957 -5.498608,0.83572 -8.269471,0.84616 -2.765798,0.0104 -5.546002,-0.25199 -8.260488,-0.78239 -2.709735,-0.52947 -5.38012,-1.33009 -7.933517,-2.38041 -2.550775,-1.04925 -4.984047,-2.39624 -7.304727,-3.88681 -2.328614,-1.49567 -4.638339,-3.08661 -6.595094,-5.04379 -1.956962,-1.95739 -3.547317,-4.26787 -5.042888,-6.59689 -1.490319,-2.32085 -2.83692,-4.75422 -3.886812,-7.30473 -1.050775,-2.55265 -2.384006,-7.93082 -2.384006,-7.93082 l -15.000206,3.02986 c 0,0 1.814421,7.32309 3.244551,10.799 1.428842,3.47279 3.208673,6.82079 5.289913,9.94654 2.080168,3.12414 4.480786,6.0567 7.133156,8.71232 2.651749,2.65499 5.580045,5.05958 8.701537,7.14214 3.122319,2.08311 6.467651,3.8646 9.938457,5.2935 3.473965,1.4302 7.107414,2.52035 10.794504,3.24096 3.693537,0.72187 7.476657,1.07863 11.240046,1.06355 3.771483,-0.0151 7.559055,-0.40646 11.255319,-1.15607 3.70412,-0.75121 7.351032,-1.87258 10.839422,-3.3272 3.49351,-1.45675 6.86015,-3.26338 10.00672,-5.36716 3.14732,-2.10427 6.1038,-4.52585 8.78598,-7.19783 2.67877,-2.66858 5.1104,-5.61079 7.22208,-8.74735 2.10752,-3.13038 3.91884,-6.48211 5.37705,-9.96271 1.45497,-3.47287 2.57493,-7.10595 3.3227,-10.7963 0.74281,-3.6659 1.12352,-7.42331 1.13451,-11.1637 0.002,-0.79528 -0.22726,-2.37502 -0.22726,-2.37502 l -15.09722,2.35796 -16.04399,0.0431 0.0719,-26.2672 c 0,0 -2.57754,-2.35892 -4.02425,-3.32629 -2.17638,-1.45528 -4.515568,-2.68816 -6.937337,-3.6829 -2.424336,-0.9958 -7.531092,-2.25915 -7.531092,-2.25915 l -0.02336,9.31595 c 0,0 -5.228997,-0.114 -7.838301,0.0206 -1.719996,0.0888 -3.452276,0.17894 -5.140795,0.5183 -1.689586,0.33958 -3.353532,0.84779 -4.944972,1.5091 -1.591933,0.6615 -3.126353,1.48268 -4.55962,2.44059 -1.433313,0.95795 -2.779026,2.06161 -3.999095,3.27959 -1.219863,1.21778 -2.32573,2.56131 -3.28587,3.9928 -0.959565,1.43065 -2.445988,4.55244 -2.445988,4.55244 l -14.771198,-6.08309 c 0,0 2.389231,-5.01959 3.931727,-7.32001 1.543306,-2.30162 3.320855,-4.46191 5.281828,-6.41993 1.961561,-1.9586 4.125203,-3.73339 6.429809,-5.27374 2.30428,-1.54013 4.771222,-2.86046 7.330782,-3.92364 2.55898,-1.06293 5.234723,-1.87904 7.951481,-2.42443 2.715332,-0.5451 5.497279,-0.82513 8.266775,-0.8318 2.767289,-0.007 5.548463,0.25909 8.26408,0.79138 2.713222,0.53182 5.386891,1.33416 7.944298,2.3849 2.555228,1.04986 4.993618,2.39616 7.319998,3.88592 2.33354,1.49434 4.6489,3.08287 6.61216,5.03839 1.96117,1.95345 3.55786,4.25959 5.05906,6.58522 1.49511,2.31621 2.84747,4.745 3.90208,7.29215 1.05463,2.54722 2.39478,7.91645 2.39478,7.91645 l 15.04692,-3.01639 c 0,0 -1.82732,-7.30739 -3.26431,-10.77385 -1.43709,-3.46666 -3.22664,-6.80676 -5.31596,-9.92408 -2.09044,-3.11898 -4.5019,-6.04438 -7.1628,-8.69345 -2.66298,-2.65114 -5.6021,-5.05034 -8.73208,-7.12957 -3.13261,-2.08096 -6.48684,-3.8605 -9.96541,-5.28991 -3.48164,-1.43067 -7.121443,-2.52347 -10.815159,-3.24814 -3.696146,-0.72515 -7.481519,-1.08799 -11.248118,-1.07971 z m -0.135638,45.53688 c 0.785635,-0.002 1.575275,0.0727 2.346279,0.22367 0.769749,0.15068 1.528221,0.37838 2.253758,0.67639 0.724944,0.29778 1.424129,0.66832 2.076797,1.10218 0.651942,0.43338 1.263803,0.93383 1.8181,1.48664 0.554151,0.55266 1.056142,1.16299 1.491129,1.81361 0.434872,0.65044 0.807172,1.3473 1.105767,2.07051 0.298709,0.72348 0.526298,1.48034 0.677297,2.24836 0.151164,0.76886 0.223559,1.55642 0.224566,2.34 9.2e-4,0.77617 -0.06575,1.55703 -0.216481,2.31843 -0.152604,0.77088 -0.38871,1.52867 -0.691669,2.25376 -0.303226,0.72572 -0.67985,1.42475 -1.118346,2.0777 -0.43902,0.65372 -0.944429,1.26733 -1.501909,1.82348 -0.55776,0.55643 -1.172905,1.0606 -1.827974,1.49832 -0.655143,0.43776 -1.35647,0.81303 -2.083986,1.11565 -0.726811,0.30232 -1.486603,0.53518 -2.258251,0.69077 -0.770894,0.15543 -1.560778,0.23553 -2.34718,0.23804 -0.785308,0.002 -1.574645,-0.0722 -2.345383,-0.22277 -0.769716,-0.15039 -1.528299,-0.37752 -2.253758,-0.6755 -0.724452,-0.29757 -1.422965,-0.66832 -2.074998,-1.10218 -0.651712,-0.43364 -1.263246,-0.93444 -1.817204,-1.48753 -0.553566,-0.55271 -1.055084,-1.16296 -1.48933,-1.81361 -0.434481,-0.651 -0.805696,-1.3487 -1.103973,-2.07231 -0.298401,-0.72392 -0.526441,-1.48093 -0.677292,-2.24926 -0.151018,-0.76917 -0.222797,-1.55705 -0.22367,-2.3409 -9.2e-4,-0.77676 0.06576,-1.55822 0.216481,-2.32023 0.152406,-0.77053 0.388232,-1.528 0.690768,-2.25286 0.302991,-0.72594 0.679164,-1.42536 1.117449,-2.07859 0.438399,-0.65341 0.94321,-1.26672 1.50011,-1.82259 0.557149,-0.55612 1.1717,-1.05999 1.826181,-1.49742 0.65454,-0.43746 1.355242,-0.81251 2.082192,-1.11474 0.726779,-0.30217 1.48663,-0.53458 2.258247,-0.68988 0.770627,-0.15509 1.560207,-0.23491 2.346283,-0.23714 z"
             id="polyline3771"
             inkscape:connector-curvature="0"
             inkscape:export-xdpi="101.85634"
             inkscape:export-ydpi="101.85634"
             sodipodi:nodetypes="sssssssssccccssccssssssccssssssssssssccsssssssssssssssccccssccssssssccssssssssssssccssssssssssssssssssssssssssssssssssssssss" />
        </g>
      </g>
    </g>
  </g>
</svg>
