<?xml version="1.0" encoding="UTF-8" standalone="no"?>
<svg
   enable-background="new 0 0 512 512"
   id="Layer_1"
   version="1.1"
   viewBox="0 0 427.52237 349.79187"
   xml:space="preserve"
   sodipodi:docname="twitter.svg"
   inkscape:version="1.3.2 (091e20e, 2023-11-25, custom)"
   width="427.52237"
   height="349.79187"
   xmlns:inkscape="http://www.inkscape.org/namespaces/inkscape"
   xmlns:sodipodi="http://sodipodi.sourceforge.net/DTD/sodipodi-0.dtd"
   xmlns="http://www.w3.org/2000/svg"
   xmlns:svg="http://www.w3.org/2000/svg"
   xmlns:rdf="http://www.w3.org/1999/02/22-rdf-syntax-ns#"
   xmlns:cc="http://creativecommons.org/ns#"
   xmlns:dc="http://purl.org/dc/elements/1.1/"><metadata
     id="metadata11"><rdf:RDF><cc:Work
         rdf:about=""><dc:format>image/svg+xml</dc:format><dc:type
           rdf:resource="http://purl.org/dc/dcmitype/StillImage" /><dc:title /></cc:Work></rdf:RDF></metadata><defs
     id="defs9" /><sodipodi:namedview
     pagecolor="#ffffff"
     bordercolor="#666666"
     borderopacity="1"
     objecttolerance="10"
     gridtolerance="10"
     guidetolerance="10"
     inkscape:pageopacity="0"
     inkscape:pageshadow="2"
     inkscape:window-width="1445"
     inkscape:window-height="913"
     id="namedview7"
     showgrid="false"
     inkscape:pagecheckerboard="true"
     inkscape:zoom="0.75"
     inkscape:cx="72"
     inkscape:cy="202"
     inkscape:current-layer="Layer_1"
     inkscape:showpageshadow="2"
     inkscape:deskcolor="#d1d1d1"
     inkscape:window-x="1979"
     inkscape:window-y="9"
     inkscape:window-maximized="0" /><g
     id="g4"
     transform="matrix(0.84607635,0,0,0.84607635,-2.792052,-62.194842)"
     style="fill:#ffffff;fill-opacity:1"><path
       d="m 4,440.5 c 55.6,5 105.7,-9 151.3,-43.2 -47.7,-4.2 -79.6,-28 -97.4,-72.6 15.6,1.9 30.2,2.4 45.7,-1.8 -51.4,-16 -78.8,-49.6 -82.5,-103.8 15.4,7.2 29.9,12.4 47,12.6 -30.5,-22.9 -46.1,-52.6 -45.5,-90 0.3,-17.2 4.9,-33.4 14,-48.7 56.5,66.1 127.4,102.7 214.7,108.8 -0.5,-3.8 -0.8,-6.8 -1.2,-9.9 -7.2,-55.4 28.8,-105.8 83.8,-116.3 34.5,-6.6 65,2.5 90.8,26.3 4,3.6 7.4,4.4 12.4,3.1 20.1,-5.1 39.2,-12.5 57.7,-22.5 -7.1,23.4 -21.7,41 -41.5,55.8 4.5,-0.8 9.1,-1.4 13.6,-2.3 4.7,-1 9.4,-2.1 14.1,-3.4 4.5,-1.2 8.9,-2.6 13.3,-4.1 4.5,-1.5 9,-3.2 14.3,-4.1 -2.6,3.6 -5.1,7.4 -7.9,10.9 -11.6,14.7 -25,27.6 -39.7,39.1 -1.5,1.2 -2.8,3.8 -2.7,5.6 0.8,35.5 -4.2,70.1 -15.7,103.7 -22.6,66.2 -62,119.8 -121.1,158.1 -29.2,18.9 -61.1,31.3 -95.2,38.5 -33.8,7.1 -67.8,8.4 -101.9,4.4 -34.2,-4 -66.7,-14.1 -97.3,-29.9 -8.1,-4.1 -15.9,-8.7 -23.8,-13.1 0.3,-0.4 0.5,-0.8 0.7,-1.2 z"
       id="path2"
       inkscape:connector-curvature="0"
       style="fill:#ffffff;fill-opacity:1" /></g></svg>
