<svg width="700" height="665.75" viewBox="0 0 28 26.63" xmlns="http://www.w3.org/2000/svg"><defs><linearGradient id="a" x1="-611.35" y1="-67.49" x2="-600.27" y2="-65.33" gradientTransform="matrix(1.437 0 0 -1.437 892.42 -84.99)" gradientUnits="userSpaceOnUse"><stop offset="0" stop-color="#0f6067"/><stop offset=".5" stop-color="#05abac"/><stop offset="1" stop-color="#58bec4"/></linearGradient><linearGradient id="b" x1="-603.59" y1="-77.7" x2="-602.01" y2="-59.6" gradientTransform="matrix(1.437 0 0 -1.437 892.42 -84.99)" gradientUnits="userSpaceOnUse"><stop offset="0" stop-color="#117c83"/><stop offset=".5" stop-color="#21b5b5"/><stop offset="1" stop-color="#7ed4d4"/></linearGradient><linearGradient id="c" x1="-612.76" y1="-59.91" x2="-616.93" y2="-72.76" gradientTransform="matrix(1.437 0 0 -1.437 892.42 -84.99)" gradientUnits="userSpaceOnUse"><stop offset="0" stop-color="#9accd3"/><stop offset=".5" stop-color="#72aeb3"/><stop offset="1" stop-color="#317d7f"/></linearGradient><linearGradient id="d" x1="-621.85" y1="-74.58" x2="-614.84" y2="-72.3" gradientTransform="matrix(1.437 0 0 -1.437 892.42 -84.99)" gradientUnits="userSpaceOnUse"><stop offset="0" stop-color="#21626e"/><stop offset=".5" stop-color="#157c84"/><stop offset="1" stop-color="#03a3a5"/></linearGradient><linearGradient id="e" x1="-616.37" y1="-64.47" x2="-625.34" y2="-72.83" gradientTransform="matrix(1.437 0 0 -1.437 892.42 -84.99)" gradientUnits="userSpaceOnUse"><stop offset="0" stop-color="#0b7c81"/><stop offset=".5" stop-color="#068d90"/><stop offset="1" stop-color="#16b1b1"/></linearGradient><linearGradient id="f" x1="-608.07" y1="-74.68" x2="-603.49" y2="-70.97" gradientTransform="matrix(1.437 0 0 -1.437 892.42 -84.99)" gradientUnits="userSpaceOnUse"><stop offset="0" stop-color="#0a8a8f"/><stop offset=".5" stop-color="#0f7c82"/><stop offset="1" stop-color="#1a5964"/></linearGradient><linearGradient id="g" x1="-601.13" y1="-70.11" x2="-606.01" y2="-67.07" gradientTransform="matrix(1.437 0 0 -1.437 892.42 -84.99)" gradientUnits="userSpaceOnUse"><stop offset="0" stop-color="#256a77"/><stop offset=".5" stop-color="#0d9499"/><stop offset="1" stop-color="#06a0a2"/></linearGradient></defs><path d="M19.6.77H28L16.77 21.52s-1.9-5.5-2.7-7.46" style="fill:url(#a)"/><path d="M21.67 26.43H28V.77c0 13.4-5.64 25.66-6.33 25.66z" style="fill:url(#b)"/><path d="M16.77 21.52h-5.23L0 .77C2.05.51 6.13.17 8.16 0Z" style="fill:url(#c)"/><path d="M6.7 13.33C4.95 20.18 0 26.63 0 26.63c5.75 0 7-.84 7-1.28v-11.5c-.11-.17-.2-.35-.3-.52Z" style="fill:url(#d)"/><path d="M0 .77v25.85c3.15-5.2 4.98-8.6 6.6-13.45C2.6 6.11 0 .77 0 .77Z" style="fill:url(#e)"/><path style="fill:url(#f)" d="m21.23 25.41.44 1.02V12.96l-.44.73"/><path d="M21.65 12.98v13.4l.01.05c.45 0 6.33-14.5 6.33-25.66 0 0-3.58 7.49-6.34 12.21z" style="fill:url(#g)"/></svg>