<svg height="174.07" viewBox="0 0 240.44 303.2" width="138.13" xmlns:xlink="http://www.w3.org/1999/xlink" xmlns="http://www.w3.org/2000/svg"><linearGradient id="c" gradientUnits="userSpaceOnUse" x1="34.52" x2="3.16" y1=".67" y2="45.45"><stop offset="0" stop-color="#800600"/><stop offset=".6" stop-color="#c72127"/><stop offset=".73" stop-color="#c13959"/><stop offset=".85" stop-color="#bc4b81"/><stop offset=".94" stop-color="#b95799"/><stop offset="1" stop-color="#b85ba2"/></linearGradient><linearGradient id="e" gradientUnits="userSpaceOnUse" x1="18.5" x2="59.44" y1="55.63" y2="55.63"><stop offset="0" stop-color="#f32b44"/><stop offset=".6" stop-color="#a4070a"/></linearGradient><linearGradient id="a"><stop offset="0" stop-opacity=".4"/><stop offset="1" stop-opacity="0"/></linearGradient><linearGradient id="d" gradientUnits="userSpaceOnUse" x1="35.16" x2="28.52" xlink:href="#a" y1="-.24" y2="9.24"/><linearGradient id="f" gradientUnits="userSpaceOnUse" x1="46.32" x2="27.99" xlink:href="#a" y1="56.55" y2="54.95"/><linearGradient id="b" gradientUnits="userSpaceOnUse" x1="45.2" x2="45.2" y1="-1.42" y2="57.8"><stop offset="0" stop-color="#ffb900"/><stop offset=".17" stop-color="#ef8400"/><stop offset=".31" stop-color="#e25c01"/><stop offset=".43" stop-color="#db4401"/><stop offset=".5" stop-color="#d83b01"/></linearGradient><path d="M34.41 2 39 12.5V49l-4.52 13 17.09-4.87A6.12 6.12 0 0 0 56 51.26V12.74a6.11 6.11 0 0 0-4.44-5.88Z" fill="url(#b)" style="fill:url(#b)" transform="matrix(5.01234 0 0 5.01234 -40.42 -8.82)"/><path d="m12.74 48.61 5-2.7A4.36 4.36 0 0 0 20 42.08V22.43a4.37 4.37 0 0 1 2.87-4.1L39 12.5V8.07A6.32 6.32 0 0 0 34.41 2a6.18 6.18 0 0 0-1.73-.24 6.41 6.41 0 0 0-3.14.83L11.08 13.12A6.1 6.1 0 0 0 8 18.42v27.36a3.21 3.21 0 0 0 4.74 2.83z" fill="url(#c)" style="fill:url(#c)" transform="matrix(5.01234 0 0 5.01234 -40.42 -8.82)"/><path d="m12.74 48.61 5-2.7A4.36 4.36 0 0 0 20 42.08V22.43a4.37 4.37 0 0 1 2.87-4.1L39 12.5V8.07A6.32 6.32 0 0 0 34.41 2a6.18 6.18 0 0 0-1.73-.24 6.41 6.41 0 0 0-3.14.83L11.08 13.12A6.1 6.1 0 0 0 8 18.42v27.36a3.21 3.21 0 0 0 4.74 2.83z" fill="url(#d)" style="fill:url(#d)" transform="matrix(5.01234 0 0 5.01234 -40.42 -8.82)"/><path d="M39 49H19.93a3.22 3.22 0 0 0-1.59 6l11.36 6.44a6.2 6.2 0 0 0 3.07.81 6 6 0 0 0 1.71-.25A6.22 6.22 0 0 0 39 56Z" fill="url(#e)" style="fill:url(#e)" transform="matrix(5.01234 0 0 5.01234 -40.42 -8.82)"/><path d="M39 49H19.93a3.22 3.22 0 0 0-1.59 6l11.36 6.44a6.2 6.2 0 0 0 3.07.81 6 6 0 0 0 1.71-.25A6.22 6.22 0 0 0 39 56Z" fill="url(#f)" style="fill:url(#f)" transform="matrix(5.01234 0 0 5.01234 -40.42 -8.82)"/></svg>