<svg viewBox="0 0 256 256" preserveAspectRatio="xMidYMid" xmlns="http://www.w3.org/2000/svg"><path d="M254.95 144.25c8.96-70.13-40.57-134.24-110.57-143.2-70-8.96-134.37 40.57-143.33 110.57-8.96 70 40.57 134.25 110.57 143.33 70.13 8.96 134.25-40.57 143.33-110.7Z" fill="#f6f7ff"/><path d="M188.3 50.31C157.2 23.68 96.36 21.55 59.52 60.24c-37.05 38.47-35.73 99.75 2.94 136.6 31.48 30.43 81.69 33.67 106.57 20.08l-73.7-77.56z" fill="#ff6c37"/><path d="m197.88 59.02-1.16-1.16-84.02 82.37 66.12 69.15c6.52-4.2 13.1-8.95 18.46-14.32 38.08-37.25 38.35-98.45.6-136.04z" fill="#ff6c37"/><path d="M198.5 116.27c-1.22-3.54-5.37-5.31-8.96-4.14-3.6 1.2-5.36 5.36-4.2 8.95 0 .6.6 1.2.6 1.81a22.29 22.29 0 0 1-2.32 22.66 7.18 7.18 0 0 0 .56 9.56 6.8 6.8 0 0 0 9.56-1.21 34.97 34.97 0 0 0 4.75-37.58z" fill="#fff"/></svg>