<svg xmlns="http://www.w3.org/2000/svg" xmlns:xlink="http://www.w3.org/1999/xlink" version="1.0" viewBox="0 0 418.4 418.4"><defs><linearGradient id="a"><stop offset="0" style="stop-color:#fff;stop-opacity:1"/><stop offset="1" style="stop-color:#767676;stop-opacity:1"/></linearGradient><linearGradient xlink:href="#a" id="b" x1="139.1" x2="140.7" y1="126.6" y2="402.8" gradientTransform="translate(-9.2 -2.2)" gradientUnits="userSpaceOnUse"/><linearGradient xlink:href="#a" id="c" x1="41" x2="40.5" y1="125.1" y2="403.4" gradientTransform="translate(-9.2 -2.2)" gradientUnits="userSpaceOnUse"/><linearGradient xlink:href="#a" id="d" x1="400.1" x2="370.7" y1="334" y2="-160.4" gradientTransform="translate(.3 -6.6)" gradientUnits="userSpaceOnUse"/><linearGradient xlink:href="#a" id="e" x1="375.5" x2="345.1" y1="339.3" y2="-160.1" gradientTransform="translate(.3 -6.6)" gradientUnits="userSpaceOnUse"/></defs><path fill="none" d="M418.1 11.7H10v408.2h408.1V11.7" style="fill:#000;fill-opacity:1;stroke:none;stroke-opacity:1" transform="matrix(1.0253 0 0 1.0253 -10.3 -12)"/><path d="m274.6 417.7 2.5-23.6c.2-101.6-81-93.7-175.6-125.3-31.9-10.1-38.3-19-43-38.7 5.1-37.3 39-46.5 70.6-48.4 42.1-1.4 75.2 19.7 73.8 63.8h64.3c6.8-87-64.9-114.9-137.6-121-69.5 6.1-78.3 10.3-121 54L.9 206.7v46.8l7.9 28.2c43 45.8 105.8 53.6 164.4 68.2 38.3 13.4 52.3 29.2 37.1 67.8h64.4" style="fill:url(#b);stroke-width:4;stroke-linecap:round"/><path d="M52.5 417.7c-3.2-15.2-6.6-29.9-6.1-45.3H.8v45.3h51.7" style="fill:url(#c);stroke-width:4;stroke-linecap:round"/><path d="M417.7 240.3v32.2s-1.5 1.1-2.1 1.8c-8.5 10-11.8 23.9-21 33.2-1.7 1.9-3.8 5-6.3 4.3-11.7-3.3-25.6-10.2-37.6-15.5-2.3-1-1.5-5-1.5-7.5.1-13 7.6-25.3 8.6-38.3.2-2.7.6-5.7-.6-8.3-2.3-5-6.7-9.4-11.8-11.7-2.5-1.1-5.5-.7-8.2-.5-13 1-25.2 8.5-38.3 8.7-2.5 0-6.4.8-7.5-1.5-4.8-10.4-12-26-15.6-37.5-.8-2.5 2.4-4.6 4.2-6.4 9.4-9.2 23.2-12.5 33.1-21 2.1-1.8 4.5-3.7 5.5-6.3 2-5.1 2-11.4 0-16.6-1-2.5-3.4-4.4-5.5-6.2-10-8.4-23.8-11.8-33.2-20.9-1.8-1.7-5-3.9-4.3-6.3a252 252 0 0 1 15.5-37.6c1.2-2.3 5-1.6 7.5-1.5 13.1.1 25.3 7.5 38.3 8.5 2.8.2 5.8.6 8.3-.5 5-2.3 9.4-6.7 11.7-11.8 1.1-2.5.7-5.5.5-8.3-1-13-8.5-25.1-8.7-38.2 0-2.6-.8-6.5 1.5-7.5 10.4-4.6 24.3-12.3 37.6-15.7 2.4-.6 4.5 2.5 6.3 4.3 9.2 9.3 12.5 23.2 21 33.1a22 22 0 0 0 2.6 2.2v31.8h-4.4c-43.3 16.3-62 34.7-68 82.8 1.4 44 31.7 67.6 68.3 82.7h4" style="fill:url(#d);stroke-width:4;stroke-linecap:round"/><path d="M417.7 177.7v24.6c-11.1.4-33.3-20.4-33.9-45.1.2-25.5 21-45 33.9-44.4v24.6l-1 .4c-5.7 2.5-10 7.2-10.1 19.8 0 10 3.5 15 10.1 19.7l1 .4" style="fill:url(#e);stroke-width:4;stroke-linecap:round"/><path d="M.2 418.2h418V.2H.2v418zM19.8 17.8h380.9v382.9h-383v-383h2.1z" style="display:inline;fill:#919191;fill-opacity:.850895;stroke:none;stroke-width:1.01417;stroke-opacity:1"/></svg>