<?xml version="1.0" encoding="UTF-8" standalone="no"?>
<!-- Generator: Blender, SVG Export for Grease Pencil - v1.0 -->

<svg
   version="1.0"
   x="0px"
   y="0px"
   width="737.62689"
   height="687.039"
   viewBox="0 0 737.62689 687.039"
   id="svg4"
   sodipodi:docname="batch.svg"
   inkscape:version="1.3.2 (091e20e, 2023-11-25, custom)"
   xmlns:inkscape="http://www.inkscape.org/namespaces/inkscape"
   xmlns:sodipodi="http://sodipodi.sourceforge.net/DTD/sodipodi-0.dtd"
   xmlns:xlink="http://www.w3.org/1999/xlink"
   xmlns="http://www.w3.org/2000/svg"
   xmlns:svg="http://www.w3.org/2000/svg">
  <defs
     id="defs4">
    <linearGradient
       id="linearGradient10"
       inkscape:collect="always">
      <stop
         style="stop-color:#c3cdd2;stop-opacity:1;"
         offset="0"
         id="stop10" />
      <stop
         style="stop-color:#b3bdc2;stop-opacity:1;"
         offset="1"
         id="stop11" />
    </linearGradient>
    <linearGradient
       id="linearGradient4"
       inkscape:collect="always">
      <stop
         style="stop-color:#d0dae0;stop-opacity:1;"
         offset="0"
         id="stop4" />
      <stop
         style="stop-color:#c7cfd5;stop-opacity:1;"
         offset="1"
         id="stop5" />
    </linearGradient>
    <linearGradient
       inkscape:collect="always"
       xlink:href="#linearGradient4"
       id="linearGradient5"
       x1="110.42121"
       y1="61.635262"
       x2="382.74588"
       y2="432.80252"
       gradientUnits="userSpaceOnUse"
       gradientTransform="translate(-7.2500208,-7.2500229)" />
    <linearGradient
       inkscape:collect="always"
       xlink:href="#linearGradient10"
       id="linearGradient11"
       x1="449.63525"
       y1="411.31036"
       x2="688.35742"
       y2="628.10577"
       gradientUnits="userSpaceOnUse"
       gradientTransform="translate(-7.2500208,-7.2500229)" />
  </defs>
  <sodipodi:namedview
     id="namedview4"
     pagecolor="#ffffff"
     bordercolor="#000000"
     borderopacity="0.25"
     inkscape:showpageshadow="2"
     inkscape:pageopacity="0.0"
     inkscape:pagecheckerboard="0"
     inkscape:deskcolor="#d1d1d1"
     inkscape:zoom="0.59272468"
     inkscape:cx="64.954272"
     inkscape:cy="171.24308"
     inkscape:window-width="1920"
     inkscape:window-height="1027"
     inkscape:window-x="1912"
     inkscape:window-y="-8"
     inkscape:window-maximized="1"
     inkscape:current-layer="svg4" />
  <path
     id="polygon1"
     style="fill:url(#linearGradient5);fill-opacity:1;stroke:#959b9f;stroke-width:5.5;stroke-linecap:round;stroke-linejoin:round;stroke-dasharray:none;stroke-opacity:1"
     d="m 232.98436,2.7499771 -34.76563,4.150391 -11.1582,60.9824209 -23.48633,9.394532 -49.11719,-37.013672 -28.103515,20.896484 20.835935,58.123047 -15.734373,19.82618 -61.183594,-7.33399 -13.990234,32.10742 47.070312,39.69727 -3.816406,25.01953 -56.7851558,24.43555 3.832031,34.80859 60.5546878,10.63867 9.099609,23.5918 -37.060547,49.82617 20.632813,28.28711 57.677737,-21.28711 19.58789,15.93945 -7.1875,62.06641 31.97461,14.29492 39.14844,-47.55273 24.88671,4.11523 25.08399,57.8711 34.9668,-3.46094 9.76171,-61.04492 23.74414,-8.70899 51.73633,37.91992 29.17383,-20.64453 -22.12305,-57.58008 18.10938,-20.22851 63.33984,5.18164 14.35938,-33.76758 -48.2168,-43.24219 2.72266,-25.66601 57.4707,-22.96875 -4.67383,-35.11914 -62.6289,-11.71875 -9.70704,-23.30274 37.8418,-48.77929 -21.2168,-27.933601 -59.21874,21.037111 -19.95508,-15.441407 7.99609,-61.019532 -32.22851,-13.6875 -40.41602,47.464844 -25.02148,-3.501953 z m 8.08593,142.6855529 a 98.696754,98.696754 0 0 1 98.69727,98.69531 98.696754,98.696754 0 0 1 -98.69727,98.69726 98.696754,98.696754 0 0 1 -98.69726,-98.69726 98.696754,98.696754 0 0 1 98.69726,-98.69531 z"
     inkscape:label="big" />
  <path
     id="polygon1-8"
     style="display:inline;fill:none;fill-opacity:1;stroke:#fdfdfe;stroke-width:5.5;stroke-linecap:round;stroke-linejoin:round;stroke-dasharray:none;stroke-opacity:1"
     inkscape:label="big_lines"
     d="m 207.83396,15.511696 c -0.61319,0.457318 -1.54314,0.64398 -1.68138,1.507126 -1.32008,6.878052 -2.52824,13.788868 -3.8053,20.679517 -1.97185,10.759366 -3.92878,21.523908 -5.97658,32.2676 -1.19205,3.80869 -4.4664,6.785725 -8.27415,7.873821 -7.34175,2.899115 -14.63474,5.933315 -22.03041,8.688425 -3.80268,0.865079 -7.94512,-0.341711 -10.78645,-2.988396 -13.34063,-10.05038 -26.68126,-20.10076 -40.0219,-30.15114 -0.75832,-0.09368 -1.55936,-0.604892 -2.25358,-0.07212 -3.79992,2.727879 -7.52549,5.582337 -11.29682,8.358894 -0.8735,0.684937 -1.834071,1.293806 -2.654211,2.025362 -0.3012,0.669873 -0.96492,1.271566 -0.65958,2.055509 1.941361,5.6134 4.006701,11.196626 5.995731,16.798425 4.01752,11.209658 8.04861,22.416541 11.99027,33.652141 0.87776,3.92861 -0.49932,8.17983 -3.29534,11.03158 -4.9243,6.15065 -9.72838,12.40315 -14.783721,18.44551 -2.91181,2.70442 -7.192032,3.65595 -11.030388,2.7805 -16.560109,-1.98555 -33.120219,-3.9711 -49.680328,-5.95666 -0.703302,0.30027 -1.651721,0.26231 -1.987437,1.06981 -2.239387,4.95895 -4.362282,9.98425 -6.55688,14.9687 -0.514734,0.75907 -0.349961,1.65392 -0.348261,2.51618 0.895681,1.22959 2.243599,2.02707 3.346284,3.05887 12.606862,10.64359 25.251679,21.24534 37.792015,31.96564 2.764714,2.98945 3.687781,7.42097 2.658881,11.32431 -1.223488,7.72776 -2.310918,15.52863 -3.635071,23.19024 -1.157546,3.77389 -4.322376,6.76667 -8.06458,7.93841 -15.429645,6.63772 -30.859291,13.27544 -46.288936,19.91315 -0.458017,0.61207 -1.296812,1.05445 -1.183581,1.92108 0.563204,5.71927 1.250432,11.43799 1.861316,17.15705 0.451762,0.61656 0.627932,1.55199 1.492978,1.69035 4.331303,0.8426 8.704859,1.53944 13.052413,2.32598 13.11486,2.30668 26.230299,4.58317 39.331263,6.98239 3.862478,1.19635 6.902777,4.5181 7.946373,8.40125 2.809226,7.38252 5.768004,14.71244 8.42699,22.14927 0.835961,3.8428 -0.464564,7.96905 -3.10962,10.83389 -10.067632,13.5344 -20.135265,27.0688 -30.202897,40.6032 -0.08982,0.75913 -0.593033,1.56175 -0.06256,2.25562 3.329472,4.66885 6.759058,9.27953 10.127013,13.92602 0.698434,0.30921 1.316929,1.03276 2.135307,0.72029 3.578527,-1.22593 7.116782,-2.61437 10.67981,-3.90284 13.06877,-4.81961 26.127957,-9.67048 39.227547,-14.40282 3.96393,-0.91246 8.2837,0.4648 11.13645,3.32819 6.09458,5.00074 12.29204,9.88288 18.27923,15.01025 2.63051,2.91114 3.56282,7.12877 2.71952,10.92633 -1.97376,16.88572 -3.93747,33.77257 -5.89271,50.66044 0.3017,0.70276 0.26758,1.64908 1.07299,1.9865 5.20497,2.38959 10.46327,4.68677 15.68873,7.04085 0.75984,-0.0788 1.65866,0.24555 2.21012,-0.43783 2.14355,-2.4483 4.15845,-5.02926 6.25244,-7.52868 9.20192,-11.16612 18.37361,-22.36081 27.64676,-33.46581 2.92697,-2.76334 7.29628,-3.76214 11.16807,-2.74786 7.87336,1.34368 15.78491,2.49074 23.61965,4.04354 3.69659,1.2199 6.52768,4.42054 7.69149,8.08779 6.82304,15.78497 13.65624,31.56554 20.49936,47.34182 0.61354,0.4575 1.05863,1.29255 1.92474,1.18399 5.72027,-0.51331 11.44082,-1.12223 17.1612,-1.67228 0.61951,-0.44562 1.56287,-0.60909 1.69651,-1.47803 0.48956,-2.34352 0.77354,-4.74464 1.18439,-7.11021 2.44371,-15.24478 4.83531,-30.5004 7.38681,-45.72608 1.08399,-3.77506 4.26775,-6.87781 8.10745,-7.76497 7.60679,-2.74641 15.15295,-5.67315 22.81707,-8.25252 3.81903,-0.74312 7.84343,0.62182 10.69557,3.2021 14.15548,10.39311 28.31677,20.77635 42.48134,31.15706 0.76018,0.0857 1.56359,0.57721 2.25888,0.0537 4.87613,-3.40302 9.7166,-6.86878 14.57901,-10.29594 0.31836,-0.69366 1.06099,-1.30217 0.74313,-2.12351 -0.67214,-2.09303 -1.56861,-4.12879 -2.32685,-6.19984 -5.5785,-14.53263 -11.19967,-29.05077 -16.68058,-43.61941 -0.96238,-3.88624 0.28308,-8.28727 3.33297,-10.93056 5.86392,-6.49871 11.60468,-13.11383 17.6087,-19.48252 2.88979,-2.41903 6.90981,-3.0722 10.5454,-2.39739 17.22783,1.40863 34.45566,2.81726 51.68348,4.22589 0.69243,-0.3254 1.63493,-0.32726 1.95211,-1.13814 2.58372,-5.97297 5.10104,-11.98232 7.65922,-17.96929 -0.0901,-0.76076 0.20367,-1.6551 -0.46187,-2.21561 -14.06803,-12.67203 -28.22421,-25.25815 -42.24151,-37.98759 -2.55056,-2.88795 -3.42468,-7.02188 -2.60829,-10.74975 0.75297,-6.81958 1.37846,-13.65024 2.20474,-20.37152 0.30236,-1.99103 0.28244,-4.10156 1.32346,-5.89286 1.39121,-2.78045 3.99063,-4.90312 6.99458,-5.70454 15.64838,-6.25325 31.29676,-12.50651 46.94514,-18.75977 0.47083,-0.6003 1.33342,-1.01935 1.21651,-1.8916 -0.1563,-2.12668 -0.5479,-4.2499 -0.79455,-6.37525 -0.49222,-3.69686 -0.98443,-7.39371 -1.47665,-11.09057 -0.46455,-0.6081 -0.66469,-1.53101 -1.52581,-1.66693 -14.57936,-2.77771 -29.17425,-5.44932 -43.7533,-8.22777 -3.72888,-0.7363 -7.48163,-1.37768 -11.1955,-2.17366 -3.73838,-1.27552 -6.59271,-4.55192 -7.69424,-8.30344 -2.96663,-7.30904 -6.19041,-14.51789 -8.95608,-21.90557 -0.87561,-3.6573 0.22303,-7.71797 2.87568,-10.39539 10.32332,-13.30895 20.64664,-26.6179 30.96995,-39.92685 0.10295,-0.75664 0.63307,-1.55394 0.0954,-2.24961 -1.48039,-2.12683 -3.13367,-4.15089 -4.68019,-6.23841 -1.9125,-2.51831 -3.82501,-5.036633 -5.73751,-7.554953 -0.70384,-0.29846 -1.33381,-1.00438 -2.14851,-0.6914 -8.88753,3.10118 -17.75,6.304513 -26.62901,9.440973 -8.32475,2.94759 -16.64727,5.90886 -24.99033,8.79996 -3.89021,0.88193 -8.09461,-0.47653 -10.95181,-3.20649 -6.18519,-4.83177 -12.46942,-9.54377 -18.55478,-14.498933 -2.67191,-2.84249 -3.74448,-7.042045 -2.84931,-10.82998 2.1682,-16.575021 4.33641,-33.150043 6.50461,-49.725064 -0.29248,-0.705622 -0.23875,-1.659023 -1.05047,-1.993038 -3.10862,-1.423955 -6.30477,-2.692479 -9.44709,-4.056576 -2.18001,-0.895756 -4.33888,-1.90277 -6.5321,-2.729039 -0.7303,0.07875 -1.58291,-0.186468 -2.10848,0.468054 -5.12277,5.927759 -10.16991,11.934847 -15.26361,17.893105 -6.66707,7.810266 -13.3036,15.651965 -20.03501,23.403911 -2.97976,2.666381 -7.30465,3.546044 -11.14857,2.58542 -7.70704,-1.123611 -15.48566,-2.108565 -23.12756,-3.335509 -3.85781,-1.133227 -6.93022,-4.373567 -8.07389,-8.20157 -6.43696,-15.323435 -12.87392,-30.64687 -19.31088,-45.970305 -0.60816,-0.462061 -1.04297,-1.308481 -1.91126,-1.193789 -3.96253,0.386 -7.92365,0.933398 -11.88563,1.381493 -1.76106,0.210219 -3.52212,0.420437 -5.28319,0.630656 z M 240.90232,135.1699 c 9.93439,0.0241 20.04603,1.48858 29.48243,4.16406 15.50983,4.37413 30.00724,12.27056 42.08869,22.93457 2.28156,2.00106 4.47012,4.10644 6.57732,6.29004 0.50242,0.53097 1.22391,1.28313 1.79407,1.91555 8.24121,8.98639 14.97491,19.36161 19.75281,30.5825 0.41825,1.00334 0.94361,2.24919 1.37166,3.35818 7.8155,20.04056 9.56161,42.42513 4.75903,63.40602 -4.69316,20.85749 -15.68298,40.26502 -31.25024,54.93083 -14.0373,13.31199 -31.67408,22.79692 -50.54707,27.07473 -4.30675,0.97877 -8.67283,1.69334 -13.06581,2.14821 -0.87017,0.0851 -2.02808,0.19623 -3.01091,0.26401 -20.089,1.53869 -40.56977,-2.69073 -58.41544,-12.03968 -5.05223,-2.62534 -9.88854,-5.66231 -14.46818,-9.04464 -0.60409,-0.46372 -1.46325,-1.09567 -2.15118,-1.64322 -18.26445,-14.23657 -31.79616,-34.45719 -37.87421,-56.81186 -0.34447,-1.26295 -0.73428,-2.75719 -1.04743,-4.12404 -1.38821,-5.92335 -2.26344,-11.96471 -2.64397,-18.03612 -0.0218,-0.52897 -0.082,-1.4965 -0.10474,-2.03776 -0.13274,-3.03148 -0.12499,-6.26369 -0.0105,-9.17318 0.67816,-17.10053 5.5484,-33.99382 13.95899,-48.89062 0.27928,-0.47324 0.76519,-1.33394 1.04625,-1.81212 8.11083,-13.80229 19.33749,-25.74953 32.60736,-34.70452 3.33531,-2.26358 6.80284,-4.32828 10.36592,-6.21188 0.60418,-0.31064 1.47584,-0.77345 2.19862,-1.12507 12.46405,-6.23316 26.14106,-10.00547 40.03652,-11.05671 2.84406,-0.22881 5.69723,-0.33183 8.55001,-0.35728 z" />
  <path
     id="polygon3"
     style="display:inline;fill:url(#linearGradient11);stroke:#959b9f;stroke-width:5.5;stroke-linecap:round;stroke-linejoin:round;stroke-dasharray:none;stroke-opacity:1"
     d="m 573.60936,336.41014 -34.09376,1.67187 -16.64453,62.11914 -18.31836,8.90625 -56.65039,-25.80664 -24.67382,26.36524 31.28125,53.61132 -7.23243,18.85352 -60.34765,21.54687 1.46875,34.07032 61.40234,15.65234 8.43945,17.96094 -27.15625,56.375 25.49414,22.96679 54.68946,-31.51562 18.86328,6.67969 20.97852,58.42187 34.46484,-1.6914 16.48633,-60.36328 18.21679,-8.56836 56.45118,26.13867 23.36523,-25.46875 -30.97656,-53.88672 6.96875,-18.8711 58.79101,-21.70507 -1.28515,-34.45703 -60.08008,-15.72852 -8.28125,-18.18164 26.76172,-57.26172 -25.07031,-23.36328 -53.93165,32.10547 -18.64062,-6.78321 z M 562.0449,456.28709 a 55.580952,55.580952 0 0 1 55.58203,55.58008 55.580952,55.580952 0 0 1 -55.58203,55.58203 55.580952,55.580952 0 0 1 -55.58008,-55.58203 55.580952,55.580952 0 0 1 55.58008,-55.58008 z"
     inkscape:label="small" />
  <path
     id="polygon3-1"
     style="display:inline;fill:none;stroke:#ffffff;stroke-width:5.5;stroke-linecap:round;stroke-linejoin:round;stroke-dasharray:none;stroke-opacity:1"
     inkscape:label="small_lines"
     d="m 564.10154,346.36912 c -5.19693,0.25073 -10.39988,0.46102 -15.59179,0.7793 -1.32124,0.21278 -2.09552,1.48544 -2.27344,2.7207 -4.8165,17.73748 -9.44919,35.52746 -14.39287,53.22865 -1.43413,3.52059 -4.7639,5.85773 -8.2168,7.16036 -5.53057,2.61344 -10.92831,5.52927 -16.60273,7.8241 -3.54196,0.92106 -7.2596,-0.18033 -10.36023,-1.93275 -15.06533,-6.8518 -30.11411,-13.74431 -45.1898,-20.57067 -1.28714,-0.50292 -2.6446,0.25811 -3.40359,1.29812 -3.88278,4.16572 -7.82641,8.28085 -11.65874,12.48983 -0.84271,1.09544 -0.47104,2.60375 0.30816,3.6205 8.77434,15.17096 17.70543,30.25407 26.38857,45.47632 1.53354,3.56393 0.85293,7.69705 -0.8475,11.07303 -2.24303,5.69031 -4.21761,11.49949 -6.77775,17.0563 -1.91798,3.06617 -5.32937,4.79622 -8.73,5.69502 -16.04771,5.7359 -32.10452,11.44953 -48.14655,17.19933 -1.3082,0.49983 -1.84014,2.01428 -1.59103,3.31577 0.19606,4.97827 0.37647,9.9609 0.65263,14.93357 0.18491,1.30928 1.41935,2.14421 2.66314,2.29019 17.43778,4.50795 34.92132,8.84843 52.33162,13.45639 3.62341,1.40751 6.07697,4.79817 7.34027,8.36137 2.48693,5.46265 5.29966,10.79272 7.43595,16.40509 0.82227,3.52896 -0.31237,7.19862 -2.13523,10.22741 -7.17399,14.91993 -14.3838,29.8242 -21.53539,44.75392 -0.53067,1.26531 0.20283,2.64319 1.25498,3.37839 3.7658,3.4235 7.52624,6.85929 11.35929,10.20449 1.09998,0.8134 2.58009,0.42075 3.58602,-0.34707 15.58256,-8.90569 31.07179,-17.97937 46.71162,-26.7822 3.52643,-1.50905 7.57267,-0.79666 10.95319,0.75989 5.64103,2.06924 11.4046,3.84085 16.91855,6.23304 3.12258,1.86225 4.9694,5.25386 5.85533,8.68648 5.5524,15.44057 11.07931,30.89181 16.64763,46.32571 0.50758,1.30047 2.03635,1.83091 3.33165,1.56809 5.16642,-0.21221 10.33576,-0.45598 15.49648,-0.7592 1.33141,-0.19387 2.13313,-1.47108 2.31016,-2.71541 4.70055,-17.02542 9.26735,-34.08788 14.06055,-51.08789 1.21787,-3.57935 4.49353,-6.00578 7.899,-7.33971 5.61171,-2.47145 11.03138,-5.38113 16.74498,-7.61648 3.14155,-0.99612 6.56049,-0.13535 9.43219,1.28822 3.2532,1.67447 6.62981,3.10123 9.93337,4.67464 12.01295,5.55285 24.01467,11.13411 36.03463,16.66923 1.30937,0.55994 2.77279,-0.18269 3.51247,-1.30285 3.50561,-3.76214 6.98823,-7.54993 10.43034,-11.36862 0.87032,-1.07847 0.57965,-2.6444 -0.2448,-3.65872 -8.71092,-15.351 -17.64014,-30.5571 -26.25749,-45.96018 -1.46645,-3.54471 -0.7364,-7.58956 0.87837,-10.9498 1.61018,-4.25945 3.0847,-8.56927 4.74826,-12.80877 0.39408,-0.95938 0.86653,-2.17536 1.32724,-3.21861 1.02568,-2.57073 3.39559,-4.34732 5.81688,-5.52421 1.85377,-0.8676 3.8613,-1.32789 5.74825,-2.11746 14.76814,-5.45913 29.54743,-10.89234 44.30859,-16.36767 1.3002,-0.5224 1.81539,-2.03559 1.57676,-3.33879 -0.19891,-5.13865 -0.32483,-10.28441 -0.59358,-15.41775 -0.18859,-1.34186 -1.48161,-2.18843 -2.75249,-2.32216 -16.80937,-4.48553 -33.65654,-8.7842 -50.45258,-13.31752 -3.83487,-1.24164 -6.42614,-4.78811 -7.69782,-8.46958 -2.44713,-5.58115 -5.24133,-11.02349 -7.35636,-16.74201 -0.78831,-3.50619 0.38095,-7.11665 2.11879,-10.15207 7.11238,-15.24052 14.26483,-30.46426 21.35217,-45.71527 0.51266,-1.30213 -0.25895,-2.67928 -1.32236,-3.43752 -3.66797,-3.41628 -7.29791,-6.8767 -11.00903,-10.24415 -1.08702,-0.84007 -2.58288,-0.47029 -3.59186,0.30688 -15.19745,8.98668 -30.31512,18.08731 -45.54681,26.99195 -3.32743,1.66598 -7.31996,1.17747 -10.62871,-0.27953 -4.21141,-1.60318 -8.48016,-3.05153 -12.69356,-4.65016 -1.36801,-0.52998 -2.94894,-1.14694 -4.38331,-1.7484 -3.34015,-1.78117 -5.31016,-5.34766 -6.18853,-8.92029 -5.5293,-15.90838 -11.02418,-31.83005 -16.57498,-47.73012 -0.44508,-1.05621 -1.60427,-1.63476 -2.72037,-1.53869 z m -1.9707,99.41211 c 18.67807,0.11036 37.19362,8.58107 49.28364,22.85683 10.38244,12.05148 16.17451,27.97449 15.82738,43.88919 -0.0717,4.5394 -0.63413,9.06897 -1.64618,13.49421 -0.0885,0.36748 -0.26022,1.10406 -0.39302,1.61521 -2.82267,11.09564 -8.6112,21.41874 -16.65093,29.57526 -1.53551,1.57453 -3.19477,3.09193 -4.80914,4.44851 -0.9265,0.77113 -2.02599,1.63454 -2.89691,2.2829 -0.80819,0.59499 -1.45424,1.06536 -2.30391,1.64022 -11.20193,7.67382 -24.84965,11.68068 -38.42205,11.29925 -11.02777,-0.24365 -21.97452,-3.33395 -31.48148,-8.9332 -11.97179,-6.97561 -21.68017,-17.81397 -27.10575,-30.58058 -3.17574,-7.36838 -4.99678,-15.31786 -5.34696,-23.33389 -0.0185,-0.51399 -0.0526,-1.38455 -0.0528,-2.0359 -0.0187,-1.35983 0.0109,-2.806 0.0802,-4.04375 0.54093,-10.55078 3.71712,-20.94053 9.10149,-30.02582 0.17662,-0.29713 0.56811,-0.93866 0.82813,-1.36719 5.35635,-8.60515 12.74062,-15.93551 21.42614,-21.16819 4.12018,-2.50672 8.51896,-4.55092 13.08167,-6.11111 0.61417,-0.20014 1.53851,-0.50751 2.2771,-0.72849 3.3503,-1.0103 6.78233,-1.74742 10.25024,-2.21487 0.47934,-0.0604 1.31463,-0.16647 1.9326,-0.22451 2.33142,-0.24538 4.67655,-0.34839 7.02053,-0.33408 z" />
</svg>
