<svg width="451.66" height="559.38" viewBox="0 0 1663.8 2060.6" id="Layer_1" version="1.1" xmlns="http://www.w3.org/2000/svg"><style id="style1">.st19{fill:#015051}.st20{fill:#016b6b}.st21{fill:#002122}</style><linearGradient id="SVGID_1_" gradientUnits="userSpaceOnUse" x1="651.76" y1="1581.05" x2="2295.7" y2="1581.05" gradientTransform="matrix(1 0 0 -1 0 3000)"><stop offset=".5" stop-color="#eaeaea" id="stop28"/><stop offset=".5" stop-color="#ececec" id="stop29"/><stop offset=".5" stop-color="#f3f3f3" id="stop30"/><stop offset=".5" stop-color="#fefefe" id="stop31"/><stop offset=".5" stop-color="#fff" id="stop32"/></linearGradient><linearGradient id="SVGID_2_" gradientUnits="userSpaceOnUse" x1="654" y1="1585.72" x2="2297" y2="1585.72" gradientTransform="matrix(1 0 0 -1 0 3000)"><stop offset=".5" stop-color="#eaeaea" id="stop34"/><stop offset=".5" stop-color="#ececec" id="stop35"/><stop offset=".5" stop-color="#f3f3f3" id="stop36"/><stop offset=".5" stop-color="#fefefe" id="stop37"/><stop offset=".5" stop-color="#fff" id="stop38"/></linearGradient><path d="m706.5 674.3-2.8-1V414.5l2.9-2.6 1-1.6 956.2 619.8-957.4-355.5zm0 712-.1-.3 957.4-355.5-956.3 619.8-.9-1.4h-2.9v-261.6z" id="path40" style="display:inline;fill:#001717"/><path class="st19" d="m1147.4 0 516.4 1030.1-956.2-619.8-1.2-.8.2-.5L1144.3 2.9zm516.4 1030.5-516.4 1030.1-2.9-2.8-437.9-406.2-.2-.5 1.1-.8z" id="path41" style="display:inline"/><path class="st20" d="m706.4 409.5 1.2.8-1 1.6H6.3L0 409.5l174.9-407 .9.4h968.5L706.6 409Zm.2 2.4-2.9 2.6v-2.6zm0 1237 .9 1.4-1.1.8.2.5 437.9 406.2H175.8l-.9.4L0 1651.1l5.9-2.2h694.7l3.1 2.9v-2.9z" id="path42" style="display:inline"/><path class="st19" d="m706.4 674.6 957.4 355.5v.4L706.4 1386l.1.3-2.8 1v-714l2.8 1z" id="path43" style="display:inline"/><path class="st20" d="M703.7 1648.9v2.9l-3.1-2.9z" id="path44" style="display:inline"/><path class="st21" d="M703.7 1387.3v261.6h-3.1l-199.2-185.8Z" id="path45" style="display:inline"/><path class="st20" d="M703.7 1386.4v.9l-202.3 75.8-459.3-432.2v-1.2l459.3-432.2 202.3 75.8v357.8z" id="path46" style="display:inline"/><path class="st21" d="M703.7 414.5v258.8l-202.3-75.8Z" id="path47" style="display:inline"/><path d="M703.7 411.9v2.6l-202.3 183L6.3 411.9Zm-3.1 1237H5.9l495.5-185.8z" id="path48" style="display:inline;fill:#013535"/></svg>