<svg viewBox="0 0 240.5 330.9" style="enable-background:new 0 0 240.52 330.92" xml:space="preserve" xmlns="http://www.w3.org/2000/svg"><path d="M11.8 111.7a163 163 0 0 0-10.4-4.4c-.6-4.4-1-9-1.3-13.5a67 67 0 0 1 .4-11l10.1 1.9a108 108 0 0 0 1.2 27zm40 23.6a234.8 234.8 0 0 0-28.2-17.8A136.7 136.7 0 0 1 21.8 87c7.7 1.7 16.9 3.9 26.9 6.7-.7 13.1.6 27.2 3 41.6zm105 5.4-.4 3.5a151.4 151.4 0 0 0-51.5 43.2 356.7 356.7 0 0 0-17.8-20.8 492.6 492.6 0 0 1-5.7-62.6 337.3 337.3 0 0 1 75.3 36.7z" style="enable-background:new 0 0 240.52 330.92;fill:#2ac64b"/><path d="M14.9 63.8a91 91 0 0 0-4.3 20.9L.5 82.8a63 63 0 0 1 1.1-6.7 134 134 0 0 1 13.3-12.3z" style="enable-background:new 0 0 240.52 330.92;fill:#008a5a"/><path d="M63.5 36.4a132.3 132.3 0 0 0-14.7 55.9l-.1 1.4c-10-2.8-19.1-5-26.9-6.7l.1-1c1-12.7 4.7-24.3 10.4-34.7a165 165 0 0 1 31.2-15z" style="enable-background:new 0 0 240.52 330.92;fill:#009550"/><path d="M156.7 140.7A333.4 333.4 0 0 0 81.4 104a230 230 0 0 1 6.7-65A265 265 0 0 0 158 69.4c2.1 21.5 1.5 45.9-1.2 71.3z" style="enable-background:new 0 0 240.52 330.92;fill:#00983e"/><path d="M240.4 93.8c-.6 10-2 20-4.2 29.8l-9.7.6a191 191 0 0 0 3.4-23.4 91.8 91.8 0 0 0-16.5-61.3l8.3 2.4c11.2 14.3 19.9 32.6 18.7 52zm-25 31.7c-7.8 1.1-16.6 2.9-26 5.6 2.2-13.5 3.1-26.6 2.4-38.8a127 127 0 0 0-18.2-61.7c8.4 1.4 16.3 3 23.6 4.7 11.7 13.8 20 31 21.4 50.7 1 12.6-.4 26-3.2 39.5z" style="enable-background:new 0 0 240.52 330.92;fill:#009a37"/><path d="M157.9 69.4A268 268 0 0 1 88.1 39c1-3.6 2.2-6.9 3.5-9.9 3.6-.6 7.3-1 11.2-1.5a249 249 0 0 1 45.4-.2 87 87 0 0 1 4.6 13c2.4 8.9 4 18.6 5 29z" style="enable-background:new 0 0 240.52 330.92;fill:#00863f"/><path d="M52.6 14.4c-.8.5-27 16.6-37.7 49.4C9 68.5 4.7 72.8 1.7 76c7-30.9 35.5-56 51-61.7zm16.6 12.8a94 94 0 0 0-5.7 9.2c-12 4.2-22.4 9.5-31.2 15A101.8 101.8 0 0 1 59 20.1l10.1 7z" style="enable-background:new 0 0 240.52 330.92;fill:#06cbf6"/><path d="M221.7 42c-2.6-.9-5.4-1.7-8.3-2.5a95 95 0 0 0-25.5-25c9 3.2 22.7 13.3 33.8 27.4zm-24.5-6.7c-7.3-1.7-15.2-3.3-23.6-4.7A74.2 74.2 0 0 0 138.8 0c20.2 4 42.5 16.5 58.4 35.3zm-49-7.9a248.2 248.2 0 0 0-56.6 1.8C102.4 3.5 120 0 120 0h.5s16.8 3.5 27.7 27.4zM101.7 0c-.9.3-18 6.4-32.5 27.2l-10.2-7A104.3 104.3 0 0 1 101.8 0Z" style="enable-background:new 0 0 240.52 330.92;display:inline;fill:url(#a)"/><path d="M120.3 331h18l6.7-29.3H95.5l6.7 29.2z" style="enable-background:new 0 0 240.52 330.92;display:inline;fill:#666565"/><linearGradient id="a" gradientUnits="userSpaceOnUse" x1="-44783.7" y1="21855.8" x2="-44925.5" y2="22206.3" gradientTransform="matrix(.253 0 0 -.253 11407.8 5762)"><stop offset="0" style="stop-color:#cb1918"/><stop offset=".4" style="stop-color:#a2183d"/><stop offset=".7" style="stop-color:#902869"/><stop offset="1" style="stop-color:#73358a"/></linearGradient><path d="M52 200.2c3.4 7.2 6.8 13.6 9.6 19 5 9.2 9.6 17 14.4 24 1.4-4.8 3.1-10 5.3-15.2-3.8-8.6-7.5-17.8-11-27.4a378.4 378.4 0 0 1-18.5-65.3 234.6 234.6 0 0 0-28.2-17.8c4.8 29.6 17.4 60 28.4 82.7z" style="fill:url(#a)"/><linearGradient id="b" gradientUnits="userSpaceOnUse" x1="-44855.4" y1="21826.8" x2="-44997.1" y2="22177.4" gradientTransform="matrix(.253 0 0 -.253 11407.8 5762)"><stop offset="0" style="stop-color:#cb1918"/><stop offset=".4" style="stop-color:#a2183d"/><stop offset=".7" style="stop-color:#902869"/><stop offset="1" style="stop-color:#73358a"/></linearGradient><path d="m35.6 199.8 6.1 10.4c10 16.3 21.4 31.4 31.7 43.6l1-4.6A495.5 495.5 0 0 1 43.1 200a263.9 263.9 0 0 1-31.3-88.3c-4-1.9-7.5-3.3-10.4-4.3 4.1 30.4 15.8 60.3 34.2 92.4z" style="fill:url(#b)"/><linearGradient id="c" gradientUnits="userSpaceOnUse" x1="-44658.6" y1="21906.4" x2="-44800.3" y2="22257" gradientTransform="matrix(.253 0 0 -.253 11407.8 5762)"><stop offset="0" style="stop-color:#cb1918"/><stop offset=".4" style="stop-color:#a2183d"/><stop offset=".7" style="stop-color:#902869"/><stop offset="1" style="stop-color:#73358a"/></linearGradient><path d="M88.9 178c1.2 7.6 2.8 15.4 4.4 23.2l.5 2.2c3.2-5.3 7-10.6 11.1-16a362.2 362.2 0 0 0-17.8-20.8 221 221 0 0 0 1.8 11.3z" style="fill:url(#c)"/><path d="M226.5 124.2c-4.6 22.4-12.7 43-21.3 60.8l5 5.2a256.8 256.8 0 0 0 26-66.6l-9.7.6zm-37 6.9a303.9 303.9 0 0 1-7.1 32.3c5 4.5 10.6 9.7 16 15a292.3 292.3 0 0 0 17-52.9c-7.8 1.2-16.6 2.9-26 5.6z" style="fill:#97cc1a"/><linearGradient id="d" gradientUnits="userSpaceOnUse" x1="-44367.2" y1="22104.8" x2="-44572.9" y2="21880.1" gradientTransform="matrix(.253 0 0 -.253 11407.8 5762)"><stop offset="0" style="stop-color:#add816"/><stop offset="1" style="stop-color:#dbd704"/></linearGradient><path d="M116 174.5c-4 4.3-7.7 8.6-11 12.9a345 345 0 0 1 33.5 51 846.5 846.5 0 0 0 13.2-60.5c1.9-11.3 3.5-22.6 4.7-33.7a150 150 0 0 0-40.4 30.3zm89.2 10.5a383.3 383.3 0 0 1-27.5 47.4c-7.4 11.5-17.5 25-25.5 35.3l.8 2.2a400 400 0 0 0 56.3-77.8l1-2a351 351 0 0 0-5.1-5.1zm-22.8-21.6-.4 1.4a522.7 522.7 0 0 1-35.3 90l3.4 7.7a237.8 237.8 0 0 0 28.8-43.3 497 497 0 0 0 18.7-38.8l.9-2c-5.5-5.3-11-10.5-16.1-15z" style="fill:url(#d)"/><linearGradient id="e" gradientUnits="userSpaceOnUse" x1="-44522.8" y1="21673.1" x2="-44697.9" y2="21968.4" gradientTransform="matrix(.253 0 0 -.253 11407.8 5762)"><stop offset="0" style="stop-color:#e1282b"/><stop offset=".4" style="stop-color:#e3402a"/><stop offset=".7" style="stop-color:#e76226"/><stop offset="1" style="stop-color:#f19a0a"/></linearGradient><path d="M129.8 284.6c7.7-8 14.3-15 20.3-22.2l-3.4-7.5c-8 16.2-14.7 27.2-17 29.7z" style="fill:url(#e)"/><linearGradient id="f" gradientUnits="userSpaceOnUse" x1="-44511.6" y1="21679.7" x2="-44686.7" y2="21975" gradientTransform="matrix(.253 0 0 -.253 11407.8 5762)"><stop offset="0" style="stop-color:#e1282b"/><stop offset=".4" style="stop-color:#e3402a"/><stop offset=".7" style="stop-color:#e76226"/><stop offset="1" style="stop-color:#f19a0a"/></linearGradient><path d="M139.2 284.2c.4-.4 5.9-5.7 13.9-14.3l-.9-2.2c-7.1 9.3-12.5 16-13 16.5z" style="fill:url(#f)"/><linearGradient id="g" gradientUnits="userSpaceOnUse" x1="-44541.4" y1="21662.1" x2="-44716.5" y2="21957.4" gradientTransform="matrix(.253 0 0 -.253 11407.8 5762)"><stop offset="0" style="stop-color:#e1282b"/><stop offset=".4" style="stop-color:#e3402a"/><stop offset=".7" style="stop-color:#e76226"/><stop offset="1" style="stop-color:#f19a0a"/></linearGradient><path d="M93.8 203.4a969.7 969.7 0 0 0 21.5 81.6h9.9s6.3-19.8 13.3-46.6a353 353 0 0 0-33.6-51 176 176 0 0 0-11.1 16z" style="fill:url(#g)"/><linearGradient id="h" gradientUnits="userSpaceOnUse" x1="-44637.9" y1="21604.8" x2="-44813" y2="21900.1" gradientTransform="matrix(.253 0 0 -.253 11407.8 5762)"><stop offset="0" style="stop-color:#e1282b"/><stop offset=".4" style="stop-color:#e3402a"/><stop offset=".7" style="stop-color:#e76226"/><stop offset="1" style="stop-color:#f19a0a"/></linearGradient><path d="M76 243.3c10 14.7 20.4 26.5 34.7 41.3A347.3 347.3 0 0 1 81.3 228c-2.2 5.3-4 10.4-5.3 15.3z" style="fill:url(#h)"/><linearGradient id="i" gradientUnits="userSpaceOnUse" x1="-44670.3" y1="21585.6" x2="-44845.4" y2="21881" gradientTransform="matrix(.253 0 0 -.253 11407.8 5762)"><stop offset="0" style="stop-color:#e1282b"/><stop offset=".4" style="stop-color:#e3402a"/><stop offset=".7" style="stop-color:#e76226"/><stop offset="1" style="stop-color:#f19a0a"/></linearGradient><path d="M73.4 253.8a406 406 0 0 0 27.9 30.4c-.7-.8-14.2-17.5-26.9-35l-1 4.6z" style="fill:url(#i)"/></svg>