<?xml version="1.0" encoding="UTF-8" standalone="no"?>
<!-- Created with Inkscape (http://www.inkscape.org/) -->

<svg
   id="svg1725"
   sodipodi:version="0.32"
   inkscape:version="1.3.2 (091e20e, 2023-11-25, custom)"
   width="416.29599mm"
   height="410.82074mm"
   sodipodi:docname="inkscape.svg"
   inkscape:output_extension="org.inkscape.output.svg.inkscape"
   version="1.1"
   viewBox="0 0 1573.4022 1552.7088"
   xmlns:inkscape="http://www.inkscape.org/namespaces/inkscape"
   xmlns:sodipodi="http://sodipodi.sourceforge.net/DTD/sodipodi-0.dtd"
   xmlns="http://www.w3.org/2000/svg"
   xmlns:svg="http://www.w3.org/2000/svg"
   xmlns:rdf="http://www.w3.org/1999/02/22-rdf-syntax-ns#"
   xmlns:cc="http://creativecommons.org/ns#"
   xmlns:dc="http://purl.org/dc/elements/1.1/">
  <defs
     id="defs1727" />
  <sodipodi:namedview
     id="base"
     pagecolor="#ffffff"
     bordercolor="#666666"
     borderopacity="1.0"
     inkscape:pageopacity="1.0000000"
     inkscape:pageshadow="2"
     inkscape:zoom="0.29498053"
     inkscape:cx="488.16781"
     inkscape:cy="979.72568"
     inkscape:window-width="820"
     inkscape:window-height="656"
     inkscape:window-x="164"
     inkscape:window-y="96"
     inkscape:current-layer="inkscape-logo"
     inkscape:document-units="px"
     showgrid="false"
     inkscape:showpageshadow="2"
     inkscape:pagecheckerboard="0"
     inkscape:deskcolor="#d1d1d1"
     inkscape:window-maximized="0" />
  <metadata
     id="metadata1728">
    <rdf:RDF>
      <cc:Work
         rdf:about="">
        <dc:format>image/svg+xml</dc:format>
        <dc:type
           rdf:resource="http://purl.org/dc/dcmitype/StillImage" />
        <dc:title />
      </cc:Work>
    </rdf:RDF>
  </metadata>
  <g
     id="inkscape-logo"
     transform="matrix(0.94004622,0,0,0.94004614,37.19045,843.00287)">
    <path
       d="M 642.92928,-840.05791 25.060806,-207.79336 C -183.70092,50.732626 167.13285,20.65332 317.52959,95.115813 371.47926,150.26128 110.74556,190.96499 164.69522,246.15642 c 53.94966,55.14552 326.22758,106.24362 380.26923,161.3891 53.94969,55.14543 -110.42893,113.64843 -56.47927,168.79391 53.94966,55.14548 178.72834,2.8975 202.09279,130.20587 16.6494,90.97389 224.8592,39.09392 326.68753,-35.41452 C 1071.2151,615.93926 914.05737,621.13646 968.00705,565.99103 1102.1683,428.79419 1227.085,516.13474 1272.986,378.66198 1295.6604,310.73049 1075.4925,273.93617 1129.5341,218.79069 1284.7601,128.13871 1821.2672,69.12983 1566.6965,-185.44087 L 926.24548,-840.05791 c -78.32589,-75.19836 -209.03764,-76.0262 -283.3162,0 z M 1352.6457,378.66198 c 0,31.36715 231.1142,51.92593 231.1142,-7.40485 -32.9309,-95.29728 -203.7945,-88.85827 -231.1142,7.40485 z M 311.55053,545.34018 C 366.28206,592.66691 450.817,533.56604 476.15908,467.5202 423.12927,397.05914 224.62396,470.04986 311.55053,545.34018 Z M 1323.6702,443.09802 c -70.5532,63.28618 7.9107,127.49229 77.4519,86.60461 15.4996,-15.72956 -0.4139,-70.87504 -77.4519,-86.60461 z"
       id="path2313"
       inkscape:connector-curvature="0"
       style="fill:#000000;fill-opacity:1;stroke-width:4.59929" />
    <path
       d="m 495.06216,129.33452 c 16.51145,10.25637 266.25287,60.98653 327.28545,71.10496 21.15671,4.46136 6.16299,26.26199 -22.99642,40.97972 C 733.58135,258.8965 414.5746,129.33452 495.06216,129.33452 Z"
       id="path2315"
       style="fill:#ffffff;stroke-width:4.59929"
       inkscape:connector-curvature="0" />
    <path
       d="m 888.89935,-795.72076 244.45215,248.26967 c 23.1805,23.68635 22.8585,69.58722 9.8885,82.78718 l -121.3753,-97.09096 -23.87034,143.77372 -101.41422,-53.53571 -162.4009,102.61013 -53.76576,-216.30455 -87.24847,150.94868 h -133.3794 c -54.3636,0 -60.75661,-68.98934 -11.36025,-118.38567 86.28267,-93.13558 185.30535,-188.06493 239.11704,-243.07249 54.08767,-55.28345 148.32708,-53.71964 201.35695,0 z"
       id="path2317"
       style="fill:#ffffff;stroke-width:4.59929"
       inkscape:connector-curvature="0" />
  </g>
</svg>
