<?xml version="1.0" encoding="UTF-8" standalone="no"?>
<!-- Generator: Blender, SVG Export for Grease Pencil - v1.0 -->

<svg
   version="1.0"
   x="0px"
   y="0px"
   width="607.87408"
   height="87.04483"
   viewBox="0 0 607.87408 87.04483"
   id="svg33"
   sodipodi:docname="motto.svg"
   inkscape:version="1.3.2 (091e20e, 2023-11-25, custom)"
   xmlns:inkscape="http://www.inkscape.org/namespaces/inkscape"
   xmlns:sodipodi="http://sodipodi.sourceforge.net/DTD/sodipodi-0.dtd"
   xmlns="http://www.w3.org/2000/svg"
   xmlns:svg="http://www.w3.org/2000/svg">
  <defs
     id="defs33">
    <linearGradient
       id="swatch1">
      <stop
         style="stop-color:#000000;stop-opacity:1;"
         offset="0"
         id="stop1" />
    </linearGradient>
    <linearGradient
       id="linearGradient401"
       inkscape:label="name">
      <stop
         style="stop-color:#b0fa00;stop-opacity:1;"
         offset="0"
         id="stop407" />
      <stop
         style="stop-color:#90ff0b;stop-opacity:1;"
         offset="0.13235295"
         id="stop408" />
      <stop
         style="stop-color:#c2ff30;stop-opacity:1;"
         offset="0.48774511"
         id="stop433" />
      <stop
         style="stop-color:#a0ff0b;stop-opacity:1;"
         offset="0.84313726"
         id="stop409" />
      <stop
         style="stop-color:#7ef90b;stop-opacity:1;"
         offset="1"
         id="stop410" />
    </linearGradient>
    <filter
       style="color-interpolation-filters:sRGB"
       inkscape:label="Blur"
       id="filter503"
       x="-0.033349883"
       y="-0.096668549"
       width="1.0666997"
       height="1.1933371">
      <feGaussianBlur
         stdDeviation="8.90482 7.37123"
         result="blur"
         id="feGaussianBlur503" />
    </filter>
  </defs>
  <sodipodi:namedview
     id="namedview33"
     pagecolor="#ffffff"
     bordercolor="#000000"
     borderopacity="0.25"
     inkscape:showpageshadow="2"
     inkscape:pageopacity="0.0"
     inkscape:pagecheckerboard="0"
     inkscape:deskcolor="#d1d1d1"
     inkscape:zoom="2.7370594"
     inkscape:cx="224.51102"
     inkscape:cy="10.412635"
     inkscape:window-width="1920"
     inkscape:window-height="1027"
     inkscape:window-x="-8"
     inkscape:window-y="-8"
     inkscape:window-maximized="1"
     inkscape:current-layer="svg33" />
  <g
     id="g36"
     inkscape:label="text"
     style="stroke-opacity:1;fill-opacity:1;display:inline;fill:#2e5085;stroke:none"
     transform="translate(-95.035587,-175.1028)">
    <path
       id="polygon31"
       style="fill:#2e5085;fill-opacity:1;stroke:none;stroke-width:0.5;stroke-linecap:round;stroke-dasharray:none;stroke-opacity:1"
       inkscape:label="text_period"
       d="m 699.81378,221.43939 c 1.68414,-0.63186 2.71717,1.46508 2.89113,1.85169 0.44234,1.12231 0.13742,1.84173 -0.62134,2.70306 -0.50674,0.48714 -2.1723,1.8829 -3.51758,2.26057 -0.93075,0.22119 -1.91623,-0.19384 -3.63461,-1.04722 0.35304,-1.17101 0.85284,-2.29033 1.36304,-3.39966 0.71841,-0.78576 1.63822,-1.34818 2.54632,-1.8875 0.31488,-0.17917 0.63811,-0.34241 0.97304,-0.48089 z"
       sodipodi:nodetypes="sccccccss" />
    <path
       id="polygon30"
       style="fill:#2e5085;fill-opacity:1;stroke:none;stroke-width:0.5;stroke-linecap:round;stroke-dasharray:none;stroke-opacity:1"
       inkscape:label="text_y1"
       d="m 692.7265,214.20844 c 1.11336,3.92883 -1.36358,7.55928 -2.44308,11.19147 -2.16153,5.75285 -5.70338,10.83709 -8.13483,16.4624 -2.28699,4.79503 -4.38451,9.70839 -5.68926,14.86964 -0.39959,1.84618 -3.31394,5.11091 -4.57003,2.21773 -0.61874,-2.28086 0.79694,-4.39255 1.46788,-6.49243 2.50948,-6.43093 5.61232,-12.60089 8.86132,-18.68497 1.93936,-3.71818 3.84982,-7.45692 5.49522,-11.31652 -1.32527,-2.46243 -4.10158,0.0418 -5.79539,0.75398 -2.08657,0.60909 -4.27649,1.11862 -6.45569,1.1394 -2.3528,-0.12115 -4.73661,-1.68614 -5.18594,-4.10752 -0.83494,-2.30098 -1.80319,-4.99941 -0.64611,-7.35323 1.6266,-1.95902 3.31008,0.7388 3.23363,2.39906 0.59829,2.15306 1.46434,4.81615 3.90314,5.44016 4.09057,0.55412 7.5176,-2.22651 10.70543,-4.34762 1.43755,-0.94735 3.39635,-3.6887 5.25371,-2.17155 z" />
    <path
       id="polygon29"
       style="fill:#2e5085;fill-opacity:1;stroke:none;stroke-width:0.5;stroke-linecap:round;stroke-dasharray:none;stroke-opacity:1"
       inkscape:label="text_a3"
       d="m 657.89142,220.45709 c 1.79355,-0.87283 4.49487,-0.44491 5.29403,1.57846 0.27505,1.90866 1.92895,3.16413 2.6445,4.86809 0.77189,1.50192 -1.12212,2.93576 -2.34922,1.77416 -1.03192,-0.84053 -1.64967,-2.06559 -2.62007,-2.97602 -0.73158,-0.78059 -1.53157,-1.50996 -2.45137,-2.06371 -2.7197,0.48135 -5.12292,1.95005 -7.7645,2.69397 -2.64352,0.99302 -5.3335,1.96957 -8.1574,2.28206 -2.13017,-0.2728 -4.32784,-1.79305 -4.60957,-4.04856 0.33026,-2.74362 2.73473,-4.51243 4.83708,-5.97679 3.81553,-2.66738 7.95011,-5.05288 12.50931,-6.15354 1.35859,-0.25371 3.12145,0.15516 3.63934,1.58653 0.52588,1.71867 -1.48443,2.51444 -2.79579,1.78255 -1.36904,-0.57836 -2.68498,0.25177 -3.88822,0.82947 -1.74022,0.96548 -3.50069,1.89609 -5.23845,2.86225 -1.54683,0.93966 -3.03314,1.99137 -4.36114,3.22467 -1.01921,1.39117 1.01983,3.17171 2.39297,2.34719 4.36931,-1.35946 8.54846,-3.25447 12.9185,-4.61078 z" />
    <path
       id="polygon28"
       style="fill:#2e5085;fill-opacity:1;stroke:none;stroke-width:0.5;stroke-linecap:round;stroke-dasharray:none;stroke-opacity:1"
       inkscape:label="text_w1"
       d="m 615.18243,229.93561 c -2.93132,-2.37564 -4.38222,-5.96827 -6.3983,-9.06112 -0.33928,-0.56589 -0.67855,-1.13178 -1.01783,-1.69767 -2.44845,1.1759 -3.92762,3.60288 -5.72757,5.53813 -1.43934,1.61149 -3.12535,3.37558 -5.36757,3.68443 -2.26643,-0.5958 -2.08811,-3.99932 -3.23763,-5.7737 -1.02979,-2.93392 -2.25168,-5.82402 -2.98807,-8.84796 -0.44775,-1.38185 1.90351,-4.14161 2.59473,-2.00526 2.12463,3.43606 3.20939,7.38138 4.75496,11.07443 1.67654,1.19916 2.48091,-1.20354 3.57154,-2.04033 2.34286,-2.10721 3.56079,-5.32403 6.34978,-6.93546 2.52813,-0.43543 3.00564,2.91582 4.19676,4.48011 1.55293,2.67079 2.84034,5.63647 5.17431,7.7324 2.10698,0.92663 3.82732,-1.69284 5.53201,-2.64871 4.26973,-3.29364 8.19296,-7.04719 12.6801,-10.05004 1.42993,-0.74375 2.80691,0.35299 1.47926,1.57322 -5.96584,4.6003 -10.55803,10.85505 -17.03267,14.80966 -1.38263,0.87848 -3.16966,1.26709 -4.56381,0.16787 z" />
    <path
       id="polygon27"
       style="fill:#2e5085;fill-opacity:1;stroke:none;stroke-width:0.5;stroke-linecap:round;stroke-dasharray:none;stroke-opacity:1"
       inkscape:label="text_a2"
       d="m 550.78449,221.1828 c 1.45799,-0.47902 3.38161,-0.74814 4.5711,0.44506 0.82464,1.12001 1.18574,2.51219 1.90384,3.70256 0.35302,1.11144 1.67864,1.86162 1.63333,3.00908 0.22131,1.51939 -1.9124,2.22736 -2.63049,0.82825 -1.68552,-1.56204 -2.94538,-3.62863 -4.96352,-4.80133 -1.15825,-0.0929 -2.23343,0.77576 -3.36225,1.05881 -3.76025,1.41331 -7.5082,2.92303 -11.42537,3.8488 -2.13271,0.53253 -4.11581,-0.91583 -5.34856,-2.52127 -0.85116,-1.05651 -0.40437,-2.52026 0.28334,-3.52869 1.46177,-2.1819 3.69474,-3.69164 5.87127,-5.09595 3.21325,-1.96791 6.53618,-3.92984 10.23013,-4.82648 1.16408,-0.23798 2.58494,-0.47972 3.50136,0.48851 1.29348,0.76367 0.9433,3.0886 -0.67741,3.12396 -1.34224,-0.59025 -2.77929,-1.02436 -4.12712,-0.0974 -2.8263,1.30436 -5.52007,2.88723 -8.16885,4.51763 -1.36224,0.86649 -2.65625,2.01053 -3.16844,3.59266 1.02167,1.11018 2.70391,1.16512 3.9976,0.53885 4.00175,-1.31121 7.85953,-3.02614 11.88004,-4.28308 z" />
    <path
       id="polygon26"
       style="fill:#2e5085;fill-opacity:1;stroke:none;stroke-width:0.5;stroke-linecap:round;stroke-dasharray:none;stroke-opacity:1"
       inkscape:label="text_s1"
       d="m 496.51776,226.47308 c -3.41571,1.12452 -6.82536,2.30617 -10.35191,3.04106 -0.99742,-0.29021 -2.09958,-0.42395 -2.81125,0.49632 -0.51013,0.912 -1.67922,1.33517 -2.16667,0.14022 -0.48229,-1.1858 0.54294,-2.21192 1.40646,-2.87642 2.32845,-1.60764 5.14239,-2.26222 7.84687,-2.94511 1.1268,-0.29753 2.31119,-0.43856 3.41623,-0.76735 0.80309,-0.39919 2.10897,-1.34129 0.98174,-2.18358 -1.42691,-1.53694 -3.58945,-1.88066 -5.44053,-2.6743 -2.32344,-0.90168 -4.73903,-1.67752 -6.83982,-3.047 -1.14941,-0.76141 -2.20435,-2.20598 -1.60662,-3.6302 0.69717,-1.77598 2.75604,-2.24322 4.44985,-2.46669 3.26867,-0.367 6.55686,0.0864 9.7911,0.55599 1.38539,0.23602 2.76307,0.55342 4.09313,1.00397 0.9656,1.0207 -1.10624,1.22981 -1.81516,1.15499 -3.15308,0.17235 -6.30559,0.37722 -9.45866,0.56016 -0.8281,0.34209 -0.64766,0.93654 0.15127,1.03228 3.07656,1.45554 6.28765,2.66127 9.21,4.4201 1.48908,0.95338 2.88288,2.55575 2.61346,4.44715 -0.0885,1.53251 -1.07808,3.03092 -2.61109,3.43102 -0.28576,0.1035 -0.57575,0.19535 -0.8584,0.30739 z" />
    <path
       id="polygon25"
       style="fill:#2e5085;fill-opacity:1;stroke:none;stroke-width:0.5;stroke-linecap:round;stroke-dasharray:none;stroke-opacity:1"
       inkscape:label="text_y0"
       d="m 477.93921,215.73639 c 1.32827,1.6434 -0.16666,3.57879 -0.4965,5.28382 -0.027,1.98161 -0.94803,3.69881 -1.79417,5.43752 -1.27928,2.66148 -2.23577,5.49984 -3.64347,8.08262 -2.083,2.85101 -3.52901,6.04117 -4.89404,9.27081 -1.15334,2.65965 -2.5255,5.23214 -3.63431,7.90327 -0.48392,2.31982 -1.3694,4.50561 -2.35078,6.64643 0.0439,1.70756 -2.26794,4.92083 -4.00605,3.38019 -1.04391,-2.20824 0.20381,-4.51013 0.87099,-6.63163 2.34815,-6.08323 5.23301,-11.94932 8.21097,-17.74472 1.49225,-2.58978 2.94228,-5.19851 4.13646,-7.94264 0.94182,-1.82496 2.15624,-3.68988 2.46165,-5.71387 1.08767,-2.45026 -2.43049,-0.21101 -3.50272,0.0507 -1.86935,0.81728 -3.77733,1.59625 -5.84447,1.68113 -1.9117,0.17197 -4.22111,1.28613 -5.84522,-0.26528 -2.20242,-2.23939 -3.15291,-5.50226 -3.30038,-8.58016 -0.21351,-1.63885 1.17656,-4.41223 2.94134,-2.952 0.49803,2.82788 1.09596,5.94904 3.22755,8.04272 1.86952,1.59567 4.51468,0.57832 6.49298,-0.26464 3.52043,-1.72037 6.54848,-4.25718 9.78225,-6.43844 0.43603,0.17787 0.85385,0.41807 1.18792,0.75413 z" />
    <path
       id="polygon24"
       style="fill:#2e5085;fill-opacity:1;stroke:none;stroke-width:0.5;stroke-linecap:round;stroke-dasharray:none;stroke-opacity:1"
       inkscape:label="text_a1"
       d="m 442.95105,222.11755 c 1.4622,-0.48016 3.39156,-0.76049 4.58903,0.43292 0.82539,1.11776 1.18441,2.50969 1.90282,3.69828 0.35191,1.11016 1.68106,1.85759 1.63187,3.00354 0.23805,1.24631 -1.58852,2.28244 -2.35309,1.10067 -1.8329,-1.59846 -3.12858,-3.81714 -5.26335,-5.05462 -1.1644,-0.0881 -2.24404,0.78138 -3.37849,1.06703 -3.78133,1.42193 -7.5511,2.93789 -11.48985,3.8711 -2.13633,0.53707 -4.13392,-0.89833 -5.3756,-2.50627 -0.61253,-0.75133 -0.56407,-1.77302 -0.19899,-2.61708 1.04253,-2.25981 3.14317,-3.76519 5.11555,-5.17362 3.48279,-2.25146 7.10571,-4.42979 11.11853,-5.58255 1.26489,-0.28012 2.77767,-0.69293 3.87202,0.26137 1.25211,0.68166 1.22017,2.79962 -0.24469,3.18295 -1.26729,0.0685 -2.47286,-1.18671 -3.76028,-0.33836 -2.71845,1.13084 -5.25277,2.66195 -7.79874,4.12995 -1.74442,1.06017 -3.6682,2.2495 -4.33321,4.30602 1.03078,1.10978 2.71824,1.15524 4.01672,0.52936 4.02558,-1.3188 7.90651,-3.04297 11.94975,-4.31069 z" />
    <path
       id="polygon23"
       style="fill:#2e5085;fill-opacity:1;stroke:none;stroke-width:0.5;stroke-linecap:round;stroke-dasharray:none;stroke-opacity:1"
       inkscape:label="text_w0"
       d="m 399.90509,231.732 c -3.00643,-2.40128 -4.46905,-6.0857 -6.55588,-9.21419 -0.4724,-1.27072 -1.29261,-1.88783 -2.34162,-0.64768 -3.10029,2.52574 -4.96797,6.56672 -8.80949,8.144 -2.56582,1.15651 -2.81445,-2.44797 -3.66045,-3.99973 -1.26789,-3.42474 -2.70499,-6.81625 -3.61696,-10.35506 -0.44068,-1.39512 1.94072,-4.11999 2.63548,-1.98733 2.17261,3.43637 3.23493,7.42445 4.85413,11.10769 1.75357,0.98527 2.46285,-1.33818 3.6081,-2.176 2.34378,-2.09518 3.59006,-5.28938 6.38578,-6.87773 2.54617,-0.45169 3.0448,2.916 4.24726,4.48901 1.5595,2.66286 2.86133,5.62841 5.22079,7.69294 2.121,0.85118 3.83632,-1.72387 5.55394,-2.68369 4.31915,-3.30356 8.29127,-7.07013 12.82126,-10.08972 1.43592,-0.75162 2.82896,0.33994 1.4842,1.56649 -5.96567,4.58467 -10.60504,10.7662 -17.04236,14.75308 -1.44971,0.91582 -3.28926,1.43828 -4.78418,0.27792 z" />
    <path
       id="polygon22"
       style="fill:#2e5085;fill-opacity:1;stroke:none;stroke-width:0.5;stroke-linecap:round;stroke-dasharray:none;stroke-opacity:1"
       inkscape:label="text_l"
       d="m 368.84979,222.93768 c 0.17498,2.53252 0.37543,5.0632 0.58033,7.59345 -1.74428,1.70032 -4.07938,-0.49043 -4.32785,-2.39808 -0.86568,-2.7791 -0.62443,-5.69606 -0.25704,-8.53373 0.89243,-8.38323 1.92379,-16.75576 3.43938,-25.05172 1.16146,-5.89921 0.83782,-12.06739 2.8428,-17.79408 2.23682,-1.33065 2.76484,2.87746 2.24944,4.47111 -1.50753,12.09851 -3.01505,24.19702 -4.52257,36.29553 -0.50985,1.72549 -0.007,3.63533 -0.004,5.41752 z" />
    <path
       id="polygon21"
       style="fill:#2e5085;fill-opacity:1;stroke:none;stroke-width:0.5;stroke-linecap:round;stroke-dasharray:none;stroke-opacity:1"
       inkscape:label="text_a0"
       d="m 351.2561,222.88605 c 1.51188,-0.48429 3.55175,-0.75089 4.72222,0.56823 0.85902,1.33693 1.34328,2.89078 2.21569,4.22895 0.53723,1.01844 1.72241,1.75179 1.21981,3.02909 -0.57402,1.41523 -2.26582,0.94566 -2.92468,-0.17875 -1.55151,-1.49917 -2.79564,-3.39075 -4.70061,-4.47571 -1.1674,-0.0987 -2.25598,0.76345 -3.3955,1.04094 -3.79545,1.39214 -7.57954,2.88048 -11.52883,3.78128 -2.20018,0.5208 -4.24507,-0.98589 -5.49167,-2.6598 -0.81657,-1.12642 -0.25171,-2.60827 0.49549,-3.60633 1.30109,-1.86352 3.22631,-3.18224 5.09951,-4.42631 3.39685,-2.08651 6.91131,-4.15129 10.81114,-5.124 1.22862,-0.24832 2.73126,-0.54521 3.71634,0.46247 1.31448,0.75422 0.96273,3.09482 -0.67529,3.10897 -1.35604,-0.58915 -2.80542,-1.0341 -4.17216,-0.1159 -2.84947,1.2827 -5.56832,2.8466 -8.24208,4.45921 -1.36579,0.85219 -2.67141,1.9819 -3.18243,3.56191 1.03828,1.10992 2.72859,1.17693 4.04158,0.55792 4.03823,-1.28637 7.9355,-2.97851 11.99147,-4.21217 z" />
    <path
       id="polygon20"
       style="fill:#2e5085;fill-opacity:1;stroke:none;stroke-width:0.5;stroke-linecap:round;stroke-dasharray:none;stroke-opacity:1"
       inkscape:label="text_s0"
       d="m 296.56232,227.80853 c -3.42215,1.09457 -6.84197,2.24958 -10.37042,2.95221 -0.86539,-0.0634 -1.71873,-0.68662 -2.44014,0.22759 -0.65049,0.23533 -1.21557,1.5811 -1.82753,1.08862 -1.00789,-0.56386 -1.09602,-1.70706 -0.40224,-2.58197 0.68804,-0.7472 1.48589,-1.40839 2.4358,-1.79713 2.63748,-1.31949 5.56841,-1.86241 8.42631,-2.49779 0.83683,-0.16015 1.73609,-0.18936 2.31565,-0.90673 1.09138,-0.48759 0.53381,-1.3242 -0.18457,-1.89859 -1.39459,-1.28578 -3.34104,-1.59504 -5.02379,-2.34312 -2.30384,-0.94884 -4.73198,-1.68483 -6.84174,-3.03905 -1.0856,-0.70919 -2.23957,-1.90364 -1.93437,-3.30412 0.13996,-1.241 1.23982,-2.04578 2.33854,-2.42889 2.06661,-0.65139 4.26894,-0.63144 6.4123,-0.51755 3.11213,0.30545 6.26334,0.61609 9.25308,1.57708 0.77299,0.15555 1.1277,0.54474 0.45168,1.12093 -1.01206,0.24281 -2.11898,0.13511 -3.16727,0.24278 -2.69979,0.13685 -5.39958,0.27371 -8.09937,0.41056 -0.55443,0.39243 -1.00496,0.69227 -0.12187,0.89883 3.00631,1.42107 6.09666,2.67701 9.01629,4.27325 1.39833,0.85223 2.82737,2.01132 3.18308,3.69307 0.25922,1.68198 -0.3992,3.71129 -2.11184,4.35378 -0.42471,0.1881 -0.87451,0.30973 -1.30758,0.47624 z" />
    <path
       id="polygon19"
       style="fill:#2e5085;fill-opacity:1;stroke:none;stroke-width:0.5;stroke-linecap:round;stroke-dasharray:none;stroke-opacity:1"
       inkscape:label="text_apostrophe"
       d="m 273.03925,210.20758 c -0.39913,1.22428 -1.23143,2.58655 -2.73026,2.37167 -2.05885,0.13208 -0.79479,-2.41763 -0.78395,-3.5839 0.94828,-3.83682 1.77285,-7.71133 2.92166,-11.49591 0.42598,-1.43197 2.43503,-1.06065 2.65376,0.3012 0.0949,0.78623 -0.44749,7.18351 -2.06121,12.40694 z"
       sodipodi:nodetypes="cccccc" />
    <path
       id="polygon18"
       style="fill:#2e5085;fill-opacity:1;stroke:none;stroke-width:0.5;stroke-linecap:round;stroke-dasharray:none;stroke-opacity:1"
       inkscape:label="text_e1"
       d="m 253.54492,230.81403 c -4.00794,-0.0717 -8.02862,-0.81029 -11.75822,-2.2893 -1.38273,-0.56994 -2.81429,-1.55486 -3.03967,-3.1514 -0.75838,-3.12571 -0.4513,-6.80348 1.86648,-9.21964 3.19905,-3.29391 8.12197,-4.27104 12.54662,-3.7375 2.44801,0.31323 5.12768,1.56861 5.96172,4.06626 0.33879,1.14503 0.62136,2.70937 -0.5106,3.51484 -2.16673,1.66447 -4.88276,2.3499 -7.4192,3.2471 -1.73602,0.49031 -3.52177,1.05659 -5.34456,0.96765 -0.273,0.72195 -1.16554,1.20602 0.0413,1.56354 2.09457,0.77901 4.29648,1.35551 6.52907,1.55043 3.30519,0.0511 6.62312,-0.0853 9.92337,0.0502 1.39387,0.38402 3.15096,0.006 4.1752,1.22077 1.60401,1.34636 -1.36883,2.29943 -2.5298,2.21707 -3.47998,-0.0206 -6.9621,0.004 -10.4417,3e-5 z m -4.23315,-14.98584 c -2.30891,0.25342 -4.81294,0.96234 -6.34064,2.82268 -0.55538,0.76246 -1.20779,2.5387 0.0464,2.91546 1.41939,0.0264 2.85505,-0.1067 4.1816,-0.65969 2.79131,-0.95176 5.61728,-1.89564 8.23053,-3.27119 0.0587,-0.7592 -1.41565,-1.21348 -2.14611,-1.48407 -1.28604,-0.35969 -2.6465,-0.3957 -3.97177,-0.32319 z" />
    <path
       id="polygon17"
       style="fill:#2e5085;fill-opacity:1;stroke:none;stroke-width:0.5;stroke-linecap:round;stroke-dasharray:none;stroke-opacity:1"
       inkscape:label="text_r"
       d="m 210.16986,226.0069 c 0.29335,-3.18573 1.6259,-6.14713 2.83964,-9.06757 1.12693,-2.49721 3.83296,-3.69856 6.37705,-4.19264 3.97323,-0.74909 8.06685,-0.79834 12.08316,-0.39908 1.69768,0.24791 3.6585,0.46859 4.83339,1.85022 0.35373,0.92847 -0.42633,2.35249 -1.47445,2.07597 -2.01575,-0.66004 -4.15093,-1.0304 -6.27067,-0.76206 -1.44353,0.0915 -2.90832,-0.0498 -4.33965,0.12343 -1.2041,0.45574 -2.45951,0.69561 -3.73214,0.85084 -1.28895,0.16559 -2.54717,0.54185 -3.60664,1.31648 -2.06041,1.33619 -3.26513,3.63025 -3.77003,5.98133 -0.6273,2.34033 -0.34714,4.77131 -0.46073,7.15976 -0.79771,-0.005 -2.20405,0.8747 -2.47577,-0.17586 -0.56505,-1.04724 -0.46218,-2.22712 -0.19218,-3.33673 0.0737,-0.47319 0.13655,-0.94807 0.18902,-1.42409 z" />
    <path
       id="polygon16"
       style="fill:#2e5085;fill-opacity:1;stroke:none;stroke-width:0.5;stroke-linecap:round;stroke-dasharray:none;stroke-opacity:1"
       inkscape:label="text_e0"
       d="m 193.73865,230.92743 c -3.99146,-0.0657 -7.99601,-0.79725 -11.71218,-2.26486 -1.4204,-0.57158 -2.87673,-1.60716 -3.06913,-3.24748 -0.7343,-3.10189 -0.39904,-6.72985 1.89398,-9.12511 3.1934,-3.29346 8.10858,-4.28347 12.53155,-3.75704 2.44226,0.30779 5.11731,1.56161 5.94267,4.05598 0.33598,1.14529 0.61392,2.7066 -0.51458,3.51274 -2.16229,1.66774 -4.8754,2.35813 -7.40883,3.25932 -1.73306,0.49238 -3.51583,1.06253 -5.33655,0.97513 -0.27136,0.72108 -1.16677,1.20623 0.0391,1.56322 2.08994,0.77607 4.28723,1.34949 6.51474,1.54109 3.29748,0.0463 6.60746,-0.0949 9.9001,0.0349 1.38992,0.38201 3.14354,10e-4 4.1632,1.21545 1.59657,1.34537 -1.36661,2.30062 -2.52671,2.22116 -3.47196,-0.0151 -6.94564,0.0129 -10.4174,0.0155 z m -4.20246,-14.9776 c -2.30759,0.25719 -4.80786,0.97099 -6.33349,2.83116 -0.55414,0.76176 -1.21133,2.53685 0.0418,2.91468 1.41758,0.0253 2.8511,-0.11034 4.17493,-0.66496 2.78795,-0.95572 5.61034,-1.9042 8.21955,-3.28333 0.0686,-0.74863 -1.38781,-1.19943 -2.10377,-1.46997 -1.29359,-0.36782 -2.66491,-0.40085 -3.99899,-0.32758 z" />
    <path
       id="polygon15"
       style="fill:#2e5085;fill-opacity:1;stroke:none;stroke-width:0.5;stroke-linecap:round;stroke-dasharray:none;stroke-opacity:1"
       inkscape:label="text_h"
       d="m 150.04252,223.6363 c 2.09857,1.46764 4.56471,-0.72381 6.8823,-0.43875 4.83522,-0.5899 9.64395,-1.71102 14.51555,-1.80797 3.37315,0.59221 4.41526,4.47058 4.0059,7.4249 -0.6597,2.57503 0.32102,5.00615 0.48792,7.33577 -1.96154,2.61696 -4.71855,-1.67928 -4.34503,-3.78279 0.20591,-2.50485 1.27996,-6.11221 -1.91652,-7.21926 -2.87715,-0.54753 -5.86521,0.0828 -8.72391,0.58502 -3.59712,0.72773 -7.12971,1.76796 -10.76381,2.31158 -2.51463,-0.15222 -5.29979,-2.13523 -3.70057,-4.83397 2.31088,-13.20905 3.8309,-26.59659 7.35424,-39.56192 0.83733,-2.92243 1.84752,-5.80764 3.22491,-8.52296 3.74705,-0.38264 0.66769,4.07858 0.60791,5.98057 -3.23193,13.98992 -6.39917,28.18562 -7.62889,42.52978 z"
       sodipodi:nodetypes="cccccccccccccc" />
    <path
       id="polygon14"
       style="fill:#2e5085;fill-opacity:1;stroke:none;stroke-width:0.5;stroke-linecap:round;stroke-dasharray:none;stroke-opacity:1"
       inkscape:label="text_t"
       d="m 124.68799,204.92389 c -1.79731,7.97933 -2.86026,16.09892 -4.47261,24.11406 -0.9445,2.78645 -5.77397,2.52194 -3.50385,-0.92793 1.90464,-11.29652 3.86074,-22.61236 7.03892,-33.63055 1.61587,-3.46044 -2.32682,-2.3353 -4.41455,-2.46413 -6.29303,0.0902 -12.63716,0.11946 -18.85874,1.13591 -2.040854,1.65433 -7.271536,0.93357 -4.78472,-2.40367 2.521362,-1.50612 5.67261,-1.13296 8.48017,-1.69976 13.16195,-1.53179 26.37423,-3.0187 39.64663,-2.82622 5.23668,0.0389 10.46408,-0.22425 15.66725,-0.80091 2.32327,0.0156 6.20812,-0.2471 7.31501,1.67554 -2.1283,2.4493 -6.08797,0.47851 -8.95927,1.42575 -9.00997,0.53177 -18.04892,0.75865 -27.02648,1.71057 -3.70371,0.78425 -3.85085,5.04727 -4.6201,7.99618 -0.52926,2.22563 -1.01583,4.46106 -1.50766,6.69516 z" />
  </g>
</svg>
