<svg xmlns="http://www.w3.org/2000/svg" aria-hidden="true" viewBox="0 0 447.94 364.5"><path d="M235.79 0a32.52 32.52 0 0 0-18.52 5.61c-5.49 3.84-8.6 8.88-8.82 14.3-.2 5.04 2.18 9.9 6.78 13.7 9.04 7.13 18.1 14.43 27.12 21.72 8.76 7.08 17.77 14.4 26.75 21.5L97.13 76.7c-19.67 0-33.04 9.25-35.8 24.72-1.2 6.77.92 14.2 5.7 19.9 5.06 6.04 12.4 9.4 20.7 9.4h13.12c18.11 0 36.29-.03 54.46-.07h17.35L16.58 246.1l-.66.44C7.2 253.24 1.48 262.56.25 272.21c-.94 7.31.8 14.06 4.95 19.4 4.97 6.35 12.7 9.83 21.8 9.83 8.95 0 18.1-3.37 25.73-9.54l84.28-69.04c-.36 3.37-.78 8.37-.73 11.95.1 5.68 1.92 17.07 4.81 26.32a138.1 138.1 0 0 0 29.82 51.69c14.4 15.89 32 28.44 52.2 37.4a167.66 167.66 0 0 0 68.23 14.28h.22c24-.07 47.03-4.95 68.45-14.5 20.23-9.06 37.77-21.73 52.12-37.62 13.83-15.35 23.87-32.76 29.82-51.76 2.94-9.4 4.83-19.14 5.61-28.94a133.75 133.75 0 0 0-19.97-80.85 145.43 145.43 0 0 0-33.32-37.1v-.08L253.87 5.83c-.12-.1-.21-.21-.3-.29C248.92 1.97 242.6 0 235.8 0z" style="fill:#ea7600;fill-opacity:1;stroke:none;stroke-width:37.3249"/><path d="M293.09 123.27c52.71 0 95.42 38.27 95.42 85.44 0 47.18-42.7 85.37-95.42 85.37s-95.5-38.2-95.5-85.37 42.78-85.44 95.5-85.44z" style="fill:#fff;fill-opacity:1;stroke:none;stroke-width:37.3249"/><path d="M348.12 201.18c.77 14.08-4.85 27.15-14.73 36.83-10.04 9.85-24.38 16.05-40.4 16.05-16.03 0-30.37-6.2-40.41-16.05-9.88-9.68-15.49-22.75-14.72-36.82.76-13.68 7.43-25.75 17.48-34.3 9.88-8.4 23.15-13.53 37.64-13.53 14.5 0 27.76 5.13 37.65 13.53 10.05 8.55 16.72 20.61 17.49 34.29z" style="fill:#265787;fill-opacity:1;stroke-width:37.3249"/></svg>