<svg xmlns="http://www.w3.org/2000/svg" preserveAspectRatio="xMidYMid" viewBox="0 -8 256 256"><defs><linearGradient id="a" x1="50%" x2="50%" y1="1089.4%" y2="-159.5%"><stop offset="30.33%" stop-color="#473788"/><stop offset="87.2%" stop-color="#2C2255"/></linearGradient><linearGradient id="b" x1="50%" x2="50%" y1="896.54%" y2="-352.36%"><stop offset="30.33%" stop-color="#473788"/><stop offset="87.2%" stop-color="#2C2255"/></linearGradient><linearGradient id="c" x1="50%" x2="50%" y1="215.17%" y2="-166.72%"><stop offset="30.33%" stop-color="#473788"/><stop offset="86.31%" stop-color="#2C2255"/></linearGradient></defs><path fill="#2C2255" d="M251.48 152.82c-5.23 17.82-14.94 33.8-29.15 47.91l-.62.63c-17.74 17.62-38.4 28.19-61.96 31.75-5.95.9-12.08 1.36-18.4 1.36-31.65 0-58.7-11.23-81.2-33.74-14.12-14.11-23.76-30.09-28.96-47.91Zm4.42-26.65c-.2 4.25-.65 8.4-1.28 12.47l-.22 1.35H28.3c-.68-4.05-1.16-8.18-1.42-12.4l-.08-1.42h229.1Zm-1.5-26.65c.68 4.06 1.16 8.19 1.42 12.41l.08 1.41H26.8c.21-4.24.65-8.4 1.28-12.46l.22-1.36h226.1ZM251.49 86.7c-5.23-17.88-14.95-33.93-29.16-48.14-17.83-17.84-38.64-28.53-62.4-32.13-6-.92-12.2-1.4-18.58-1.4-31.65 0-58.7 11.18-81.2 33.53-14.13 14.21-23.77 30.26-28.97 48.13"/><path fill="#F7941E" d="M19.99 119.76C19.99 59.24 65.44 8.96 124.57.11 123.1.06 121.63 0 120.15 0 53.8 0 0 53.62 0 119.76c0 66.14 53.8 119.76 120.15 119.76 1.48 0 2.96-.06 4.43-.11C65.44 230.57 20 180.28 20 119.76Z"/><path fill="url(#a)" d="M156.2 14.27A78.06 78.06 0 0 0 153.83.45H2.65A77.99 77.99 0 0 0 .28 14.27H156.2Z" transform="translate(63.11 99.07)"/><path fill="url(#b)" d="M156.2 27.1H.28a77.85 77.85 0 0 0 2.37 13.82h151.18a78.06 78.06 0 0 0 2.37-13.82Z" transform="translate(63.11 99.07)"/><path fill="url(#c)" d="M78.24 98.94c31.4 0 58.46-18.5 70.92-45.19H7.32a78.24 78.24 0 0 0 70.92 45.19Z" transform="translate(63.11 99.07)"/><path fill="#FFF" d="M254.37 139.99a113.6 113.6 0 0 1-3.03 12.83H31.19a112.46 112.46 0 0 1-2.9-12.83Zm1.33-26.65a116.47 116.47 0 0 1 .04 12.83H26.76a116.87 116.87 0 0 1 .04-12.83Zm-5.11-26.65c1.27 4.18 2.29 8.47 3.08 12.83H28.3a112.1 112.1 0 0 1 2.88-12.83Z"/></svg>