<?xml version="1.0" encoding="UTF-8" standalone="no"?>
<!-- Generator: Adobe Illustrator 25.0.1, SVG Export Plug-In . SVG Version: 6.00 Build 0)  -->

<svg
   version="1.0"
   id="Layer_1"
   x="0px"
   y="0px"
   viewBox="0 0 337.9 337.89999"
   xml:space="preserve"
   width="337.89999"
   height="337.89999"
   xmlns="http://www.w3.org/2000/svg"
   xmlns:svg="http://www.w3.org/2000/svg"><defs
   id="defs3" />
<style
   type="text/css"
   id="style1">
	.st0{clip-path:url(#SVGID_2_);}
	.st1{fill-rule:evenodd;clip-rule:evenodd;fill:#050038;}
	.st2{fill:#FFD02F;}
	.st3{fill:#050038;}
</style>

<path
   class="st2"
   d="m 73.2,0 h 191.5 c 40.4,0 73.2,32.8 73.2,73.2 v 191.5 c 0,40.4 -32.8,73.2 -73.2,73.2 H 73.2 C 32.8,337.9 0,305.1 0,264.7 V 73.2 C 0,32.8 32.8,0 73.2,0 Z"
   id="path2" />
<path
   class="st3"
   d="m 234.8,42.2 h -37.1 l 30.9,54.3 -68,-54.3 h -37.1 l 34,66.4 L 86.4,42.2 H 49.3 l 37.1,84.5 -37.1,169 h 37.1 l 71.1,-181.1 -34,181.1 h 37.1 l 68,-193.1 -30.9,193.1 h 37.1 l 68,-211.3 z"
   id="path3" />
</svg>
