<svg xmlns="http://www.w3.org/2000/svg" xmlns:xlink="http://www.w3.org/1999/xlink" aria-hidden="true" viewBox="0 0 425.6 461"><defs><linearGradient id="i"><stop offset="0" style="stop-color:#1981bc;stop-opacity:1"/><stop offset="1" style="stop-color:#2594d3;stop-opacity:1"/></linearGradient><linearGradient id="h"><stop offset="0" style="stop-color:#e01141;stop-opacity:1"/><stop offset="1" style="stop-color:#ea1342;stop-opacity:1"/></linearGradient><linearGradient id="g"><stop offset="0" style="stop-color:#363434;stop-opacity:1"/><stop offset="1" style="stop-color:#484646;stop-opacity:1"/></linearGradient><linearGradient id="f"><stop offset="0" style="stop-color:#ececec;stop-opacity:1"/><stop offset="1" style="stop-color:#fafafa;stop-opacity:1"/></linearGradient><linearGradient id="e"><stop offset="0" style="stop-color:#e7e7e7;stop-opacity:1"/><stop offset="1" style="stop-color:#f7f7f7;stop-opacity:1"/></linearGradient><linearGradient id="b"><stop offset="0" style="stop-color:#104766;stop-opacity:1"/><stop offset="1" style="stop-color:#0b3349;stop-opacity:1"/></linearGradient><linearGradient id="c"><stop offset="0" style="stop-color:#0e71b9;stop-opacity:1"/><stop offset="1" style="stop-color:#0a5a9a;stop-opacity:1"/></linearGradient><linearGradient id="d"><stop offset="0" style="stop-color:#0e3a7d;stop-opacity:1"/><stop offset="1" style="stop-color:#06224d;stop-opacity:1"/></linearGradient><linearGradient id="a"><stop offset="0" style="stop-color:#e3d3f6;stop-opacity:1"/><stop offset=".4" style="stop-color:#9bc1e2;stop-opacity:1"/><stop offset=".8" style="stop-color:#6dbcd0;stop-opacity:1"/><stop offset="1" style="stop-color:#2aa4c4;stop-opacity:1"/></linearGradient><linearGradient xlink:href="#b" id="n" x1="539.2" x2="571.4" y1="286.8" y2="308.2" gradientTransform="translate(-514.2 -25)" gradientUnits="userSpaceOnUse"/><linearGradient xlink:href="#c" id="p" x1="599.1" x2="769.2" y1="-133.2" y2="-134.2" gradientTransform="matrix(.7738 .63343 -.76798 .64047 -514.2 -25)" gradientUnits="userSpaceOnUse"/><linearGradient xlink:href="#d" id="o" x1="685.1" x2="852" y1="-183.3" y2="-181.2" gradientTransform="matrix(.7738 .63343 -.76798 .64047 -514.2 -25)" gradientUnits="userSpaceOnUse"/><linearGradient xlink:href="#e" id="k" x1="681" x2="678.9" y1="461.7" y2="40.6" gradientTransform="translate(-514.2 -25)" gradientUnits="userSpaceOnUse"/><linearGradient xlink:href="#f" id="v" x1="670.6" x2="710.1" y1="325.6" y2="376.3" gradientTransform="translate(-514.2 -25)" gradientUnits="userSpaceOnUse"/><linearGradient xlink:href="#g" id="s" x1="725.6" x2="700.1" y1="342.9" y2="312.4" gradientTransform="translate(-514.2 -25)" gradientUnits="userSpaceOnUse"/><linearGradient xlink:href="#h" id="t" x1="914.1" x2="721.6" y1="144.5" y2="317.2" gradientTransform="translate(-514.2 -25)" gradientUnits="userSpaceOnUse"/><linearGradient xlink:href="#i" id="u" x1="661.5" x2="650.4" y1="386" y2="355.7" gradientTransform="translate(-514.2 -25)" gradientUnits="userSpaceOnUse"/><filter id="l" width="1.1" height="1.1" x="-.1" y="0" style="color-interpolation-filters:sRGB"><feGaussianBlur stdDeviation="6.5"/></filter><filter id="j" width="1.1" height="1.1" x="-.1" y="0" style="color-interpolation-filters:sRGB"><feGaussianBlur stdDeviation="6.5"/></filter><filter id="q" width="1.3" height="1.4" x="-.1" y="-.2" style="color-interpolation-filters:sRGB"><feGaussianBlur stdDeviation="5.7"/></filter><filter id="w" width="1.5" height="1.4" x="-.3" y="-.2" style="color-interpolation-filters:sRGB"><feGaussianBlur stdDeviation="2.2"/></filter><filter id="r" width="1.1" height="1.1" x="0" y="0" style="color-interpolation-filters:sRGB"><feGaussianBlur stdDeviation="4"/></filter><radialGradient xlink:href="#a" id="m" cx="785.2" cy="370" r="146.4" fx="785.2" fy="370" gradientTransform="matrix(.21338 -2.69945 2.62927 .20783 -819.9 2355.6)" gradientUnits="userSpaceOnUse"/></defs><rect width="292.9" height="313.5" x="529.3" y="40.9" ry="8" style="opacity:.378;fill:#000;fill-opacity:1;stroke:none;stroke-width:2;stroke-linejoin:miter;stroke-miterlimit:4;stroke-dasharray:none;stroke-opacity:.383495;filter:url(#j)" transform="matrix(1.15924 0 0 1.3371 -595.4 -33.8)"/><rect width="337.4" height="421.6" x="15.1" y="15.9" ry="8" style="fill:url(#k);fill-opacity:1;stroke:none;stroke-width:2;stroke-linejoin:miter;stroke-miterlimit:4;stroke-dasharray:none;stroke-opacity:.383495"/><rect width="292.9" height="313.5" x="42.2" y="43" ry="8" style="opacity:.289;fill:#000;fill-opacity:1;stroke:none;stroke-width:2;stroke-linejoin:miter;stroke-miterlimit:4;stroke-dasharray:none;stroke-opacity:.383495;filter:url(#l)"/><rect width="292.9" height="313.5" x="38.2" y="39" ry="8" style="fill:url(#m);fill-opacity:1;stroke:none;stroke-width:2;stroke-linejoin:miter;stroke-miterlimit:4;stroke-dasharray:none;stroke-opacity:.383495"/><path d="M38.2 195v123.4l70.2-67.4Z" style="fill:url(#n);fill-opacity:1;stroke:none;stroke-width:1px;stroke-linecap:butt;stroke-linejoin:miter;stroke-opacity:1"/><path d="M219.8 242.4c-2.5 0-5 .8-7 2.4l-112 93.5a7 7 0 0 0 0 11.4l3.4 2.8h218.9a8 8 0 0 0 8-8v-14.3l-104.5-85.5c-1.9-1.6-4.4-2.4-6.8-2.3z" style="opacity:1;fill:url(#o);fill-opacity:1;stroke:none;stroke-width:2.45932;stroke-linejoin:miter;stroke-miterlimit:4;stroke-dasharray:none;stroke-opacity:.383495"/><path d="M114.6 220c-2.5 0-5 .8-6.8 2.4l-69.6 58v64.1a8 8 0 0 0 8 8h234.4l-159-130.2c-2-1.6-4.5-2.3-7-2.3z" style="opacity:1;fill:url(#p);fill-opacity:1;stroke:none;stroke-width:2.45932;stroke-linejoin:miter;stroke-miterlimit:4;stroke-dasharray:none;stroke-opacity:.383495"/><path d="M126.5 79.3a30.1 27.5 0 0 0-29.2 21.1 24.6 23.2 0 0 0-20.1 22.8 24.6 23.2 0 0 0 24.6 23.2 24.6 23.2 0 0 0 2.5-.2h47.3l1.2-.1a25.8 26 0 0 0 2.8.1 25.8 26 0 0 0 25.8-26 25.8 26 0 0 0-25.8-25.9 25.8 26 0 0 0-2.2.1 30.1 27.5 0 0 0-26.9-15.1z" style="opacity:.224;fill:#000;fill-opacity:1;stroke:none;stroke-width:1.86022;stroke-linejoin:miter;stroke-miterlimit:4;stroke-dasharray:none;stroke-opacity:.383495;filter:url(#q)"/><path d="M122.5 75.3a30.1 27.5 0 0 0-29.2 21.1 24.6 23.2 0 0 0-20.1 22.8 24.6 23.2 0 0 0 24.6 23.2 24.6 23.2 0 0 0 2.5-.2h47.3l1.2-.1a25.8 26 0 0 0 2.8.1 25.8 26 0 0 0 25.8-26 25.8 26 0 0 0-25.8-25.9 25.8 26 0 0 0-2.2.1 30.1 27.5 0 0 0-26.9-15.1z" style="opacity:1;fill:#fff;fill-opacity:1;stroke:none;stroke-width:1.86022;stroke-linejoin:miter;stroke-miterlimit:4;stroke-dasharray:none;stroke-opacity:.383495"/><path d="M404.2 120c-4.3-.1-7.6 2.1-7.6 2.1L190.4 291.3l-8.2 6.4s-7.2-1-15.4 2.3c-8.1 3.3-13.8 11-13.8 11s-9.8 15.3-14.3 23.7a615 615 0 0 0-12.9 26.3s-.8 2 .7 4.5c1.4 2.5 5.1 2.1 5.1 2.1l21.1-3.5c6.7-1.2 18.6-3.7 18.6-3.7l15-4.5s10-3.5 15.7-11c5.2-6.9 6-16.3 6-16.3l8-6.8-.5-2 .5 2 197.1-182s6.8-8-.8-16a11.4 11.4 0 0 0-8.1-3.8z" style="opacity:.385;fill:#000;fill-opacity:1;stroke:none;stroke-width:1px;stroke-linecap:butt;stroke-linejoin:miter;stroke-opacity:1;filter:url(#r)"/><path d="m186 287.3-8.3 6.4s9.7 7.5 15.2 14.2c5.8 7 10.8 17 10.6 16.8l8-6.8s-3.7-16-8.3-21.4c-4.3-5-17.3-9.2-17.3-9.2z" style="fill:url(#s);fill-opacity:1;stroke:none;stroke-width:1px;stroke-linecap:butt;stroke-linejoin:miter;stroke-opacity:1"/><path d="m186 287.3 206.1-169s8.5-6 15.7 1.6c7.6 7.9.8 16 .8 16L211.5 318s-1.7-9.3-9.3-18.6c-7.5-9.3-16.3-12-16.3-12z" style="fill:url(#t);fill-opacity:1;stroke:none;stroke-width:1px;stroke-linecap:butt;stroke-linejoin:miter;stroke-opacity:1"/><path d="M148.6 307.2s-9.9 15.2-14.4 23.5c-4.6 8.4-12.8 26.3-12.8 26.3s-1 2.1.6 4.6c1.5 2.4 5.1 2 5.1 2s14.4-2.2 21.1-3.4c6.7-1.2 18.6-3.8 18.6-3.8l-1-10.8z" style="fill:url(#u);fill-opacity:1;stroke:none;stroke-width:1px;stroke-linecap:butt;stroke-linejoin:miter;stroke-opacity:1"/><path d="M177.7 293.7s-7.2-.9-15.3 2.4c-8.2 3.2-13.8 11-13.8 11s-9.7 21.4-6.8 26.5c2 3.2 14.5 3.6 16.5 5.8 3.4 3.7 3 9.4 5.6 13.5a28 28 0 0 0 2.9 3.5l15-4.5s10-3.4 15.8-11c5.1-6.8 6-16.2 6-16.2s-.9-9.3-9-18.7c-8-9.4-16.9-12.3-16.9-12.3z" style="fill:url(#v);fill-opacity:1;stroke:none;stroke-width:1px;stroke-linecap:butt;stroke-linejoin:miter;stroke-opacity:1"/><path d="M212.2 314.8c-5.5-21.6-21.7-27.6-21.7-27.6" style="fill:none;stroke:#000;stroke-width:1px;stroke-linecap:butt;stroke-linejoin:miter;stroke-opacity:1;filter:url(#w)"/></svg>