<svg xmlns="http://www.w3.org/2000/svg" xmlns:xlink="http://www.w3.org/1999/xlink" viewBox="0 0 410.2 400"><defs><linearGradient id="b"><stop offset="0" style="stop-color:#f8f2d5;stop-opacity:1"/><stop offset="1" style="stop-color:#bdbd97;stop-opacity:1"/></linearGradient><linearGradient id="a"><stop offset="0" style="stop-color:#e3e3c4;stop-opacity:1"/><stop offset="1" style="stop-color:#d6d6a9;stop-opacity:1"/></linearGradient><linearGradient xlink:href="#a" id="c" x1="375.3" x2="147.2" y1="204.2" y2="-127.7" gradientUnits="userSpaceOnUse"/></defs><g transform="translate(-51.3 159.4)"><rect width="390.2" height="380" x="61.3" y="-149.4" ry="32" style="opacity:1;fill:url(#c);fill-opacity:1;stroke:url(#linearGradient1404);stroke-width:20;stroke-linejoin:miter;stroke-miterlimit:4;stroke-dasharray:none;stroke-opacity:1"/><path d="M320-65.1c4.2-9-10.5-36.6-24-43.3-13.4-6.7-26.5 3.4-31.7 14-5 10.4-7.7 28.1 8.6 34.2 13.4 5 42.7 4 47-5zM234.9-47.6c-6.8 0-13.4.5-19.2 1.5a123 123 0 0 0-56.2 29.2c-17.8 15.3-33 38.2-33 38.2s-5 6.1-3.5 9c1.4 3 8.2 1.4 8.2 1.4s7.3-1.5 17.3-5.4c17-6.5 20.2-10.4 20.2-10.4s-.2-10.3 2-17.1c2-6.8 20.3-27.5 47.2-28 18.5-.3 50.5 25 50.5 25l14 8.2S257.1 25.2 241.8 45c-3.6 4.7-10.4 14.4-10.4 14.4s-24 2.4-79.3 34.7c-55.3 32.3-66.5 69.8-66.5 69.8s-3.8 8.8 7.1 9.3c0 0 18.5 4.8 62.1-19 29.5-16 70.3-63 70.3-63s23.9-1.8 41.7.3c30.4 3.6 68.3 8.7 85.5 18.7 25.5 14.8 16.8 26.6 16 29.3-2.7 6.1.7 12 5.4 16.7 4.1 4.1 45.3 39.6 52 32.8 6.6-6.9-8.5-31.5-17.2-45-23.8-36.5-63.8-72-128.3-86.7-9-2.1-26.5-1.4-26.5-1.4s7.6-10.3 18.7-23c11.1-12.6 22-22.4 22-22.4s13.1 9.4 29.9 8.3c26.4-1.9 54.7-34 54.2-44-.6-12.5-11.8-17.9-23.4-17.6-16.2.3-37 18.7-37 18.7s-22-10-40-16.4a135.9 135.9 0 0 0-43.2-7zm125 17h.8c3.4.2 9-.2 9.1 4.6.2 4.8-11.5 8.8-23.4 8.8-4.5 0-13.5.2-14.1-2.8-.6-2.8 19.3-10.7 27.6-10.7zM201.5 93.8c.6 0 1 .1 1.1.3 1.5 2.3-33.3 38.4-69 57.9-12.7 7-24.9 9.2-27 5.6-2-3.6-1.3-8 .2-11.5a52.2 52.2 0 0 1 18-20.6c27.7-20.4 69.3-31.8 76.7-31.7z" style="fill:#000;fill-opacity:1;stroke:none;stroke-width:.888329;stroke-linecap:butt;stroke-linejoin:miter;stroke-miterlimit:4;stroke-dasharray:none;stroke-opacity:1"/></g></svg>