<?xml version="1.0" encoding="UTF-8" standalone="no"?>
<!-- Created with Inkscape (http://www.inkscape.org/) -->

<svg
   width="410.23962mm"
   height="400.03732mm"
   viewBox="0 0 410.23962 400.03732"
   version="1.1"
   id="svg8"
   inkscape:version="1.3.2 (091e20e, 2023-11-25, custom)"
   sodipodi:docname="zbrush.svg"
   xmlns:inkscape="http://www.inkscape.org/namespaces/inkscape"
   xmlns:sodipodi="http://sodipodi.sourceforge.net/DTD/sodipodi-0.dtd"
   xmlns:xlink="http://www.w3.org/1999/xlink"
   xmlns="http://www.w3.org/2000/svg"
   xmlns:svg="http://www.w3.org/2000/svg"
   xmlns:rdf="http://www.w3.org/1999/02/22-rdf-syntax-ns#"
   xmlns:cc="http://creativecommons.org/ns#"
   xmlns:dc="http://purl.org/dc/elements/1.1/">
  <defs
     id="defs2">
    <linearGradient
       inkscape:collect="always"
       id="linearGradient1402">
      <stop
         style="stop-color:#f8f2d5;stop-opacity:1"
         offset="0"
         id="stop1398" />
      <stop
         style="stop-color:#bdbd97;stop-opacity:1"
         offset="1"
         id="stop1400" />
    </linearGradient>
    <linearGradient
       inkscape:collect="always"
       id="linearGradient1394">
      <stop
         style="stop-color:#e3e3c4;stop-opacity:1;"
         offset="0"
         id="stop1390" />
      <stop
         style="stop-color:#d6d6a9;stop-opacity:1"
         offset="1"
         id="stop1392" />
    </linearGradient>
    <linearGradient
       inkscape:collect="always"
       xlink:href="#linearGradient1394"
       id="linearGradient1396"
       x1="375.33347"
       y1="204.23051"
       x2="147.23965"
       y2="-127.69703"
       gradientUnits="userSpaceOnUse" />
    <linearGradient
       inkscape:collect="always"
       xlink:href="#linearGradient1402"
       id="linearGradient1404"
       x1="61.270458"
       y1="-149.41434"
       x2="329.28387"
       y2="227.8455"
       gradientUnits="userSpaceOnUse" />
  </defs>
  <sodipodi:namedview
     id="base"
     pagecolor="#ffffff"
     bordercolor="#666666"
     borderopacity="1.0"
     inkscape:pageopacity="0.0"
     inkscape:pageshadow="2"
     inkscape:zoom="0.2198208"
     inkscape:cx="1021.2864"
     inkscape:cy="84.159461"
     inkscape:document-units="mm"
     inkscape:current-layer="layer1"
     showgrid="false"
     inkscape:pagecheckerboard="true"
     inkscape:showpageshadow="2"
     inkscape:deskcolor="#d1d1d1"
     inkscape:window-width="1920"
     inkscape:window-height="1027"
     inkscape:window-x="1912"
     inkscape:window-y="-8"
     inkscape:window-maximized="1" />
  <metadata
     id="metadata5">
    <rdf:RDF>
      <cc:Work
         rdf:about="">
        <dc:format>image/svg+xml</dc:format>
        <dc:type
           rdf:resource="http://purl.org/dc/dcmitype/StillImage" />
        <dc:title />
      </cc:Work>
    </rdf:RDF>
  </metadata>
  <g
     inkscape:label="Layer 1"
     inkscape:groupmode="layer"
     id="layer1"
     transform="translate(-51.270458,159.41434)">
    <rect
       style="opacity:1;fill:url(#linearGradient1396);fill-opacity:1;stroke:url(#linearGradient1404);stroke-width:20;stroke-linejoin:miter;stroke-miterlimit:4;stroke-dasharray:none;stroke-opacity:1"
       id="rect1388"
       width="390.23962"
       height="380.03732"
       x="61.270458"
       y="-149.41434"
       ry="31.966125" />
    <path
       style="fill:#000000;fill-opacity:1;stroke:none;stroke-width:0.888329;stroke-linecap:butt;stroke-linejoin:miter;stroke-miterlimit:4;stroke-dasharray:none;stroke-opacity:1"
       d="m 319.90942,-65.114811 c 4.28435,-8.906519 -10.39799,-36.630449 -23.83948,-43.313979 -13.4415,-6.68353 -26.59551,3.46622 -31.73001,13.93434 -5.1345,10.468118 -7.74264,28.197483 8.56207,34.248266 13.3771,4.964327 42.72307,4.037892 47.00742,-4.868627 z"
       id="path1377"
       inkscape:connector-curvature="0"
       sodipodi:nodetypes="sssss" />
    <path
       style="fill:#000000;fill-opacity:1;stroke:none;stroke-width:0.888329;stroke-linecap:butt;stroke-linejoin:miter;stroke-miterlimit:4;stroke-dasharray:none;stroke-opacity:1"
       d="m 234.86764,-47.557298 c -6.78341,-0.02137 -13.32283,0.458038 -19.1468,1.482297 -18.6367,3.277628 -38.56328,13.968026 -56.26935,29.202898 -17.70608,15.2348736 -33.02776,38.217401 -33.02776,38.217401 0,0 -4.8787,6.055317 -3.47093,8.988791 1.40776,2.933475 8.23135,1.326674 8.23135,1.326674 0,0 7.36112,-1.441804 17.34592,-5.321846 16.93344,-6.580244 20.18105,-10.446757 20.18105,-10.446757 0,0 -0.18014,-10.3269244 1.89912,-17.0943584 2.07984,-6.769271 20.3997,-27.5369766 47.24751,-28.0157776 18.54887,-0.330799 50.57107,24.9290796 50.57107,24.9290796 l 14.00812,8.309847 c 0,0 -25.33073,21.2155764 -40.59944,40.8367764 -3.65561,4.697668 -10.44676,14.483249 -10.44676,14.483249 0,0 -23.97968,2.373804 -79.29931,34.663366 -55.319632,32.289558 -66.478314,69.802818 -66.478314,69.802818 0,0 -3.799208,8.78432 7.122265,9.25917 0,0 18.462639,4.84451 62.064029,-18.87275 29.46797,-16.02927 70.30134,-63.084048 70.30134,-63.084048 0,0 23.85734,-1.8564 41.69981,0.26719 30.37363,3.61499 68.34336,8.718438 85.53742,18.711608 25.50482,14.82336 16.78386,26.59773 16.02201,29.32546 -2.75757,6.09799 0.6885,11.90474 5.3627,16.65092 4.0916,4.15458 45.28112,39.66413 51.93126,32.82072 6.65014,-6.84343 -8.46874,-31.45426 -17.20039,-44.8907 -23.7563,-36.55666 -63.80098,-72.031627 -128.28802,-86.8329 -9.03842,-2.074532 -26.46326,-1.336327 -26.46326,-1.336327 0,0 7.60347,-10.368295 18.71162,-22.988638 11.10814,-12.620342 21.91904,-22.453387 21.91904,-22.453387 0,0 13.16354,9.466218 29.93785,8.286435 26.4703,-1.861729 54.7585,-33.943674 54.26328,-43.971675 -0.61735,-12.500812 -11.85915,-17.852527 -23.38941,-17.642472 -16.2036,0.29519 -37.09455,18.712074 -37.09455,18.712074 0,0 -22.04354,-9.945715 -39.88699,-16.38236 -12.26736,-4.425194 -28.37199,-6.895747 -43.29548,-6.942778 z m 125.06362,16.89421 c 0.26944,0.002 0.52721,0.01207 0.77167,0.03121 3.39939,0.266245 8.95148,-0.143511 9.14348,4.661723 0.19201,4.805233 -11.56279,8.774292 -23.43484,8.726669 -4.55225,-0.01826 -13.5356,0.203838 -14.12152,-2.712107 -0.56759,-2.824821 19.28773,-10.770652 27.64121,-10.7075 z M 201.51854,93.900592 c 0.63074,0.0109 1.01657,0.10495 1.12836,0.28325 1.43099,2.28218 -33.3602,38.442498 -68.96456,57.871458 -12.77391,6.97059 -24.94746,9.22998 -26.99806,5.61335 -2.05059,-3.61663 -1.34251,-7.99331 0.13405,-11.49433 3.53416,-8.3797 10.57659,-15.20241 17.90918,-20.58226 27.80349,-20.3992 69.34822,-31.819558 76.79103,-31.691468 z"
       id="path1379"
       inkscape:connector-curvature="0" />
  </g>
</svg>
