<?xml version="1.0" encoding="UTF-8" standalone="no"?>
<svg
   width="451.02277"
   height="303.85068"
   version="1.1"
   id="svg6"
   sodipodi:docname="youtube.svg"
   inkscape:version="1.3.2 (091e20e, 2023-11-25, custom)"
   xmlns:inkscape="http://www.inkscape.org/namespaces/inkscape"
   xmlns:sodipodi="http://sodipodi.sourceforge.net/DTD/sodipodi-0.dtd"
   xmlns="http://www.w3.org/2000/svg"
   xmlns:svg="http://www.w3.org/2000/svg"
   xmlns:rdf="http://www.w3.org/1999/02/22-rdf-syntax-ns#"
   xmlns:cc="http://creativecommons.org/ns#"
   xmlns:dc="http://purl.org/dc/elements/1.1/">
  <metadata
     id="metadata12">
    <rdf:RDF>
      <cc:Work
         rdf:about="">
        <dc:format>image/svg+xml</dc:format>
        <dc:type
           rdf:resource="http://purl.org/dc/dcmitype/StillImage" />
        <dc:title />
      </cc:Work>
    </rdf:RDF>
  </metadata>
  <defs
     id="defs10" />
  <sodipodi:namedview
     pagecolor="#ffffff"
     bordercolor="#666666"
     borderopacity="1"
     objecttolerance="10"
     gridtolerance="10"
     guidetolerance="10"
     inkscape:pageopacity="0"
     inkscape:pageshadow="2"
     inkscape:window-width="1319"
     inkscape:window-height="880"
     id="namedview8"
     showgrid="false"
     inkscape:pagecheckerboard="true"
     inkscape:zoom="0.5303301"
     inkscape:cx="237.58787"
     inkscape:cy="194.21866"
     inkscape:current-layer="svg6"
     inkscape:showpageshadow="2"
     inkscape:deskcolor="#d1d1d1"
     inkscape:window-x="2037"
     inkscape:window-y="53"
     inkscape:window-maximized="0" />
  <path
     style="fill:#ffffff;fill-opacity:1;stroke-width:6.90891"
     d="m 225.22331,0 c 0,0 -140.979228,0.26712001 -176.011224,9.45834 A 56.801036,54.592564 0 0 0 9.266276,47.86778 C -8.9099974e-4,81.53771 0,151.92534 0,151.92534 c 0,0 -0.0018,70.38878 9.554346,104.32961 a 56.801036,54.592564 0 0 0 39.945809,38.40943 c 35.024957,9.19131 176.011225,9.18631 176.011225,9.18631 0,0 140.97923,-0.002 176.01123,-9.18631 a 56.801036,54.592564 0 0 0 39.94581,-38.39345 c 9.54905,-33.66985 9.55434,-104.34559 9.55434,-104.34559 0,0 -0.27925,-70.38878 -9.84242,-104.3296 A 56.801036,54.592564 0 0 0 401.23453,9.1863 C 366.20959,-0.00499999 225.22331,0 225.22331,0 Z m -44.87502,86.82137 116.95672,65.10397 -116.95672,65.10397 z"
     id="path2"
     inkscape:connector-curvature="0" />
</svg>
