<svg xmlns="http://www.w3.org/2000/svg" xml:space="preserve" version="1.0" viewBox="0 0 10 10"><path d="M3.82 1.52c-.16 0-.3.41-.44.68 0 0 0-.17-.04-.13-.44.61-1.67 3.29-1.9 3.87-.07.2-.32.47-.45 1.01s-.18.96-.03 1.01c.09.04.18-.04.22-.1.08-.14.21-.66.43-.82.22-.16 1.04-.4 1.6-.24.56.16 1.23.51 1.69 1.06.1.1.4 0 .43-.13-.07-.4-.22-1.24-.28-1.42-.05-.18-.16-.25-.18-.37-.03-.13-.7-3.96-.88-4.27-.06-.1-.12-.15-.17-.15zm-.08.93c.55 1.32 1.03 4.58.98 4.62-.05.03-.4-.29-1-.53-.84-.3-1.84-.03-1.9-.17-.05-.15.19-.59.31-.87.1-.23.28-.47.36-.68.35-.88.92-2.07 1.25-2.37z" style="font-variation-settings:'wght' 700;fill:#fff;stroke-width:2;stroke-linecap:round;stroke-linejoin:round;fill-opacity:1"/><path d="M6.13 6.08c.01-.1-.08-.25.62-.33.21-.03.59-.1.64-.07.03.03-.07.94-.03 1.29.04.42.13.53.22.53.1 0 .16-.31.11-.59-.05-.28.02-1.04.1-1.2.07-.14.42-.31 1.4-.32v-.22l-1.3.02s.03-.43.03-.8c0-.35.1-1.2.27-1.95l-.04-.39-.23.12s-.12.58-.23 1.28c-.1.64-.15 1.39-.22 1.74-.02.11-.03.16-.8.26-.75.1-1 .2-1.02.3-.02.09.26.35.48.33z" style="font-variation-settings:'wght' 700;fill:#fff;fill-opacity:1;stroke-width:2;stroke-linecap:round;stroke-linejoin:round"/></svg>