<svg xmlns="http://www.w3.org/2000/svg" xmlns:xlink="http://www.w3.org/1999/xlink" version="1.0" viewBox="0 0 712 272"><defs><linearGradient id="a"><stop offset="0" stop-color="#b0fa00"/><stop offset=".13" stop-color="#90ff0b"/><stop offset=".49" stop-color="#c2ff30"/><stop offset=".84" stop-color="#a0ff0b"/><stop offset="1" stop-color="#7ef90b"/></linearGradient><linearGradient xlink:href="#a" id="g" x1="144.36" x2="144.36" y1="9.19" y2="158.25" gradientUnits="userSpaceOnUse"/><linearGradient xlink:href="#a" id="f" x1="281.68" x2="281.43" y1="42.12" y2="158.37" gradientUnits="userSpaceOnUse"/><linearGradient xlink:href="#a" id="e" x1="341.01" x2="343.67" y1="41.15" y2="159.48" gradientUnits="userSpaceOnUse"/><linearGradient xlink:href="#a" id="d" x1="482.23" x2="482.5" y1="41.59" y2="157.84" gradientUnits="userSpaceOnUse"/><linearGradient xlink:href="#a" id="c" x1="603.12" x2="603.89" y1="41.69" y2="157.95" gradientUnits="userSpaceOnUse"/><filter id="b" width="1.07" height="1.19" x="-.03" y="-.1" color-interpolation-filters="sRGB"><feGaussianBlur result="blur" stdDeviation="8.90482 7.37123"/></filter></defs><g fill="#314c91"><path d="M699.81 221.44c1.69-.63 2.72 1.46 2.9 1.85.44 1.12.13 1.84-.63 2.7-.5.5-2.17 1.89-3.51 2.26-.93.23-1.92-.19-3.64-1.04.35-1.17.85-2.3 1.36-3.4a10.83 10.83 0 0 1 3.52-2.37zm-7.08-7.24c1.11 3.94-1.37 7.57-2.45 11.2-2.16 5.75-5.7 10.84-8.13 16.46-2.29 4.8-4.39 9.71-5.7 14.87-.39 1.85-3.3 5.11-4.56 2.22-.62-2.28.8-4.4 1.47-6.5a173.2 173.2 0 0 1 8.86-18.68c1.94-3.72 3.85-7.45 5.5-11.31-1.33-2.47-4.1.04-5.8.75-2.09.6-4.28 1.12-6.46 1.14-2.35-.12-4.73-1.69-5.18-4.1-.84-2.3-1.8-5-.65-7.36 1.63-1.96 3.31.74 3.23 2.4.6 2.15 1.47 4.81 3.9 5.44 4.1.55 7.52-2.23 10.71-4.35 1.44-.95 3.4-3.69 5.26-2.17zm-34.83 6.26c1.78-.88 4.49-.45 5.29 1.58.27 1.9 1.92 3.16 2.64 4.86.77 1.5-1.12 2.94-2.35 1.78-1.03-.84-1.65-2.07-2.62-2.98a11.67 11.67 0 0 0-2.45-2.06c-2.72.48-5.12 1.95-7.77 2.7-2.64.99-5.33 1.96-8.15 2.27-2.13-.27-4.33-1.79-4.61-4.04.33-2.75 2.73-4.52 4.83-5.98 3.82-2.67 7.96-5.05 12.51-6.15 1.36-.26 3.13.15 3.64 1.58.53 1.72-1.48 2.52-2.8 1.78-1.36-.57-2.68.26-3.88.83-1.74.97-3.5 1.9-5.24 2.87a26.97 26.97 0 0 0-4.36 3.22c-1.02 1.4 1.02 3.17 2.4 2.35 4.36-1.36 8.54-3.26 12.91-4.61zm-42.72 9.48c-2.93-2.38-4.38-5.97-6.4-9.07l-1.01-1.7c-2.45 1.18-3.93 3.61-5.73 5.54-1.44 1.62-3.13 3.38-5.37 3.69-2.27-.6-2.09-4-3.24-5.77-1.03-2.94-2.25-5.83-2.98-8.85-.45-1.38 1.9-4.14 2.59-2 2.12 3.43 3.21 7.37 4.76 11.07 1.67 1.2 2.48-1.2 3.57-2.04 2.34-2.11 3.56-5.33 6.35-6.94 2.52-.43 3 2.92 4.2 4.48 1.55 2.67 2.83 5.64 5.17 7.73 2.1.93 3.82-1.69 5.53-2.65 4.27-3.29 8.2-7.04 12.68-10.05 1.43-.74 2.8.36 1.48 1.58-5.97 4.6-10.56 10.85-17.03 14.8-1.39.89-3.17 1.27-4.57.18zm-64.4-8.76c1.46-.48 3.39-.75 4.58.45.82 1.12 1.18 2.51 1.9 3.7.35 1.11 1.68 1.86 1.63 3 .22 1.53-1.91 2.24-2.63.84-1.68-1.56-2.94-3.63-4.96-4.8-1.16-.1-2.23.77-3.36 1.06-3.76 1.4-7.51 2.92-11.43 3.84-2.13.54-4.11-.91-5.35-2.52-.85-1.05-.4-2.52.29-3.53 1.46-2.18 3.7-3.69 5.87-5.1 3.21-1.96 6.53-3.92 10.23-4.82 1.16-.24 2.58-.48 3.5.49 1.3.76.94 3.09-.68 3.12-1.34-.59-2.78-1.02-4.13-.1a78.31 78.31 0 0 0-8.16 4.52c-1.37.87-2.66 2.01-3.17 3.6 1.02 1.1 2.7 1.16 4 .54 4-1.32 7.85-3.03 11.87-4.29zm-54.26 5.29c-3.42 1.13-6.83 2.3-10.35 3.04-1-.29-2.1-.42-2.82.5-.5.91-1.67 1.34-2.16.14-.48-1.19.54-2.21 1.4-2.88 2.33-1.6 5.15-2.26 7.85-2.94 1.13-.3 2.31-.44 3.42-.77.8-.4 2.1-1.34.98-2.18-1.43-1.54-3.59-1.88-5.44-2.68-2.32-.9-4.74-1.67-6.84-3.04-1.15-.76-2.2-2.2-1.6-3.63.69-1.78 2.75-2.25 4.44-2.47 3.27-.37 6.56.09 9.8.56 1.38.23 2.76.55 4.09 1 .96 1.02-1.11 1.23-1.82 1.15l-9.46.57c-.83.34-.65.93.15 1.03 3.08 1.45 6.3 2.66 9.21 4.42 1.5.95 2.89 2.55 2.62 4.44-.1 1.54-1.08 3.04-2.61 3.44l-.86.3zm-18.58-10.73c1.33 1.64-.17 3.58-.5 5.28-.02 1.98-.95 3.7-1.8 5.44-1.27 2.66-2.23 5.5-3.63 8.08-2.09 2.85-3.53 6.04-4.9 9.27-1.15 2.66-2.52 5.23-3.63 7.9a31.44 31.44 0 0 1-2.35 6.65c.04 1.7-2.27 4.92-4.01 3.38-1.04-2.2.2-4.5.87-6.63a184.16 184.16 0 0 1 8.21-17.75 79.7 79.7 0 0 0 4.14-7.94c.94-1.82 2.15-3.69 2.46-5.71 1.09-2.45-2.43-.21-3.5.05-1.87.82-3.78 1.6-5.85 1.68-1.9.17-4.22 1.29-5.84-.27-2.2-2.23-3.16-5.5-3.3-8.58-.22-1.63 1.17-4.4 2.94-2.95.5 2.83 1.1 5.95 3.23 8.05 1.87 1.6 4.51.57 6.49-.27 3.52-1.72 6.55-4.26 9.78-6.44.44.18.86.42 1.19.76zm-34.99 6.38c1.46-.48 3.4-.76 4.59.43.83 1.12 1.18 2.51 1.9 3.7.35 1.1 1.68 1.86 1.63 3 .24 1.25-1.58 2.28-2.35 1.1-1.83-1.6-3.13-3.81-5.26-5.05-1.17-.09-2.25.78-3.38 1.07-3.78 1.42-7.55 2.93-11.49 3.87-2.14.53-4.13-.9-5.38-2.51-.6-.75-.56-1.77-.2-2.62 1.05-2.26 3.15-3.76 5.12-5.17 3.48-2.25 7.1-4.43 11.12-5.58 1.26-.28 2.78-.7 3.87.26 1.25.68 1.22 2.8-.24 3.18-1.27.07-2.48-1.19-3.76-.34-2.72 1.13-5.26 2.66-7.8 4.13-1.75 1.06-3.67 2.25-4.34 4.3 1.04 1.12 2.72 1.16 4.02.54 4.03-1.32 7.9-3.04 11.95-4.31zm-43.05 9.61c-3-2.4-4.46-6.08-6.55-9.21-.47-1.27-1.3-1.89-2.34-.65-3.1 2.53-4.97 6.57-8.81 8.14-2.57 1.16-2.82-2.44-3.66-4-1.27-3.42-2.7-6.81-3.62-10.35-.44-1.4 1.94-4.12 2.64-1.99 2.17 3.44 3.23 7.43 4.85 11.11 1.75.98 2.46-1.34 3.6-2.18 2.35-2.1 3.6-5.29 6.4-6.87 2.54-.46 3.04 2.91 4.24 4.48 1.56 2.67 2.86 5.63 5.22 7.7 2.12.85 3.84-1.73 5.56-2.69 4.32-3.3 8.29-7.07 12.82-10.09 1.43-.75 2.83.34 1.48 1.57-5.96 4.59-10.6 10.77-17.04 14.75-1.45.92-3.29 1.44-4.78.28zm-31.05-8.79c.17 2.53.38 5.06.58 7.6-1.74 1.7-4.08-.5-4.33-2.4-.86-2.79-.62-5.7-.25-8.54.89-8.38 1.92-16.76 3.43-25.05 1.17-5.9.84-12.07 2.85-17.8 2.23-1.33 2.76 2.88 2.25 4.47l-4.53 36.3c-.5 1.73 0 3.64 0 5.42zm-17.59-.05c1.5-.49 3.55-.75 4.72.56.86 1.34 1.34 2.9 2.21 4.23.54 1.02 1.73 1.76 1.22 3.03-.57 1.42-2.26.95-2.92-.18-1.55-1.5-2.8-3.39-4.7-4.47-1.17-.1-2.26.76-3.4 1.04-3.8 1.4-7.58 2.88-11.53 3.78-2.2.52-4.24-.99-5.49-2.66-.81-1.13-.25-2.6.5-3.6 1.3-1.87 3.22-3.19 5.1-4.43 3.4-2.09 6.9-4.15 10.8-5.13 1.24-.24 2.74-.54 3.73.47 1.3.75.96 3.1-.68 3.1-1.36-.58-2.8-1.03-4.17-.11a78.38 78.38 0 0 0-8.24 4.46c-1.37.85-2.68 1.98-3.19 3.56 1.04 1.11 2.73 1.18 4.04.56 4.04-1.29 7.94-2.98 12-4.21zm-54.7 4.91c-3.42 1.1-6.84 2.26-10.37 2.96-.86-.06-1.72-.69-2.44.23-.65.23-1.21 1.58-1.83 1.09-1-.57-1.1-1.71-.4-2.59a6.96 6.96 0 0 1 2.44-1.8c2.64-1.31 5.57-1.85 8.42-2.49.84-.16 1.74-.19 2.32-.9 1.1-.5.53-1.33-.18-1.9-1.4-1.3-3.35-1.6-5.03-2.35-2.3-.95-4.73-1.68-6.84-3.04-1.09-.7-2.24-1.9-1.93-3.3.14-1.24 1.24-2.05 2.33-2.43 2.07-.65 4.27-.63 6.42-.52 3.1.3 6.26.62 9.25 1.58.77.15 1.13.54.45 1.12-1.01.24-2.12.14-3.17.24l-8.1.41c-.55.4-1 .7-.12.9 3 1.42 6.1 2.68 9.02 4.28 1.4.85 2.83 2 3.18 3.69.26 1.68-.4 3.71-2.11 4.35-.42.19-.87.31-1.3.48zm-23.52-17.6c-.4 1.23-1.23 2.6-2.73 2.38-2.06.13-.8-2.42-.78-3.58.94-3.84 1.77-7.72 2.92-11.5.42-1.43 2.43-1.06 2.65.3.1.79-.45 7.18-2.06 12.4zm-19.5 20.61c-4-.07-8.02-.8-11.75-2.29-1.39-.57-2.82-1.55-3.04-3.15-.76-3.12-.45-6.8 1.86-9.22 3.2-3.29 8.13-4.27 12.55-3.73 2.45.3 5.13 1.56 5.96 4.06.34 1.15.62 2.71-.5 3.52-2.18 1.66-4.9 2.35-7.43 3.24-1.73.5-3.52 1.06-5.34.97-.28.72-1.17 1.2.04 1.57 2.1.77 4.3 1.35 6.53 1.55 3.3.05 6.62-.09 9.92.05 1.4.38 3.15 0 4.18 1.22 1.6 1.34-1.37 2.3-2.53 2.21-3.48-.02-6.97 0-10.45 0zm-4.23-14.98c-2.3.25-4.81.96-6.34 2.82-.55.76-1.2 2.54.05 2.92 1.42.02 2.85-.11 4.18-.66 2.79-.96 5.62-1.9 8.23-3.27.06-.76-1.42-1.22-2.15-1.49-1.28-.36-2.64-.4-3.97-.32zM210.17 226c.3-3.18 1.63-6.14 2.84-9.06 1.13-2.5 3.83-3.7 6.38-4.2a42.9 42.9 0 0 1 12.08-.4c1.7.26 3.66.48 4.83 1.86.36.93-.42 2.35-1.47 2.07a14.41 14.41 0 0 0-6.27-.76c-1.45.1-2.91-.05-4.34.13-1.2.45-2.46.7-3.73.85a7.67 7.67 0 0 0-3.61 1.31c-2.06 1.34-3.27 3.63-3.77 5.98-.63 2.34-.35 4.78-.46 7.16-.8 0-2.2.88-2.48-.17-.56-1.05-.46-2.23-.19-3.34.07-.47.14-.95.19-1.42zm-16.43 4.93c-4-.07-8-.8-11.71-2.27-1.42-.57-2.88-1.6-3.07-3.24-.74-3.1-.4-6.73 1.9-9.13 3.18-3.3 8.1-4.28 12.52-3.76 2.45.31 5.12 1.56 5.95 4.06.33 1.14.6 2.7-.52 3.51-2.16 1.67-4.87 2.36-7.4 3.26-1.74.5-3.52 1.06-5.34.98-.28.72-1.17 1.2.03 1.56a25 25 0 0 0 6.52 1.54c3.3.05 6.6-.1 9.9.04 1.39.38 3.14 0 4.16 1.21 1.6 1.35-1.36 2.3-2.52 2.22-3.48-.01-6.95.01-10.42.02zm-4.2-14.98c-2.31.26-4.81.97-6.34 2.83-.55.76-1.2 2.54.04 2.92 1.42.02 2.86-.11 4.18-.67 2.79-.96 5.61-1.9 8.22-3.28.07-.75-1.39-1.2-2.1-1.47a12.2 12.2 0 0 0-4-.33zm-39.5 7.69c2.1 1.46 4.57-.73 6.88-.44 4.84-.6 9.65-1.71 14.52-1.81 3.37.6 4.42 4.47 4 7.42-.65 2.58.33 5.01.5 7.34-1.97 2.62-4.72-1.68-4.35-3.78.2-2.5 1.28-6.11-1.92-7.22-2.87-.55-5.86.08-8.72.58-3.6.73-7.13 1.77-10.77 2.31-2.51-.15-5.3-2.13-3.7-4.83 2.32-13.2 3.84-26.6 7.36-39.56.84-2.92 1.85-5.8 3.22-8.52 3.75-.39.67 4.07.61 5.98-3.23 13.99-6.4 28.18-7.63 42.53z"/><path d="M124.69 204.92c-1.8 7.98-2.86 16.1-4.47 24.12-.95 2.78-5.78 2.52-3.5-.93 1.9-11.3 3.85-22.61 7.03-33.63 1.62-3.46-2.33-2.34-4.41-2.46-6.3.09-12.64.11-18.86 1.13-2.04 1.66-7.27.93-4.79-2.4 2.52-1.5 5.68-1.14 8.48-1.7 13.16-1.53 26.38-3.02 39.65-2.83 5.24.04 10.46-.22 15.67-.8 2.32.02 6.2-.25 7.31 1.68-2.13 2.45-6.09.47-8.96 1.42-9 .53-18.05.76-27.02 1.71-3.7.79-3.86 5.05-4.62 8-.53 2.22-1.02 4.46-1.51 6.7z"/></g><g fill="#c34444" stroke="#6998be" stroke-linecap="round"><path fill="#35425b" d="M44.21 178A34.08 34.08 0 0 0 10 212.33a34.25 34.25 0 0 0 34.27 34.37 34.17 34.17 0 0 0 34.21-34.31c-.01-18.55-14.8-34.37-34.27-34.39z"/><path fill="#b6ff03" stroke="#527533" stroke-width="1.5" d="M24.3 211.62s.2-2.9.51-4.32a19.6 19.6 0 0 1 2.78-6.65l14.3-2.52a16.1 16.1 0 0 1 5.66.12c6.68 1.14 9.76 6.65 11.17 11.7l.75 4.28v0l5.07-.9v0s-.2 2.91-.51 4.33a19.57 19.57 0 0 1-2.78 6.65l-14.3 2.51c-1.92.35-3.76.2-5.66-.13-6.68-1.14-9.75-6.64-11.17-11.7l-.75-4.27v0zm13.5.7a6.63 6.63 0 1 0 13.24.3 6.62 6.62 0 1 0-13.24-.3z"/><path fill="#b6ff03" stroke="#527533" stroke-width="1.5" d="M21.52 217.06v0l-8.27 1.65v0s1.01 4.05 1.81 5.98a32.02 32.02 0 0 0 17.22 17.27 31.82 31.82 0 0 0 24.34.03 31.74 31.74 0 0 0 19.59-29.42c0-.44-.13-1.32-.13-1.32v0l-8.3 1.28c-.07 6.28-2.54 12-6.83 16.56a23.4 23.4 0 0 1-16.5 6.85c-9.73-.02-16.2-6.34-16.64-6.77-2.89-2.9-4.98-6.93-6.29-12.1zm54.08-10.75v0l-8.27 1.65v0c-2.1-8.25-5.49-12.04-9.95-14.93a23.23 23.23 0 0 0-17.53-3.5A23.35 23.35 0 0 0 25 199.47c-2.67 3.9-3.65 8.39-3.93 13v0l-8.3 1.29s-.13-.88-.13-1.32a31.92 31.92 0 0 1 9.3-22.51 31.7 31.7 0 0 1 44.95.03 32.06 32.06 0 0 1 6.9 10.35c.8 1.93 1.81 6 1.81 6z"/></g><path fill-opacity=".27" d="m100.97 28.36-20.39.03c-12 .09-15.28 1.09-15.45 8.42l-.04 36.41c.16 6.92 3.03 8.32 15.43 8.4l30.08-.03c22.46.51 32.19 4.47 33.26 18.11l-.02 46.33c-1.08 13.65-10.8 17.61-33.26 18.14l-38.43-.02c-22.47-.54-32.2-4.51-33.28-18.14v-22.18h27.08v19.56c.16 7 2.65 8.33 15.44 8.41h19.93c11.7-.07 15.27-1.18 15.44-8.4v-41.05c-.15-6.8-2.8-8.32-15.42-8.4l-30.07.02C48.8 93.45 39.08 89.5 38 75.87l.04-41.65c1.1-13.63 10.83-17.6 33.3-18.16l38.9-.06c22.49.5 32.21 4.44 33.27 18.07l-.04 22.2-27.1.03.03-19.56c-.14-6.99-2.62-8.32-15.43-8.38zM281.16 146.1l.29-79.41c-1.02-13.63-10.74-17.57-33.32-18l-45.17.14c-22.5.6-32.24 4.6-33.35 18.23l-.07 78.97c1.09 13.65 10.81 17.64 33.29 18.2l45.08.07c22.56-.48 32.19-4.46 33.25-18.2zm-84.98-2.7.09-73.76c.18-6.74 3.24-8.34 15.47-8.47l27.51-.09c12.25.05 15.3 1.63 15.44 8.37l-.18 73.97c-.16 6.86-2.8 8.38-15.43 8.45l-27.46-.02c-12.62-.1-15.28-1.63-15.44-8.45zm167.33 21.81 18.25-.22c22.87-.91 32.6-4.98 33.74-18.82l-.45-79.64c-1.18-13.67-11.04-17.68-33.73-18.28l-17.87-.02c-16.9.29-20 3.3-24.18 8.72l-2.2-.03-.05-8.65-27.37.12-.17 150.41 27.41.2-.47-43.19 2.3.05c3.58 5.22 6.47 9.06 24.79 9.35zm-27.34-22.81.75-72.23c.25-6.67 4.34-9.49 17.05-9.64h18c12.6.12 15.5 1.55 15.7 8.45l.73 74.65c-.23 7.28-2.78 8.6-15.9 9.07l-18.95.09c-13.14-.5-17.1-3.53-17.38-10.4zm206.68-93.5-96.81-.35.06 12.37 70.62.27-74.76 90.01-.04 13.21 101.04-.2v-12.38l-74.86.06L542.88 62zm102.66.16-40.66-.05c-22.49.5-32.2 4.45-33.27 18.08l.06 78.93c1.09 13.66 10.81 17.62 33.27 18.14l39.32-.02c22.45-.54 32.19-4.5 33.28-18.14v-12.3h-27.09v9.68c-.15 7-2.65 8.33-15.44 8.41h-20.82c-12.63-.07-15.27-1.6-15.43-8.4V111.3l80.1.03-.02-44.12c-1.1-13.62-10.83-17.6-33.3-18.15Zm-31.4 12.3 22.16.03c12.22.1 15.27 1.7 15.45 8.43l.02 29.15-53.02-.03-.03-29.18c.16-6.72 3.19-8.32 15.42-8.4z" filter="url(#b)"/><path fill="url(#c)" stroke="url(#radialGradient463)" stroke-linecap="round" stroke-linejoin="bevel" stroke-width="3" d="m645.5 43.07-40.65-.05c-22.49.5-32.2 4.45-33.27 18.08l.06 78.93c1.09 13.66 10.81 17.62 33.27 18.14l39.32-.02c22.45-.54 32.19-4.5 33.28-18.14v-12.3 0h-27.09v9.68c-.15 7-2.65 8.33-15.44 8.41h-20.82c-12.63-.07-15.27-1.6-15.43-8.4v-32.1 0l80.1.03-.02-44.12c-1.1-13.62-10.83-17.6-33.3-18.15Zm-31.39 12.3 22.16.03c12.22.1 15.27 1.7 15.45 8.43l.02 29.15-53.02-.03-.03-29.18c.16-6.72 3.19-8.32 15.42-8.4z"/><path fill="url(#d)" stroke="url(#radialGradient464)" stroke-linecap="round" stroke-linejoin="bevel" stroke-width="3" d="M542.85 42.9v0l-96.81-.34v0l.06 12.37 70.62.27-74.76 90.01-.04 13.21 101.04-.2v-12.38l-74.86.06L542.88 56z"/><path fill="url(#e)" stroke="url(#radialGradient465)" stroke-linecap="round" stroke-linejoin="bevel" stroke-width="3" d="m363.51 159.22 18.25-.22c22.87-.91 32.6-4.98 33.74-18.82l-.45-79.64c-1.18-13.67-11.04-17.68-33.73-18.28l-17.87-.02c-16.9.29-20 3.3-24.18 8.72l-2.2-.03v0l-.05-8.65v0l-27.37.12v0l-.17 150.41v0l27.41.2v0l-.47-43.19 2.3.05c3.58 5.22 6.47 9.06 24.79 9.35zm-27.34-22.81.75-72.23c.25-6.67 4.34-9.49 17.05-9.64h18c12.6.12 15.5 1.55 15.7 8.45l.73 74.65c-.23 7.28-2.78 8.6-15.9 9.07l-18.95.09c-13.14-.5-17.1-3.53-17.38-10.4z"/><path fill="url(#f)" stroke="url(#radialGradient466)" stroke-linecap="round" stroke-linejoin="bevel" stroke-width="3" d="m281.16 140.11.29-79.41c-1.02-13.63-10.74-17.57-33.32-18l-45.17.14c-22.5.6-32.24 4.6-33.35 18.23l-.07 78.97c1.09 13.65 10.81 17.64 33.29 18.2l45.08.07c22.56-.48 32.19-4.46 33.25-18.2zm-84.98-2.7.09-73.76c.18-6.74 3.24-8.34 15.47-8.47l27.51-.09c12.25.05 15.3 1.63 15.44 8.37l-.18 73.97c-.16 6.86-2.8 8.38-15.43 8.45l-27.46-.02c-12.62-.1-15.28-1.63-15.44-8.45z"/><path fill="url(#g)" stroke="url(#radialGradient467)" stroke-linecap="round" stroke-linejoin="bevel" stroke-width="3" d="m100.97 22.36-20.39.03c-12 .09-15.28 1.09-15.45 8.42l-.04 36.41c.16 6.92 3.03 8.32 15.43 8.4l30.08-.03c22.46.51 32.19 4.47 33.26 18.11l-.02 46.33c-1.08 13.65-10.8 17.61-33.26 18.14l-38.43-.02c-22.47-.54-32.2-4.51-33.28-18.14v-22.18 0h27.08v19.56c.16 7 2.65 8.33 15.44 8.41h19.93c11.7-.07 15.27-1.18 15.44-8.4V96.35c-.15-6.8-2.8-8.32-15.42-8.4l-30.07.02C48.8 87.45 39.08 83.5 38 69.87l.04-41.65c1.1-13.63 10.83-17.6 33.3-18.16l38.9-.06c22.49.5 32.21 4.44 33.27 18.07l-.04 22.2v0l-27.1.03.03-19.56c-.14-6.99-2.62-8.32-15.43-8.38z"/></svg>