<?xml version="1.0" encoding="UTF-8" standalone="no"?>
<svg
   xmlns:dc="http://purl.org/dc/elements/1.1/"
   xmlns:cc="http://creativecommons.org/ns#"
   xmlns:rdf="http://www.w3.org/1999/02/22-rdf-syntax-ns#"
   xmlns:svg="http://www.w3.org/2000/svg"
   xmlns="http://www.w3.org/2000/svg"
   xmlns:sodipodi="http://sodipodi.sourceforge.net/DTD/sodipodi-0.dtd"
   xmlns:inkscape="http://www.inkscape.org/namespaces/inkscape"
   version="1.1"
   viewBox="0 0 512 511.99998"
   id="svg24"
   sodipodi:docname="GLSL.svg"
   width="512"
   height="512"
   inkscape:version="0.92.4 (5da689c313, 2019-01-14)">
  <defs
     id="defs28" />
  <sodipodi:namedview
     pagecolor="#ffffff"
     bordercolor="#666666"
     borderopacity="1"
     objecttolerance="10"
     gridtolerance="10"
     guidetolerance="10"
     inkscape:pageopacity="0"
     inkscape:pageshadow="2"
     inkscape:window-width="640"
     inkscape:window-height="480"
     id="namedview26"
     showgrid="false"
     inkscape:zoom="1.045302"
     inkscape:cx="270.48628"
     inkscape:cy="246.96301"
     inkscape:current-layer="g20" />
  <title
     id="title2">OpenGL logo</title>
  <desc
     id="desc4">A graphics open standard API from Khronos Group</desc>
  <metadata
     id="metadata6">
    <rdf:RDF>
      <cc:Work
         rdf:about="">
        <dc:format>image/svg+xml</dc:format>
        <dc:type
           rdf:resource="http://purl.org/dc/dcmitype/StillImage" />
        <dc:title>OpenGL logo</dc:title>
      </cc:Work>
    </rdf:RDF>
  </metadata>
  <g
     transform="translate(-152,-93.300003)"
     id="g22">
    <g
       transform="matrix(0.97,0,0,0.97,7.94,16.6)"
       id="g20"
       style="fill-rule:evenodd">
      <path
         inkscape:connector-curvature="0"
         style="fill:#989898;fill-opacity:1;stroke-width:2.99100161"
         d="m 245.28454,369.4723 c 7.41769,35.29382 47.55693,69.69034 173.7772,84.94445 119.341,14.50636 197.10704,-21.89413 223.42786,-38.88302 0,0 17.73664,-7.77661 7.08867,4.24722 0,0 -75.07414,69.09214 -222.82965,69.98944 C 279.29223,490.47626 162.04497,416.49085 162.94227,341.4167 162.2334,266.64166 279.29223,192.46482 426.74862,193.06302 c 147.45641,0.70588 222.82965,69.98944 222.82965,69.98944 10.64797,11.99392 -7.08867,4.24722 -7.08867,4.24722 -26.23109,-16.92907 -103.78776,-50.24883 -223.42786,-38.88302 -117.84546,11.30599 -156.13029,51.14613 -168.99159,77.76604 -4.90525,10.31896 -7.1485,20.06963 -7.68688,29.8502 0.21416,13.24398 -1.32938,12.04916 2.90127,33.4394 z"
         id="path839-4" />
      <path
         style="fill:#989898;fill-opacity:1;stroke-width:4.09142494"
         d="m 364.24386,255.17255 c -58.02863,0 -84.12823,43.63943 -84.12823,90.14029 0,59.55372 37.7543,88.92473 79.20334,88.92473 31.47664,0 44.65018,-15.42092 53.76077,-25.82243 l 3.59452,21.29695 h 23.92213 V 337.92914 H 368.7804 l -0.2312,-0.11516 v 28.63137 h 39.97758 c -7.22282,34.32497 -33.56912,37.4031 -41.44853,37.4031 -24.459,0 -50.06706,-11.82956 -50.06706,-58.33042 0,-43.64554 23.63262,-61.18041 49.24074,-61.18041 25.36187,0 37.59782,21.33344 37.59782,27.94146 h 35.90386 C 437.70169,289.02862 416.77342,255.1724 364.24395,255.1724 Z m 100.15895,4.23804 V 429.50676 H 585.87275 V 398.7071 H 500.5133 l -0.19831,-0.19711 V 259.41047 Z"
         id="path837-4"
         inkscape:connector-curvature="0" />
      <path
         style="fill:#5586a4;stroke-width:2.99100161"
         d="m 245.16326,358.01509 c 7.41768,35.29382 47.55693,69.69034 173.7772,84.94445 119.34099,14.50635 197.10704,-21.89414 223.42785,-38.88303 0,0 17.73664,-7.7766 7.08868,4.24723 0,0 -75.07415,69.09214 -222.82966,69.98944 -147.45638,0.70587 -264.70365,-73.27955 -263.80635,-148.35369 -0.70886,-74.77504 116.34997,-148.95188 263.80635,-148.35368 147.45641,0.70587 222.82966,69.98944 222.82966,69.98944 10.64796,11.99392 -7.08868,4.24722 -7.08868,4.24722 -26.23108,-16.92907 -103.78776,-50.24883 -223.42785,-38.88302 -117.84547,11.30599 -156.13029,51.14613 -168.9916,77.76604 -4.90524,10.31896 -7.14849,20.06962 -7.68687,29.8502 0.21415,13.24398 -1.32938,12.04916 2.90127,33.4394 z"
         id="path839"
         inkscape:connector-curvature="0" />
      <path
         style="fill:#5586a4;stroke-width:4.09142494"
         d="m 364.12257,243.71534 c -58.02863,0 -84.12823,43.63943 -84.12823,90.14029 0,59.55372 37.75431,88.92472 79.20334,88.92472 31.47664,0 44.65018,-15.42091 53.76077,-25.82242 l 3.59453,21.29695 h 23.92212 v -91.78296 h -71.81598 l -0.23121,-0.11515 v 28.63136 h 39.97761 c -7.22282,34.32498 -33.56912,37.40311 -41.44852,37.40311 -24.45901,0 -50.06707,-11.82956 -50.06707,-58.33043 0,-43.64553 23.63262,-61.1804 49.24074,-61.1804 25.36187,0 37.59782,21.33344 37.59782,27.94146 h 35.90387 c -2.05192,-23.25046 -22.9802,-57.10668 -75.50967,-57.10668 z m 100.15896,4.23804 v 170.09617 h 121.46993 v -30.79966 h -85.35948 l -0.1983,-0.19711 V 247.95326 Z"
         id="path837"
         inkscape:connector-curvature="0" />
    </g>
  </g>
</svg>
