<?xml version="1.0" encoding="UTF-8" standalone="no"?>
<svg
   inkscape:version="1.3.2 (091e20e, 2023-11-25, custom)"
   sodipodi:docname="quakeengine.svg"
   xml:space="preserve"
   enable-background="new 0 0 1151.492 1735.227"
   viewBox="0 0 1107.492 1536.7049"
   height="1536.705"
   width="1107.4919"
   y="0px"
   x="0px"
   id="Layer_1"
   version="1.1"
   xmlns:inkscape="http://www.inkscape.org/namespaces/inkscape"
   xmlns:sodipodi="http://sodipodi.sourceforge.net/DTD/sodipodi-0.dtd"
   xmlns="http://www.w3.org/2000/svg"
   xmlns:svg="http://www.w3.org/2000/svg"
   xmlns:rdf="http://www.w3.org/1999/02/22-rdf-syntax-ns#"
   xmlns:cc="http://creativecommons.org/ns#"
   xmlns:dc="http://purl.org/dc/elements/1.1/"><metadata
   id="metadata20"><rdf:RDF><cc:Work
       rdf:about=""><dc:format>image/svg+xml</dc:format><dc:type
         rdf:resource="http://purl.org/dc/dcmitype/StillImage" /></cc:Work></rdf:RDF></metadata><defs
   id="defs18">
		
	
			
			
		
				
			
	
	
</defs><sodipodi:namedview
   inkscape:current-layer="Layer_1"
   inkscape:window-maximized="1"
   inkscape:window-y="-8"
   inkscape:window-x="1912"
   inkscape:cy="794.42708"
   inkscape:cx="813.31391"
   inkscape:zoom="0.42357569"
   showgrid="false"
   id="namedview16"
   inkscape:window-height="1027"
   inkscape:window-width="1920"
   inkscape:pageshadow="2"
   inkscape:pageopacity="0"
   guidetolerance="10"
   gridtolerance="10"
   objecttolerance="10"
   borderopacity="1"
   bordercolor="#666666"
   pagecolor="#ffffff"
   inkscape:showpageshadow="2"
   inkscape:pagecheckerboard="0"
   inkscape:deskcolor="#d1d1d1" />
<path
   style="fill:#ffffff;fill-opacity:1"
   id="path2"
   d="M 496.419,1057.182 C 217.757,1027.931 0,790.176 0,503.919 0,280.117 132.76,87.315 323.831,0 l -0.016,17.282 C 173.695,99.297 71.873,258.61 71.873,441.728 c 0,209.292 185.223,445.354 424.546,479.224 0,-48.748 0,-165.24 0,-197.812 C 485.079,683.929 418,682.831 418,682.831 v -12.267 h 272.582 v 12.267 c 0,0 -67.035,1.098 -78.422,40.309 0,32.571 0.106,149.107 0.106,197.812 234.892,-28.938 426.32,-232.122 426.32,-479.224 0,-184.416 -102.805,-342.778 -254.093,-424.445 V 0 c 190.614,87.5 322.999,280.636 322.999,504.106 0,301.902 -216.692,525.661 -495.242,553.075 v 0.166 l -0.003,175.701 -60.881,303.657 -54.947,-303.657 z" />

</svg>
