<?xml version="1.0" encoding="UTF-8" standalone="no"?>
<svg
   id="Layer_1"
   data-name="Layer 1"
   viewBox="0 0 304.16281 301.32104"
   version="1.1"
   sodipodi:docname="unreal45.svg"
   inkscape:version="1.3.2 (091e20e, 2023-11-25, custom)"
   width="304.16281"
   height="301.32104"
   xmlns:inkscape="http://www.inkscape.org/namespaces/inkscape"
   xmlns:sodipodi="http://sodipodi.sourceforge.net/DTD/sodipodi-0.dtd"
   xmlns="http://www.w3.org/2000/svg"
   xmlns:svg="http://www.w3.org/2000/svg"
   xmlns:rdf="http://www.w3.org/1999/02/22-rdf-syntax-ns#"
   xmlns:cc="http://creativecommons.org/ns#"
   xmlns:dc="http://purl.org/dc/elements/1.1/">
  <metadata
     id="metadata13">
    <rdf:RDF>
      <cc:Work
         rdf:about="">
        <dc:format>image/svg+xml</dc:format>
        <dc:type
           rdf:resource="http://purl.org/dc/dcmitype/StillImage" />
      </cc:Work>
    </rdf:RDF>
  </metadata>
  <sodipodi:namedview
     pagecolor="#ffffff"
     bordercolor="#666666"
     borderopacity="1"
     objecttolerance="10"
     gridtolerance="10"
     guidetolerance="10"
     inkscape:pageopacity="0"
     inkscape:pageshadow="2"
     inkscape:window-width="1792"
     inkscape:window-height="930"
     id="namedview11"
     showgrid="false"
     inkscape:zoom="2.2857143"
     inkscape:cx="115.28125"
     inkscape:cy="156.1875"
     inkscape:current-layer="Layer_1"
     inkscape:showpageshadow="2"
     inkscape:pagecheckerboard="0"
     inkscape:deskcolor="#d1d1d1"
     inkscape:window-x="0"
     inkscape:window-y="0"
     inkscape:window-maximized="0" />
  <defs
     id="defs4">
    <style
       id="style2">.cls-1{fill:#fff;fill-rule:evenodd;}</style>
  </defs>
  <ellipse
     style="fill:#3b3b3b;fill-opacity:1;stroke:#000000;stroke-width:5.79979;stroke-miterlimit:4;stroke-dasharray:none;stroke-opacity:1"
     id="path820"
     cx="152.08141"
     cy="150.66052"
     rx="149.18152"
     ry="147.76064" />
  <path
     class="cls-1"
     d="m 239.29807,171.16925 v 0 c -2.53182,12.04727 -13.78442,42.97217 -49.67474,59.71643 l -14.41059,-16.00924 -24.32011,24.14831 a 89.748497,88.651378 0 0 1 -70.982079,-35.96252 34.964708,34.537286 0 0 0 7.94941,1.47901 c 3.98378,0.0717 8.29425,-1.37144 8.29425,-7.97772 V 131.39714 A 10.889605,10.756486 0 0 0 82.496832,120.64066 c -11.261666,2.56363 -20.254666,30.31536 -20.254666,30.31536 A 89.331063,88.239046 0 0 1 93.159571,83.333567 90.610591,89.502934 0 0 1 138.77794,62.546658 c -12.29618,6.920006 -19.202,18.205353 -19.202,27.671069 0,15.238353 9.29247,13.391823 12.04209,11.150893 v 87.9522 a 14.156487,13.983433 0 0 0 1.81493,3.09249 13.149199,12.988458 0 0 0 10.75348,5.37824 c 9.30154,0 21.37086,-10.48757 21.37086,-10.48757 v -71.19002 c 0,-7.24269 -5.52648,-15.9913 -11.06203,-18.994163 0,0 10.2453,-1.79274 18.14935,4.186073 v 0 a 67.72427,66.896384 0 0 1 4.7279,-5.136223 c 18.44881,-17.882664 35.8268,-22.974068 50.3009,-25.51977 v 0 c 0,0 -26.31655,20.42836 -26.31655,47.839473 0,20.38355 0.53541,70.09644 0.53541,70.09644 9.76434,9.31333 24.28382,-4.14125 37.40579,-17.41654 z"
     id="path6"
     style="fill:#ffffff;fill-opacity:1;fill-rule:evenodd;stroke:none;stroke-width:0.901903;stroke-opacity:1"
     inkscape:connector-curvature="0" />
  <path
     class="cls-1"
     d="M 152.08141,5.3042202 A 146.77374,144.97951 0 1 0 298.85515,150.28374 146.77374,144.97951 0 0 0 152.08141,5.3042202 Z m 0,284.1505298 A 140.90242,139.17997 0 1 1 292.98383,150.28374 140.90242,139.17997 0 0 1 152.08141,289.46371 Z"
     id="path8"
     style="fill:#ffffff;fill-opacity:1;fill-rule:evenodd;stroke:#ffffff;stroke-width:3.86652;stroke-miterlimit:4;stroke-dasharray:none;stroke-opacity:1"
     inkscape:connector-curvature="0" />
</svg>
