<svg width="800" height="800" viewBox="0 0 512 512" xml:space="preserve" xmlns="http://www.w3.org/2000/svg"><path fill-rule="evenodd" clip-rule="evenodd" d="M146 124c-2-15 12-8 10 1-2 2-7 0-10-1zm16-2c4-1 7-1 8-4-5-3-12 4-9 8 2 0 0-4 1-4zm-46 9c3-1 8-1 9-4-8-3-24 0-26 5 6 0 12-5 17-1zm-19 2c-2-1-2 1-1 3l1-3zm-4 8c-1-4-10-7-11-2 1 3 8 5 11 2zm-16-4-4 2c1 1 4 1 4-2zm-5 11c7 0 9 6 15 6 2-8-13-17-15-6zm97 36c-2-7 5-13 1-19-6 0-11 26-3 26 6 0 8-15 8-21-4 3-2 11-6 14zm-68-3-2-1c0 1 1 2 2 1zm20 12c0-3 0-5-2-5-2-1-2 1-3 1 1 2 2 4 5 4zm-20 13c8 1 13 7 21 7-6-4-12-8-22-9l1 2zm62 6c0-3-2-5-3-7 0 3 1 6 3 7zm-45 9c-5-7-13-13-22-14 1 11 13 11 22 14zm-14 3c-3-6-9-10-17-12 4 5 8 13 17 12zm-19-6c2 2 5 5 4 8-3-1-5-4-9-5 2 3 10 15 14 15 3-1 5-4 4-9-2-5-9-7-13-9zm21 11c1 2 1 5 5 5-1-3-2-4-5-5zm-3 1-2 1 1 1c1 0 2-1 1-2zm70 9v-9c0 3-2 8 0 9zm-28-8c0 2-1 6 1 7l-1-7zm19 9h-4c-1-3 0-7-3-8-4 7-3 22 2 26 2 2 2 4 5 5 2-2 3-6 3-10-5-1 0-10-3-13zm12 5c1-4 4-9 2-13-1 3-3 8-2 13zm-72 3c1-2 0-5-1-6-1 1-2 6 1 6zm8 1c1 2 1 4 4 5 3-4-3-11-4-5zm70 9c0 1-2 3-1 4 0-1 2-3 1-4zm3 16c0-2 1-4-1-5 0 1-1 4 1 5zm-52 16 2 4c1-2 1-4-2-4zm19 2c0 2 2 4 3 3l-3-3zm39 5c-2 5 1 9 3 12 1-4 1-11-3-12zm10 32c1-2 1-6-1-6-1 1-2 5 1 6zm18 19c0-3-3-6-5-6 1 3 1 7 5 6zm4 6 1 5-1-5zm-135 0 1 3-1-3zm150 23c-1-8-5-12-10-16 0 8 4 13 10 16zm66 40h-2c0 1 1 2 2 0zm208 31v4l-2 5c-11 8-33 5-42 14-16-9-32 5-49 7h-9l-31 4-33 2h-12c-51-3-101-10-138-26a254 254 0 0 1-94-71c-12-16-24-31-34-48a431 431 0 0 1-48-117c-3-15-7-33-14-47-2-6-5-10-6-16v-3c3-18 16-28 32-32l11-5s3 0 2-1c-7-2-13 8-21 5-7-2-3-13 5-16 3-2 10-2 13-4 6-3 8-9 7-15 0-4-4-6-4-9 0-4 7-7 11-9 4-3 9-7 8-12 0-5-6-6-9-10-4-6-5-15 2-18 8-4 22-2 23 8 2 8-4 11-2 17 5 12 41-6 32 17 8 13 39 2 39 22 13 0 19 10 29 14l9 2c18 6 39 12 47 29-7 4-16 1-23-1-7-3-17-7-23-5-7 3-6 15-6 26 3 30 4 61 9 88 6 38 18 68 37 91 17 23 38 47 64 64 23 14 48 25 80 32 5 1 11 4 13 3 4-1 12-12 15-15 8-6 17-15 27-7-1 11-11 13-13 23 6 4 12 0 20 1 8 0 15 5 23 4 4 0 7-4 10-6 8 12 40-4 45 11zm-89-31-1-3c-1 0-3 4 1 3zM216 129l12 8c2-6-4-10-12-10v2zm111 302c1 0 2 1 3-1l-3 1zm-57-36c0 2 4 2 5 2-1-2-3-3-5-2zm-10-8 4 1-1-4c-2 0-3 1-3 3zm-78-167h-3c1-11 4-26-1-35h-3c3-7 5-21 4-30-1-3-2-8-4-9-4-3-8 1-11 2l-7 1c-8 1-17 3-22 6 3 2 7 2 8 6l-19-4c1 9-10 6-17 7 2 0 2 1 3 3 0 5-18 12-24 7-9 8 4 15 3 24l-4 5c-9 0-18 2-16 11l-5-1c-2 6 2 12 7 14 1-1 1-2 3-2 11 2 15 10 15 24-1 3 0 6-2 7-7 0-12-16-2-16-3-4-4-10-9-9-5 0-8 8-12 11 6 3 19 11 8 17 5 1 8 3 10 6 4 4 4 12 7 16 5 8 8-7 14-1 2 0 0-2 0-2-6-6-14-11-18-18 3-1 6 0 9 1 0-5-3-11-2-14s3-2 4-3c1 0 1-3 2-2 0 6-3 15 1 19 5 1 7-8 12-8 2 0 5 4 7 7s5 6 4 9c-1 7-12 2-16-1 2 9 16 11 17 22v5c0 6 6 11 12 7 1 2 1 5 4 6 2-2 1-6 2-9 7 2 11 5 13 11 1 3 1 8 5 8 1-7-4-11-5-18 3 6 17 13 16 22 0 6-8 7-15 8 7 2 10 10 17 12l7 1c5 2 14 13 11 20-11 5-20-10-33-10 6 7 14 9 22 12l23 11c18 8 31 19 42 33-8 5-33-3-18-8-5 0-10-3-15-2 3 16 23 14 39 16l-5 7 5 1c-1 2-4 2-4 4 2 3 6 4 9 6 10-8 11 9 18 9 6 1 8-8 14-9l-6 8c6-1 8-5 13-6 18-5 33 11 48 12l16 5c6 1 10-1 15-3-8-7-24-5-30-13l2-3c-19 5-32-7-40-18-23-6-44-15-54-34-1-2 2-1 1-3-8-10-17-19-23-30l-7-11-6-5c-2-2-2-5-5-6l-1 7c-2-8-6-15-15-16 0-5 5-6 7-9-3-4-4-9-6-15l-11-43c-4 2-6 7-8 11 0-6 1-11 4-14l2 2c1-3 4-5 2-9-1-2-4-1-5-1 2-5 4-14 2-19zm164 243c4-2 7-4 9-7-4 1-10 2-9 7zm1-9-7 5c4 0 8-3 7-5zm-13 7 5-5c-3 0-7 2-5 5zm2-10c-4-1-7 2-7 5 3 0 5-2 7-5zm-12 1c-3 1-6 2-7 5 4 2 7-2 7-5zm-6 11 3-1c-1-1-3-1-3 1zm7-18c-6-1-13 3-9 8 4-2 8-4 9-8zm-28 8c3 0 4-4 7-3 1 1 0 4 3 4 5-1 7-8 4-14-8 2-14 6-14 13zm1-11-5 4c2 0 6-3 5-4zm-11 2c0 1-2 2 0 3 0-1 2-3 0-3zm-7 10-1 2h2l-1-2zm-7-2c-2 0-2 1-2 4 1-1 3-1 2-4zm-41-21c-3 0-3 0 0 1h9l-9-1zm12-7c-2-1-6 0-8 1 1 3 7 2 8-1zm-13 31c10 6 25 11 39 10-10-6-26-8-39-10zm-15-4 5 2c3-3-4-5-5-2zm-38-34c-3 1-6 1-7 3 3 1 6 0 7-3zm-8 11c1 1 2 2 3 0h-3zm5-35c0-1-3-2-4-1 1 1 2 2 4 1zm5 14v-1l-5-1c0 2 3 3 5 2zm0 26h3l-1-2-2 2zm13-47c-1-4-6-3-9-4-4-2-8-7-14-7h-1c5 6 12 13 24 11zm-21-15c-4-2-8-5-14-6 2 5 9 6 14 6zm12 19c3 3 7 6 13 5-2-3-8-5-13-5zm16 19c-4-3-11-8-16-7 3 4 9 8 16 7zm-16 15v2c1 1 2-1 0-2zm10 13 3 2c1-1 2-1 1-3-1-1-4-1-4 1zm8-18c-2-1-6-2-7 0 2 1 6 3 7 0zm1-14c0-3-3-3-5-2 1 2 3 1 5 2zm4-22c-1-3-7-3-10-4-3-3-9-4-15-3 7 4 14 7 25 7zm0 39c1 2 4 2 7 3v-3c-1-1-6-2-7 0zm-35-66c0-2-1-3-3-2 0 2 2 1 3 2zm10 5c-2-1-1-3-3-3-1 2 1 4 3 3zm-29 2c-1-3-4-4-6-6 4-6-5-8-7-12l1-3c-3-2-7-3-9-7l7-1c-2-1-5-2-6-4 2-4 8-2 9-6-7-2-14-5-22-5 0 3 3 3 4 5l-8-2c0 2 2 2 1 5l-5-1c1 4 6 5 7 9h-5c5 4 11 7 14 12l-11-5c4 7 12 8 17 12 7 3 12 8 19 9zm-9 5c2 1 5 4 8 2-2-1-5-3-8-2zm-3-2c-1-2-7-3-9-1 3 0 6 2 9 1zm-7 1-1 2h3l-2-2zm-6-54c-1-4-2-8-5-11l-5-4c-3-5-2-13-6-19h-3c0 3 6 9 2 12-10 1-13-7-22-5-2 5 5 8 3 11 13 5 23 14 36 16zm-29 12c2 2 6 5 9 5-3-2-5-6-9-5zm-5-3c-1-4-3-6-7-7 1 4 5 5 7 7zm-7 10 7 6c-2-3-4-6-7-6zm3-28 1-2c-1-1-4 0-4 1l3 1zm64 16c0-3-4-5-7-3 1 2 4 3 7 3zm-39-53h-2s2 2 2 0zm-16-2h-1l-1 3h3l-1-3zm-30 0c1 3 6 2 7-1-2-1-5 0-7 1zm1-12-4 1c0 1 4 1 4-1zm3-66h-8c2 8 16 4 15-2-1-5-14-4-19-4 4 3 9 3 12 6zm-16 8 4 2 1-3c-1 0-5-1-5 1zm21-2v3-3zm11-24 1-3c-1 0-3 0-3 2l2 1zm0-91c-2 10 7 22 18 18 1-4-1-5-1-8 3-1 4 2 6 1-4-7-15-8-23-11zm-4-10c3 1 9 1 10-2-3-2-11-2-10 2zM75 40c0-8-9-13-15-7-4 3-5 11 0 14l-2-6c5-3 12 1 17-1zm-3 26c1-1 2-1 2-3-1 1-3 2-2 3zm-9 30c5 0 9-3 14-3 4 0 9 2 14 1-4-11-22-1-28 2zm-8 19c10-1 24-8 36-6 5 0 10 3 12 5-1-1-3-7 0-8 7 1 7 14 16 12 4-1 5-9 3-14 3 2 5 6 9 7-1-4-4-6-6-9 1-2 3-3 3-6-12-1-23 5-34 8l-22 5c-6 1-12 2-17 6zm-34 85v2-2zm14-49c-18 3 2 22 12 17 2-2 1-4 1-7 6 1 11-2 16-1 1 2 0 4-1 5 19-1 28-15 48-18h8l27-3 24-7c9-2 23-8 21-20l-2-4c-49-5-85 14-124 22-4 1-10 0-14 4 2 3 6 3 9 6-2 1-4 0-5 2 1 4 6 3 7 7-8 6-25-2-21-13-13 3-31 5-31 19 0 6 4 12 8 15-3-13 2-32 17-24zm15 77c1-3-4-5-5-3l5 3zm-14 5c3 10 4 22 12 28-2-12-6-21-12-28zm17-11c2-5-7-8-7-4-1 4 5 3 7 4zm2-11c-2-2-6-3-10-2 1 3 9 7 10 2zm-5-18c2-1 4-2 4-5-2-1-8-2-8 1-1 2 2 3 4 4zm5 7v-3c-2 0-3 1-3 3h3zm-28-2-2-3c-1 1-1 3 2 3zm4-28c-2 0-5 0-6 2l4 2 2-4zm4 53c-1-2-1-5-3-7-6 1 0 9 3 7zm8 44c4 10 8 21 17 25-6-7-8-19-12-27l-6-9c-3-7-5-15-11-18 2 10 8 20 12 29zm113 154c-3-8-9-13-19-14-2-6-9-7-10-13 0-2 3-2 2-3-13 3-13-11-19-16-15 0-12-18-21-28l-7-6c-4-13-15-19-21-30-5-10-6-22-15-29 7 24 22 45 36 65 11 16 18 32 30 45l14 11c9 7 15 20 30 18zm-2-28c0-1-3-3-5-2l5 2zm15-10c-2-4-8-5-14-7-6-3-16-5-21-2 1 4 4 5 6 8l15 4c6 0 12 0 14-3zm196 93c-13-6-31 1-44-2l-7-3-7 1c-11 1-22 0-32-1l-22-4c-7-1-14-5-20-8l-20-8c-13-5-26-14-40-17 9 9 25 12 35 20-15-4-26-12-39-17 10 9 25 15 39 21 15 6 30 11 47 13 34 5 74 13 110 5zm10-1c-2 0-4-1-4 1 1 2 4 2 4-1zm23-49c0 4 5 3 4-1l-4 1zm34 22c-11 0-25-4-36-4-5 0-10 1-12 6h12c13 0 29 6 36-2zm11-1c-2 0-3 1-3 3h3v-3zm24-2c-2 0-3 3-2 4l2-1v-3zm34 3c-9-1-18-1-26 1 5 4 21 1 26-1zM107 199c4 2 7 7 13 6l-5-5 3-2c-5-3-11-8-14-12 2 3 4 8 3 13zm52 3c-1-1 0-3-2-4 0 2 1 5 2 4zm-38 36c1 6 5 9 6 16-5-5-8-13-11-20 0 9 2 14 5 20 1 4 3 10 7 11 2 0 2-3 4-3 3 0 4 4 5 3l-1-5 3-2c-4-9-10-15-18-20z" style="fill:#fff;fill-opacity:1"/></svg>