<?xml version="1.0" encoding="UTF-8" standalone="no"?>
<svg
   version="1.0"
   viewBox="0 0 7.2335334 6.6946101"
   id="svg1"
   sodipodi:docname="jbeam.svg"
   xml:space="preserve"
   width="7.2335334"
   height="6.6946101"
   inkscape:version="1.3.2 (091e20e, 2023-11-25, custom)"
   xmlns:inkscape="http://www.inkscape.org/namespaces/inkscape"
   xmlns:sodipodi="http://sodipodi.sourceforge.net/DTD/sodipodi-0.dtd"
   xmlns="http://www.w3.org/2000/svg"
   xmlns:svg="http://www.w3.org/2000/svg"><defs
     id="defs1" /><sodipodi:namedview
     id="namedview1"
     pagecolor="#505050"
     bordercolor="#ffffff"
     borderopacity="1"
     inkscape:showpageshadow="0"
     inkscape:pageopacity="0"
     inkscape:pagecheckerboard="1"
     inkscape:deskcolor="#505050"
     inkscape:zoom="64"
     inkscape:cx="3.3046875"
     inkscape:cy="2.7265625"
     inkscape:window-width="1920"
     inkscape:window-height="1027"
     inkscape:window-x="1912"
     inkscape:window-y="-8"
     inkscape:window-maximized="1"
     inkscape:current-layer="svg1" /><circle
     style="font-variation-settings:'wght' 700;fill:#fe6305;fill-opacity:1;stroke-linecap:round;stroke-linejoin:round"
     id="path1"
     cx="5.2574854"
     cy="0.92215568"
     r="0.92215568" /><circle
     style="font-variation-settings:'wght' 700;fill:#fe6305;fill-opacity:1;stroke-linecap:round;stroke-linejoin:round"
     id="path2"
     cx="5.8922162"
     cy="5.3532929"
     r="1.3413174" /><circle
     style="font-variation-settings:'wght' 700;fill:#fe6305;fill-opacity:1;stroke-linecap:round;stroke-linejoin:round"
     id="path3"
     cx="1.7125748"
     cy="3.2814372"
     r="1.7125748" /><path
     style="font-variation-settings:'wght' 700;fill:#ffffff;fill-opacity:1;stroke-linecap:round;stroke-linejoin:round"
     d="M 3.0115317,1.8045939 4.0818442,1.0741252 c 0,0 0.062675,0.2833314 0.1325002,0.4081815 0.064734,0.1157465 0.2581248,0.302756 0.2581248,0.302756 L 3.515438,2.4452189 c 0,0 -0.1229261,-0.2386149 -0.2050782,-0.34375 C 3.2239077,1.9908307 3.0115317,1.8045939 3.0115317,1.8045939 Z"
     id="path5"
     sodipodi:nodetypes="ccsccsc" /><path
     style="font-variation-settings:'wght' 700;fill:#ffffff;fill-opacity:1;stroke-linecap:round;stroke-linejoin:round"
     d="m 5.1443442,2.0741252 c 0,0 0.2862597,0.00239 0.421875,-0.036782 0.1350677,-0.039011 0.375,-0.1930319 0.375,-0.1930319 L 6.179641,3.7811564 c 0,0 -0.2604584,-0.032702 -0.3900748,-0.020366 C 5.653149,3.7737732 5.390438,3.8592814 5.390438,3.8592814 Z"
     id="path6"
     sodipodi:nodetypes="csccscc" /><path
     style="font-variation-settings:'wght' 700;fill:#ffffff;fill-opacity:1;stroke-linecap:round;stroke-linejoin:round"
     d="M 4.6755942,4.3475626 3.6052817,3.8358439 c 0,0 -0.064481,0.2681519 -0.1230469,0.390625 C 3.4234912,4.3493132 3.2576255,4.5624064 3.2576255,4.5624064 L 4.327938,5.0858439 c 0,0 0.055636,-0.2653406 0.1124354,-0.3871171 0.059554,-0.1276823 0.2352208,-0.3511642 0.2352208,-0.3511642 z"
     id="path7"
     sodipodi:nodetypes="ccsccsc" /></svg>
