<svg viewBox="0 32 80.1 53.6" width="80.1" height="53.6" xmlns="http://www.w3.org/2000/svg"><path fill="#ca2727" d="M10.4 84.2c0-.8.8-1.6 2-2.2 2-.7 3-2.5 6.8-10.3A528.4 528.4 0 0 0 36.6 35c.6-2.5.8-2.5 3.5-2.9l3-.2L48 42.6c2.5 5.8 7.8 16.8 11.7 24.4 6.4 12.9 7 14 9.2 15.2 1.3.6 2.3 1.6 2.3 2 0 1.2-1.2 1.2-10.7 1.2-9.8 0-11 0-11-1 0-.8 1-1.4 2.2-2 1.3-.2 2.3-1 2.3-1.5 0-.6-1.4-4-3-7.9l-2.8-6.6H26.6l-2.1 4.7c-4 8.4-4 10.5-.4 11.5 2 .4 2.4.8 2 1.6 0 1-1 1.2-7.9 1.2-7.4 0-7.8 0-7.8-1.2zM46 62.9c.4-.6-7.8-18.4-8.6-18.6a125.1 125.1 0 0 0-9 18.6c0 .6 17.2.8 17.6 0z" style="stroke-width:1.95469"/><path fill="#333" d="M8.3 74.1a52 52 0 0 1-3.8-1l-2.6-.7L3.2 70l1.3-2.4-1-1.4c-1.6-1.8-3.5-6-3.5-7.3 0-3 4-7.6 9-10a9.8 9.8 0 0 1 9.4 0L21 50l.7-1c.4-.7.7-1.4.7-1.8 0-.4.4-.6.8-.6s.7.1.7.2c0 .3-3 7.8-3.2 8l-1.8-.8a18.8 18.8 0 0 0-8.3-2.6c-5.8-.2-7.8 5.5-3.7 10.5l1.4 1.8 4-3.2c4.4-3.6 5-3.7 8.4-1.3 3.9 2.7 4 6.8.2 11-3.3 3.8-6.7 5-12.6 4zm10-4.2c1.9-1.5 1.7-4.3-.4-6.5-2.6-2.8-3.4-2.7-8 1.2-4.6 3.8-4.7 3.7.8 5.4 3.7 1.2 6 1.2 7.5 0zm37.3 14.8-7.8-3.2c-8.2-3.6-9.4-3.7-11.8-.7-.6.7-1.2 1-1.4 1-.5-.6 1-3 3-4.8 1.5-1.3 2-1.5 3.7-1.3a47 47 0 0 1 7.9 2.8c7.4 3.1 9.6 3.8 12.4 3.8 3.5 0 5.2-2.4 4.2-5.6-.3-.8-.2-1 .3-1 1 0 1.5 3.6.8 5.8-.3 1-1.2 2.2-2 3-1.2 1-2 1.1-4.1 1.1-1.5 0-3.8-.4-5.2-.9zm-19-11.5a16 16 0 0 1-7.5-7.3c-2.5-5-1.7-8.3 3-12.7 4.2-3.7 7.5-5 12-5 3.2 0 3.9.1 6 1.3 4.9 3 6 9 3.1 15.2-3.6 7.5-10.9 11.2-16.6 8.5zm10-3.5c2.3-1 3.9-6.3 3.2-10.7-.8-5.3-8-9-13.3-6.7-5.4 2.4-5.5 8.5-.2 14.1 3.8 4 7 5 10.3 3.3zM57 74.2c0-.2.8-.6 1.9-.9l1.9-.4.4-6.9c.4-7.5 0-15-.7-16-.3-.3-1.2-.7-2-.9-3.4-.7-1.2-1.2 5.3-1.2s8.5.4 5.4 1.2c-2.6.7-2.6.7-2.6 11.5 0 6 .2 10.4.5 11 .4.8 1 1 3.5 1 5.1 0 6.9-1.2 8.3-5.7.4-1.3 1.5-1 1.1.3-.2.6-.5 2.5-.6 4.3l-.4 3.1H68c-6 0-11-.2-11-.4z" style="fill:#afafaf;fill-opacity:1"/></svg>