<svg width="800" height="800" viewBox="0 -58 256 256" preserveAspectRatio="xMidYMid" xmlns="http://www.w3.org/2000/svg"><path d="M78.07 92.59a23.2 23.2 0 1 0 0-46.42 23.2 23.2 0 0 0 0 46.42ZM23.2 139a23.2 23.2 0 1 0 0-46.42 23.2 23.2 0 0 0 0 46.42Zm209.58 0a23.2 23.2 0 1 0 0-46.42 23.2 23.2 0 0 0 0 46.42Z" style="fill:#fff;fill-opacity:1"/><path d="M156.57 70.36c-.75-7.76-1.12-14.21-7.06-18.75-7.53-5.74-16.05-2.01-26.55-5.8C112.65 43.3 105 34.15 105 23.24 105 10.4 115.58 0 128.63 0c9.66 0 17.97 5.7 21.63 13.88 5.6 10.64 1.96 21.47 9 26.92 8.33 6.46 19.57 1.73 32.1 7.85a23.61 23.61 0 0 1 9.84 8.43c2.4 3.64 3.8 7.98 3.8 12.64 0 10.91-7.65 20.07-17.96 22.57-10.5 3.78-19.02.06-26.55 5.8-8.45 6.46-3.93 17.27-10.82 28.68a23.67 23.67 0 0 1-21.04 12.67c-13.05 0-23.63-10.4-23.63-23.24 0-9.33 5.58-17.37 13.64-21.07 12.53-6.12 23.77-1.39 32.1-7.85 4.8-3.72 5.83-9.47 5.83-16.92Z" fill="#D0021B"/></svg>