<svg xmlns="http://www.w3.org/2000/svg" width="512" height="512"><g style="fill-rule:evenodd"><path style="fill:#989898;fill-opacity:1;stroke-width:2.99100161" d="M245.3 369.5c7.4 35.3 47.5 69.7 173.8 85 119.3 14.4 197-22 223.4-39 0 0 17.7-7.7 7 4.3 0 0-75 69-222.8 70-147.4.7-264.7-73.3-263.8-148.4-.7-74.8 116.4-149 263.8-148.3 147.5.7 222.9 70 222.9 70 10.6 12-7.1 4.2-7.1 4.2-26.2-17-103.8-50.2-223.4-38.9-117.9 11.3-156.2 51.2-169 77.8a78 78 0 0 0-7.7 29.8c.2 13.3-1.3 12 2.9 33.5z" transform="matrix(.97 0 0 .97 -144 -76.7)"/><path style="fill:#989898;fill-opacity:1;stroke-width:4.09142494" d="M364.2 255.2c-58 0-84 43.6-84 90.1 0 59.6 37.7 89 79.1 89 31.5 0 44.7-15.5 53.8-25.9l3.6 21.3h23.9V338h-72.1v28.5h40c-7.2 34.4-33.5 37.4-41.4 37.4-24.5 0-50-11.8-50-58.3 0-43.6 23.5-61.2 49.2-61.2 25.3 0 37.5 21.4 37.5 28h36c-2.1-23.3-23-57.1-75.6-57.1Zm100.2 4.2v170.1h121.5v-30.8h-85.4l-.2-.2v-139Z" transform="matrix(.97 0 0 .97 -144 -76.7)"/><path style="fill:#5586a4;stroke-width:2.99100161" d="M245.2 358c7.4 35.3 47.5 69.7 173.7 85 119.4 14.5 197.1-22 223.5-39 0 0 17.7-7.7 7 4.3 0 0-75 69.1-222.8 70C279.2 479 162 405 162.8 330c-.7-74.8 116.4-149 263.8-148.4 147.5.7 222.9 70 222.9 70 10.6 12-7.1 4.2-7.1 4.2C616 239 538.6 205.6 418.9 217c-117.8 11.3-156 51.1-169 77.7a78 78 0 0 0-7.6 29.9c.2 13.2-1.4 12 2.9 33.4z" transform="matrix(.97 0 0 .97 -144 -76.7)"/><path style="fill:#5586a4;stroke-width:4.09142494" d="M364.1 243.7c-58 0-84.1 43.7-84.1 90.2 0 59.5 37.7 88.9 79.2 88.9 31.5 0 44.6-15.4 53.8-25.8l3.6 21.3h23.9v-91.8h-71.8l-.3-.1V355h40c-7.2 34.3-33.6 37.4-41.4 37.4-24.5 0-50.1-11.8-50.1-58.3 0-43.7 23.6-61.2 49.2-61.2 25.4 0 37.6 21.3 37.6 28h36c-2.1-23.3-23-57.2-75.6-57.2zm100.2 4.3v170h121.5v-30.8h-85.4l-.2-.1V248Z" transform="matrix(.97 0 0 .97 -144 -76.7)"/></g></svg>