<?xml version="1.0" encoding="UTF-8" standalone="no"?>
<svg
   width="79.325134"
   height="99.999992"
   viewBox="-2.4 -2.4 2.8557048 3.5999997"
   fill="none"
   stroke="#ffffff"
   version="1.1"
   id="svg1"
   sodipodi:docname="clipboard.svg"
   inkscape:version="1.3.2 (091e20e, 2023-11-25, custom)"
   xmlns:inkscape="http://www.inkscape.org/namespaces/inkscape"
   xmlns:sodipodi="http://sodipodi.sourceforge.net/DTD/sodipodi-0.dtd"
   xmlns="http://www.w3.org/2000/svg"
   xmlns:svg="http://www.w3.org/2000/svg">
  <defs
     id="defs1" />
  <sodipodi:namedview
     id="namedview1"
     pagecolor="#505050"
     bordercolor="#ffffff"
     borderopacity="1"
     inkscape:showpageshadow="0"
     inkscape:pageopacity="0"
     inkscape:pagecheckerboard="1"
     inkscape:deskcolor="#505050"
     inkscape:zoom="4.175"
     inkscape:cx="46.826347"
     inkscape:cy="69.341317"
     inkscape:window-width="1920"
     inkscape:window-height="1027"
     inkscape:window-x="1912"
     inkscape:window-y="-8"
     inkscape:window-maximized="1"
     inkscape:current-layer="svg1" />
  <path
     style="color:#000000;stroke-linecap:round;stroke-linejoin:round;fill-opacity:1;stroke-width:0.036;stroke-dasharray:none;stroke:none"
     d="m -1.4003906,-2.4003906 c -0.2089365,0 -0.3362895,0.1846719 -0.3808594,0.3808593 -0.1390691,4.566e-4 -0.2534523,-0.00258 -0.3476563,0.046875 -0.093311,0.047169 -0.1688206,0.1219175 -0.2167968,0.2148437 -0.060946,0.1191211 -0.054687,0.2427055 -0.054687,0.4511719 v 1.78515623 c 0,0.20846639 -0.00545,0.33068235 0.056641,0.44921875 0.047582,0.0938105 0.1229521,0.16960952 0.2148437,0.21679682 0.1191211,0.060946 0.2407524,0.054688 0.4492188,0.054687 h 1.4140625 c 0.20846639,0 0.33068236,0.0074 0.44921875,-0.054687 0.0927444,-0.04721 0.16903394,-0.1223303 0.21679688,-0.2148437 0.0609456,-0.11912101 0.0546875,-0.24270548 0.0546875,-0.45117187 V -1.3066406 c 0,-0.2075733 0.00655,-0.3292083 -0.0546875,-0.4472656 v -0.00195 C 0.35322129,-1.8491709 0.27847308,-1.92468 0.18554687,-1.9726562 a 0.12471997,0.12471997 0 0 0 -0.003906,-0.00195 c -0.09272513,-0.045231 -0.20652663,-0.043825 -0.34570312,-0.044922 -0.0445699,-0.1961874 -0.17192287,-0.3808594 -0.38085937,-0.3808593 z m 0,0.25 h 0.85546873 c 0.1073583,-10e-8 0.19335936,0.084048 0.19335937,0.1914062 v 0.056641 0.2460937 h -1.2402344 v -0.2460937 -0.056641 c 0,-0.1073583 0.084048,-0.1914062 0.1914063,-0.1914062 z m -0.4414063,0.3828125 V -1.53125 a 0.12471997,0.12471997 0 0 0 0.125,0.125 h 1.48828127 a 0.12471997,0.12471997 0 0 0 0.12500001,-0.125 v -0.2363281 c 0.06224175,0.00424 0.15085899,0.00542 0.17578124,0.017578 0.04536885,0.024083 0.08240687,0.061472 0.10546875,0.1074219 a 0.12471997,0.12471997 0 0 0 0.001953,0.00195 c 0.0198071,0.037813 0.0273438,0.125518 0.0273438,0.3339844 v 1.78515623 c 0,0.20846639 -0.006392,0.29498607 -0.0273438,0.3359375 -0.0240183,0.0465217 -0.0625819,0.0839368 -0.109375,0.10742187 a 0.12471997,0.12471997 0 0 0 -0.0019531,0.001953 c -0.03781345,0.0198071 -0.12551798,0.0273437 -0.33398437,0.0273438 h -1.4140625 c -0.2084664,-10e-9 -0.2949868,-0.006392 -0.3359375,-0.0273438 -0.045014,-0.0231154 -0.084189,-0.0629098 -0.1074219,-0.109375 a 0.12471997,0.12471997 0 0 0 0,-0.001953 C -2.142854,0.77468655 -2.1503906,0.68698202 -2.1503906,0.47851563 V -1.3066406 c 0,-0.2084664 0.00639,-0.2949868 0.027344,-0.3359375 0.024018,-0.046522 0.062582,-0.083937 0.109375,-0.1074219 a 0.12471997,0.12471997 0 0 0 0.00195,-0.00195 c 0.02147,-0.011272 0.1098901,-0.011605 0.1699219,-0.015625 z m 1.14843753,0.578125 c -0.0975118,0 -0.19537584,0.032174 -0.27343751,0.1015625 -0.0780616,0.069388 -0.13085942,0.17653905 -0.13085932,0.30078123 v 0.83789062 a 0.1247075,0.1247075 0 0 0 0.12499995,0.125 0.1247075,0.1247075 0 0 0 0.125,-0.125 v -0.83789062 c 0,-0.0618885 0.018285,-0.0915572 0.0449219,-0.11523438 0.0266369,-0.0236772 0.0672887,-0.0390625 0.10937501,-0.0390625 0.0420863,0 0.0827381,0.0153853 0.109375,0.0390625 0.0266369,0.0236772 0.0449219,0.0533459 0.0449219,0.11523438 v 0.83789062 c 0,0.15495378 -0.0538264,0.25596202 -0.1328125,0.32617188 -0.0789861,0.0702098 -0.18889595,0.10742187 -0.30078125,0.10742187 -0.11188525,0 -0.22179515,-0.037212 -0.30078125,-0.10742187 C -1.3524236,0.30674327 -1.40625,0.20573503 -1.40625,0.05078125 v -0.74414062 a 0.1247075,0.1247075 0 0 0 -0.125,-0.12500001 0.1247075,0.1247075 0 0 0 -0.1230469,0.12500001 v 0.74414062 c 0,0.21730749 0.084433,0.39579797 0.2148438,0.51171875 0.1304109,0.11592078 0.2994861,0.171875 0.46679685,0.171875 0.16731077,0 0.33638594,-0.0559542 0.46679688,-0.171875 0.13041093,-0.11592078 0.21679687,-0.29441126 0.21679687,-0.51171875 v -0.83789062 c 0,-0.12424218 -0.0508446,-0.23139313 -0.12890625,-0.30078123 -0.0780617,-0.069388 -0.17787887,-0.1015625 -0.27539062,-0.1015625 z"
     id="path1" />
</svg>
