<?xml version="1.0" encoding="UTF-8" standalone="no"?>
<svg
   viewBox="0 0 79.508714 100"
   xml:space="preserve"
   version="1.1"
   id="svg1"
   sodipodi:docname="share.svg"
   width="79.508713"
   height="100"
   inkscape:version="1.3.2 (091e20e, 2023-11-25, custom)"
   xmlns:inkscape="http://www.inkscape.org/namespaces/inkscape"
   xmlns:sodipodi="http://sodipodi.sourceforge.net/DTD/sodipodi-0.dtd"
   xmlns="http://www.w3.org/2000/svg"
   xmlns:svg="http://www.w3.org/2000/svg"><defs
     id="defs1" /><sodipodi:namedview
     id="namedview1"
     pagecolor="#505050"
     bordercolor="#ffffff"
     borderopacity="1"
     inkscape:showpageshadow="0"
     inkscape:pageopacity="0"
     inkscape:pagecheckerboard="1"
     inkscape:deskcolor="#505050"
     inkscape:zoom="1.8206636"
     inkscape:cx="182.07647"
     inkscape:cy="15.104383"
     inkscape:window-width="1920"
     inkscape:window-height="1027"
     inkscape:window-x="1912"
     inkscape:window-y="-8"
     inkscape:window-maximized="1"
     inkscape:current-layer="svg1" /><path
     d="m 63.79932,68.58102 a 15.630016,15.630015 0 0 0 -8.42106,2.45059 L 30.80868,53.87812 a 15.706985,15.706985 0 0 0 0.610078,-4.33274 c 0,-1.50363 -0.21563,-2.95602 -0.610078,-4.33274 L 54.71497,28.52206 c 2.56507,1.82197 5.69814,2.89692 9.08414,2.89692 8.67595,0 15.70938,-7.03343 15.70938,-15.70938 C 79.50849,7.03365 72.47528,0 63.79932,0 55.12337,0 48.089947,7.03343 48.089947,15.70938 c 0,1.14582 0.126026,2.26177 0.358884,3.33781 L 23.935518,36.16165 C 21.542709,34.68789 18.72602,33.836 15.709381,33.836 7.033431,33.836 0,40.86943 0,49.54538 c 0,8.67595 7.033212,15.70938 15.709381,15.70938 3.016419,0 5.833328,-0.85189 8.226137,-2.32565 L 48.638106,80.1757 a 15.722683,15.722683 0 0 0 -0.548159,4.11492 c 0,8.67595 7.033423,15.70938 15.709373,15.70938 8.67596,0 15.70939,-7.03343 15.70939,-15.70938 0,-8.67595 -7.03343,-15.7096 -15.70939,-15.7096 z"
     style="fill-opacity:1;stroke-width:0.218043;stroke:none"
     id="path1" /></svg>
