<svg width="800" height="800" viewBox="0 0 24 24" xmlns="http://www.w3.org/2000/svg"><path d="M12 0a12 12 0 1 0 0 24 12 12 0 0 0 0-24zm3.2 21.8H15a.5.5 0 0 1-.4-.2.5.5 0 0 1-.2-.3v-2.9a3.7 3.7 0 0 0 0-1 1.8 1.8 0 0 0-.6-.9 8 8 0 0 0 2-.4 4 4 0 0 0 1.5-1c.4-.4.7-1 .9-1.5a6.8 6.8 0 0 0 .3-2.1 4.1 4.1 0 0 0-.3-1.5 3.9 3.9 0 0 0-.8-1.3 2.8 2.8 0 0 0 .2-.6 3.7 3.7 0 0 0 0-1.3 5.3 5.3 0 0 0-.3-.8.3.3 0 0 0-.1 0h-.7a5.3 5.3 0 0 0-.7.3 6.5 6.5 0 0 0-.7.4l-.5.3a9.6 9.6 0 0 0-5.2 0 13.5 13.5 0 0 0-.5-.3 6 6 0 0 0-.7-.4 4.5 4.5 0 0 0-.7-.2 2.2 2.2 0 0 0-.7-.1h-.1a.3.3 0 0 0-.1 0 5.8 5.8 0 0 0-.2.8 3.8 3.8 0 0 0 0 1.3v.6a3.9 3.9 0 0 0-.7 1.3 4.1 4.1 0 0 0-.3 1.5 6.9 6.9 0 0 0 .3 2.1c.2.6.5 1 1 1.5.3.4.8.8 1.4 1l2 .5a1.8 1.8 0 0 0-.4.6 3 3 0 0 0-.2.7 2.8 2.8 0 0 1-1.2.3 1.8 1.8 0 0 1-1-.3 2.9 2.9 0 0 1-.8-.8 3.1 3.1 0 0 0-.3-.4 2.7 2.7 0 0 0-.4-.4 1.8 1.8 0 0 0-.4-.2 1.2 1.2 0 0 0-.5 0h-.1a.6.6 0 0 0-.2 0 .4.4 0 0 0-.1 0 .1.1 0 0 0 0 .1.3.3 0 0 0 0 .2l.3.2a4.3 4.3 0 0 1 .7.7l.2.4.3.4c.2.5.5 1 1 1.2.4.2.9.3 1.4.3a4.6 4.6 0 0 0 1 0v1.7a.5.5 0 0 1-.5.5 10.3 10.3 0 1 1 6.3 0z" style="fill:#fff;fill-opacity:1"/></svg>