<svg width="800.2" height="719.6" viewBox="0 0 32 28.8" xmlns="http://www.w3.org/2000/svg"><path d="M4.2.2C2.8 1 0 4.2 0 5v1.4C0 8 1.6 9.6 3.1 9.6c1.8 0 3.3-1.4 3.3-3.2 0 1.8 1.4 3.2 3.1 3.2 1.8 0 3.2-1.4 3.2-3.2 0 1.8 1.5 3.2 3.3 3.2 1.8 0 3.3-1.4 3.3-3.2 0 1.8 1.4 3.2 3.2 3.2 1.7 0 3.2-1.4 3.2-3.2 0 1.8 1.4 3.2 3.2 3.2 1.5 0 3.1-1.5 3.1-3.2V5c0-.8-2.8-4-4.2-4.8A294.7 294.7 0 0 0 4.2.2Zm8.5 8.6-.6.8a3.7 3.7 0 0 1-5.2 0c-.3-.2-.5-.5-.6-.8l-.7.8c-.7.7-1.6 1-2.6 1a1 1 0 0 1-.3 0l-.3 4V16c0 3.1-.3 10 1.4 11.8 2.6.6 7.4.9 12.2.9 4.8 0 9.6-.3 12.2-.9 1.7-1.7 1.3-8.7 1.4-11.8v-1.6l-.3-3.9a1 1 0 0 1-.3 0c-1 0-2-.3-2.6-1l-.7-.8c-.1.3-.3.6-.6.8a3.7 3.7 0 0 1-5.8-.8l-.6.8c-.7.7-1.6 1-2.6 1h-.2a3.7 3.7 0 0 1-3.2-1.8ZM10 12.3c1 0 2 0 3.2 1.2a28.3 28.3 0 0 1 5.6 0c1.2-1.2 2.1-1.2 3.2-1.2.5 0 2.5 0 3.9 3.9l1.5 5.4c1 4-.4 4-2.2 4a4 4 0 0 1-4.2-4 31.2 31.2 0 0 1-10 0c0 2-1.5 4-4.2 4-1.8 0-3.3 0-2.2-4l1.5-5.4c1.4-4 3.4-4 3.9-4zm6 3S13.2 18 12.6 19h1.9v1.5h3v-1.6l1.9.1c-.6-1-3.4-3.6-3.4-3.6Z" style="fill:#fdfdfd;fill-opacity:1"/></svg>