<svg version="1.0" width="306.9" height="341.2" xml:space="preserve" xmlns:xlink="http://www.w3.org/1999/xlink" xmlns="http://www.w3.org/2000/svg"><defs><linearGradient id="b"><stop style="stop-color:#a61e23;stop-opacity:1" offset="0"/><stop style="stop-color:#bf2f37;stop-opacity:1" offset="1"/></linearGradient><linearGradient id="a"><stop style="stop-color:#9c1c20;stop-opacity:1" offset="0"/><stop style="stop-color:#c1313a;stop-opacity:1" offset="1"/></linearGradient><linearGradient xlink:href="#a" id="c" x1="72.3" y1="365.6" x2="175.7" y2="133.3" gradientUnits="userSpaceOnUse" gradientTransform="translate(-70.3 -28.6)"/><linearGradient xlink:href="#b" id="d" x1="276.6" y1="299.2" x2="267.3" y2="208" gradientUnits="userSpaceOnUse" gradientTransform="translate(-70.3 -28.6)"/></defs><path style="font-variation-settings:'wght' 700;display:inline;fill:#5a0b0c;fill-opacity:1;stroke:none;stroke-width:2;stroke-linecap:round;stroke-linejoin:round" d="M149.6 0c-1.3.5-2.4 1.6-3.7 2.4L93.1 39.7c-1.1 1.3-1 3.1-1.4 4.7l-7.2 35.5c0 1.7 1.6 2.6 2.5 3.9l15.7 18.5c0 .7-.1 1.4-.3 2L28.1 145c-1.3 1-1.4 3-2 4.5L16 179c-.2 1.2 1 1.9 2 2.3l20 10.3c.4.4 1 .9.6 1.5l-3 11.9L0 337.2c-.2 1.1 1 2 2 1.7l47.9 2.3 52.6-3.3c1.2-.3 1.3-1.7 1.3-2.7l3.7-48.5c.3-.4.3-1 1-1 1.1-.2 2.3.4 3.5.5l32.8 6.6c8.3-.5 16.6-1.2 24.8-1.8 2-.1 4-.2 6-.5 1-.3 1-1.6.8-2.5 0-1-.5-2.2.2-3 1.3-.5 2.8-.4 4.1-.6L304 273.5c1.2-.2 1.5-1.5 1.5-2.6.5-3.5 1.2-7 1.5-10.6-.7-2.5-1.7-5-2.5-7.5L287 202.4c-.5-1.1-2-.8-3-.5L235 212c-.5-.1-1.3 0-1.4-.7-.5-1.4-.6-2.9-1-4.3l-15.3-74.2-10.4-24c-.6-1-2-.8-2.8-.2-1.2.3-2.4 1.4-3.7 1-1-1-1.3-2.6-2-3.8L151 .8c-.3-.5-.8-.9-1.4-.8zm6 163.3c1.8 1.8 3.3 4 5.1 5.9l13.8 16c.7 1.5.4 3.3.6 4.8l2.2 32.6c-.2.5-.3 1.2-1 1.3l-5.7 1.3-31.5 7c-1.6-.1-2.7-1.3-4-2l-21.8-12.9c-.4-.5-.8-1-.6-1.8l3.7-37.7c.3-.6.6-1.3 1.3-1.3l36.7-13.3 1.1.1z"/><path style="font-variation-settings:'wght' 700;fill:url(#c);stroke:none;stroke-width:2;stroke-linecap:round;stroke-linejoin:round" d="m18.5 177.8 10.3-31.6 76.7-41.4 21 24.2-44 20.2-33.8 190L2 337l46-172.3Z"/><path style="font-variation-settings:'wght' 700;fill:#b6262d;fill-opacity:1;stroke:none;stroke-width:2;stroke-linecap:round;stroke-linejoin:round" d="M87 78.6 94.5 41 149 2.2l1 37Z"/><path style="font-variation-settings:'wght' 700;fill:#c2323b;fill-opacity:1;stroke:none;stroke-width:2;stroke-linecap:round;stroke-linejoin:round" d="m200.5 112.2 5-2.2 4.2 21.6z"/><path style="font-variation-settings:'wght' 700;fill:url(#d);stroke:none;stroke-width:2;stroke-linecap:round;stroke-linejoin:round" d="m176.4 185.5 41.3-12 8.5 42 58.8-12.2 20 56.8-166.4 17.8.4-44.1 40.5-8.7z"/></svg>