<?xml version="1.0" encoding="UTF-8" standalone="no"?>
<svg
   version="1.1"
   id="Logo"
   x="0"
   y="0"
   viewBox="0 0 387.56827 437.72415"
   xml:space="preserve"
   width="387.56827"
   height="437.72415"
   sodipodi:docname="unity.svg"
   inkscape:version="1.3.2 (091e20e, 2023-11-25, custom)"
   xmlns:inkscape="http://www.inkscape.org/namespaces/inkscape"
   xmlns:sodipodi="http://sodipodi.sourceforge.net/DTD/sodipodi-0.dtd"
   xmlns="http://www.w3.org/2000/svg"
   xmlns:svg="http://www.w3.org/2000/svg"
   xmlns:rdf="http://www.w3.org/1999/02/22-rdf-syntax-ns#"
   xmlns:cc="http://creativecommons.org/ns#"
   xmlns:dc="http://purl.org/dc/elements/1.1/"><metadata
     id="metadata19"><rdf:RDF><cc:Work
         rdf:about=""><dc:format>image/svg+xml</dc:format><dc:type
           rdf:resource="http://purl.org/dc/dcmitype/StillImage" /><dc:title /></cc:Work></rdf:RDF></metadata><defs
     id="defs17" /><sodipodi:namedview
     pagecolor="#ffffff"
     bordercolor="#666666"
     borderopacity="1"
     objecttolerance="10"
     gridtolerance="10"
     guidetolerance="10"
     inkscape:pageopacity="0"
     inkscape:pageshadow="2"
     inkscape:window-width="1920"
     inkscape:window-height="1027"
     id="namedview15"
     showgrid="false"
     inkscape:zoom="1"
     inkscape:cx="50.5"
     inkscape:cy="227.5"
     inkscape:window-x="1912"
     inkscape:window-y="-8"
     inkscape:window-maximized="1"
     inkscape:current-layer="g849"
     inkscape:pagecheckerboard="true"
     inkscape:showpageshadow="2"
     inkscape:deskcolor="#d1d1d1" /><style
     id="style2">.st0{fill:#4c4c4c}</style><g
     id="g849"
     transform="translate(-63.020834,176)"><path
       class="st0"
       d="M 450.58909,130.4069 V -73.864369 L 273.67557,-176 v 78.425574 l 69.30632,40.124715 c 2.73578,1.823851 2.73578,5.471551 0,6.383472 L 260.90862,-3.64612 c -2.73578,1.8238504 -5.47155,0.9119212 -7.29539,0 l -82.07328,-47.420119 c -2.73578,-0.911921 -2.73578,-5.47155 0,-6.383472 l 69.30631,-40.124715 V -176 L 63.020834,-73.864369 V 130.4069 129.49497 130.4069 L 130.50331,91.194113 V 10.944681 c 0,-2.735771 3.64769,-4.559622 5.47155,-3.647701 l 82.07328,47.42012 c 2.73577,1.82385 3.64769,3.6477 3.64769,6.383471 V 155.9408 c 0,2.73578 -3.64769,4.55963 -5.47155,3.64771 L 146.91797,119.46379 79.435489,158.67658 256.349,261.72414 433.2625,159.58851 365.78004,120.37572 296.4737,160.50043 c -2.73577,1.82385 -5.47155,0 -5.47155,-3.6477 V 62.0125 c 0,-2.735779 1.82385,-5.47155 3.64771,-6.383479 L 376.72314,8.20891 c 2.73577,-1.823851 5.47155,0 5.47155,3.6477 v 80.24942 z"
       id="path6"
       style="fill:#4c4c4c;stroke-width:9.11929"
       inkscape:connector-curvature="0" /><path
       d="M 256.349,261.72414 433.2625,159.58851 365.78004,120.37572 296.4737,160.50043 c -2.73577,1.82385 -5.47155,0 -5.47155,-3.6477 V 62.0125 c 0,-2.735779 1.82385,-5.47155 3.64771,-6.383479 L 376.72314,8.20891 c 2.73577,-1.823851 5.47155,0 5.47155,3.6477 v 80.24942 l 67.48246,39.21279 V -73.864369 L 256.349,38.302441 Z"
       id="path8"
       style="fill:#000000;fill-opacity:1;stroke:none;stroke-width:9.11929"
       inkscape:connector-curvature="0" /><path
       d="m 273.67557,-176 v 78.425574 l 69.30632,40.124715 c 2.73578,1.823851 2.73578,5.471551 0,6.383472 L 260.90862,-3.64612 c -2.73578,1.8238504 -5.47155,0.9119212 -7.29539,0 l -82.07328,-47.420119 c -2.73578,-0.911921 -2.73578,-5.47155 0,-6.383472 l 69.30631,-40.124715 V -176 L 63.020834,-73.864369 256.349,38.302441 449.67715,-73.864369 Z"
       id="path10"
       style="fill:#808080;stroke:none;stroke-width:9.11929"
       inkscape:connector-curvature="0" /><path
       class="st0"
       d="M 217.1362,160.50043 147.82988,120.37572 80.347413,159.58851 257.26092,261.72414 V 38.302441 L 63.020834,-73.864369 V 130.4069 129.49497 130.4069 L 130.50331,91.194113 V 10.944681 c 0,-2.735771 3.64769,-4.559622 5.47155,-3.647701 l 82.07328,47.42012 c 2.73577,1.82385 3.64769,3.6477 3.64769,6.383471 V 155.9408 c 0.91193,3.64771 -1.82385,6.38348 -4.55963,4.55963 z"
       id="path12"
       style="fill:#4c4c4c;stroke:none;stroke-width:9.11929"
       inkscape:connector-curvature="0" /></g></svg>
