<?xml version="1.0" encoding="UTF-8" standalone="no"?>
<svg
   id="Layer_1"
   data-name="Layer 1"
   viewBox="0 0 336.95401 266.47159"
   version="1.1"
   sodipodi:docname="unreal3.svg"
   inkscape:version="1.3.2 (091e20e, 2023-11-25, custom)"
   xml:space="preserve"
   width="336.95401"
   height="266.47159"
   xmlns:inkscape="http://www.inkscape.org/namespaces/inkscape"
   xmlns:sodipodi="http://sodipodi.sourceforge.net/DTD/sodipodi-0.dtd"
   xmlns:xlink="http://www.w3.org/1999/xlink"
   xmlns="http://www.w3.org/2000/svg"
   xmlns:svg="http://www.w3.org/2000/svg"
   xmlns:rdf="http://www.w3.org/1999/02/22-rdf-syntax-ns#"
   xmlns:cc="http://creativecommons.org/ns#"
   xmlns:dc="http://purl.org/dc/elements/1.1/"><metadata
     id="metadata13"><rdf:RDF><cc:Work
         rdf:about=""><dc:format>image/svg+xml</dc:format><dc:type
           rdf:resource="http://purl.org/dc/dcmitype/StillImage" /></cc:Work></rdf:RDF></metadata><sodipodi:namedview
     pagecolor="#ffffff"
     bordercolor="#666666"
     borderopacity="1"
     objecttolerance="10"
     gridtolerance="10"
     guidetolerance="10"
     inkscape:pageopacity="0"
     inkscape:pageshadow="2"
     inkscape:window-width="1537"
     inkscape:window-height="873"
     id="namedview11"
     showgrid="false"
     inkscape:zoom="1.1428572"
     inkscape:cx="122.5"
     inkscape:cy="197.3125"
     inkscape:current-layer="Layer_1"
     inkscape:showpageshadow="2"
     inkscape:pagecheckerboard="0"
     inkscape:deskcolor="#d1d1d1"
     inkscape:window-x="0"
     inkscape:window-y="0"
     inkscape:window-maximized="0"
     showguides="true"><sodipodi:guide
       position="-44.217516,-97.222757"
       orientation="1,0"
       id="guide2"
       inkscape:locked="false" /><sodipodi:guide
       position="-43.289438,-97.222757"
       orientation="1,0"
       id="guide3"
       inkscape:locked="false" /></sodipodi:namedview><defs
     id="defs4"><linearGradient
       id="linearGradient3"
       inkscape:collect="always"><stop
         style="stop-color:#5b1109;stop-opacity:1;"
         offset="0"
         id="stop3" /><stop
         style="stop-color:#c43411;stop-opacity:1;"
         offset="1"
         id="stop4" /></linearGradient><style
       id="style2">.cls-1{fill:#fff;fill-rule:evenodd;}</style><filter
       inkscape:collect="always"
       style="color-interpolation-filters:sRGB"
       id="filter2"
       x="-0.36077595"
       y="-0.86980951"
       width="1.7215519"
       height="2.739619"><feGaussianBlur
         inkscape:collect="always"
         stdDeviation="15.255466"
         id="feGaussianBlur2" /></filter><linearGradient
       inkscape:collect="always"
       xlink:href="#linearGradient3"
       id="linearGradient4"
       x1="241.09567"
       y1="-66.028847"
       x2="167.76701"
       y2="-246.69463"
       gradientUnits="userSpaceOnUse"
       gradientTransform="translate(-16.993905,301.43573)" /><linearGradient
       inkscape:collect="always"
       xlink:href="#linearGradient3"
       id="linearGradient6"
       x1="231.58728"
       y1="-95.79216"
       x2="136.56393"
       y2="-257.22964"
       gradientUnits="userSpaceOnUse"
       gradientTransform="translate(-16.993905,301.43573)" /></defs><path
     id="polyline1"
     style="fill:url(#linearGradient4);stroke:#ffffff;stroke-width:8.75589;stroke-linecap:round;stroke-dasharray:none;stroke-opacity:1"
     d="M 143.5265,7.2954969 C 207.06692,-6.9522731 277.47843,36.142217 292.82809,99.612877 308.20743,153.95037 283.21758,217.18349 233.44603,244.63737 188.34191,271.46687 126.72544,267.11806 86.730875,232.71822 46.216644,200.03449 29.045327,141.43076 46.736182,92.265127 60.855931,49.400167 99.088965,15.568657 143.5265,7.2954969 Z" /><path
     id="polyline2"
     style="fill:#ffffff;stroke-width:5;stroke-linecap:round;filter:url(#filter2)"
     d="m 360.68579,55.577393 -45.02466,-7.945496 -44.56158,7.276428 -9.62494,34.816834 53.27936,-7.848267 48.20501,6.13855"
     sodipodi:nodetypes="cccccc"
     transform="matrix(0.81974635,0,0,0.6925998,-76.314392,-7.6316031)" /><path
     id="polyline4"
     style="fill:#ffffff;fill-opacity:1;stroke:#fdfdfd;stroke-width:5;stroke-linecap:square;stroke-linejoin:round;stroke-dasharray:none;stroke-opacity:1"
     d="M 67.219492,234.85579 49.385297,213.12481 c -5.944723,-7.24364 -9.66596,-16.13527 -13.251969,-24.79268 -3.586017,-8.65743 -6.332359,-17.71103 -8.160496,-26.9017 -1.828135,-9.19067 -2.755509,-18.60607 -2.755509,-27.97679 0,-9.37072 2.755509,-27.97678 2.755509,-27.97678 L 36.95504,75.886877 v 0 c 0,0 -9.797159,24.575163 -20.084684,31.683263 -1.672433,1.15555 -4.114738,2.05694 -5.972687,1.2321 -2.8549237,-1.26745 -4.7512867,-8.07704 -4.7512867,-8.07704 0,0 -3.872515,20.16404 -3.635289,30.35038 0.30256,12.99178 2.536719,26.05409 6.433447,38.4514 3.0036197,9.55591 7.2887527,18.84108 12.8895487,27.14579 5.657134,8.38824 12.787492,15.84679 20.542264,22.3452 7.527221,6.30773 24.843139,15.83782 24.843139,15.83782 z"
     sodipodi:nodetypes="csssscccsscssssc" /><path
     id="polyline4-0"
     style="fill:#ffffff;fill-opacity:1;stroke:#fdfdfd;stroke-width:5;stroke-linecap:square;stroke-linejoin:round;stroke-dasharray:none;stroke-opacity:1"
     d="m 269.73453,32.366677 17.83419,21.73098 c 5.94473,7.24365 9.66596,16.13528 13.25197,24.79269 3.58602,8.65743 6.33236,17.71103 8.1605,26.901703 1.82813,9.19067 2.75551,18.60606 2.75551,27.97678 0,9.37072 -2.75551,27.97678 -2.75551,27.97678 l -8.98221,29.58998 v 0 c 0,0 9.79716,-24.57516 20.08468,-31.68326 1.67244,-1.15555 4.11474,-2.05694 5.97269,-1.2321 2.85492,1.26745 4.75129,8.07704 4.75129,8.07704 0,0 3.87251,-20.16404 3.63529,-30.35038 -0.30256,-12.99178 -2.53672,-26.05408 -6.43345,-38.451393 -3.00362,-9.55591 -7.28875,-18.84108 -12.88955,-27.14579 -5.65713,-8.38825 -12.78749,-15.84679 -20.54226,-22.3452 -7.52722,-6.30773 -24.84314,-15.83783 -24.84314,-15.83783 z"
     sodipodi:nodetypes="csssscccsscssssc" /><path
     class="cls-1"
     d="m 275.76433,153.29538 v 0 c 0,0 -26.75617,52.1144 -65.28889,70.09145 l -15.47156,-17.18791 -26.11066,25.92621 c -30.11556,-0.3981 -58.31037,-14.68278 -76.208095,-38.61023 2.77312,0.85368 5.63717,1.38655 8.534685,1.5879 4.27708,0.077 8.90491,-1.47241 8.90491,-8.56507 v -69.96421 c 0.25815,-7.72721 -7.09394,-13.51769 -14.662895,-11.54842 -12.0908,2.75237 -42.338314,36.53293 -42.338314,36.53293 6.368321,-30.49993 32.457884,-58.380733 53.786089,-76.586733 13.8698,-11.85027 30.84813,-19.58678 48.97699,-22.31734 -13.20148,7.42948 -20.61573,19.54571 -20.61573,29.70834 0,16.36026 9.97662,14.37778 12.92868,11.97187 v 94.427623 c 0.50305,1.18451 1.15791,2.30035 1.94855,3.32017 2.67613,3.65627 6.97773,5.80768 11.5452,5.77421 9.98636,0 22.94428,-11.25971 22.94428,-11.25971 v -76.43134 c 0,-7.775933 -5.93337,-17.168653 -11.87647,-20.392593 0,0 10.99961,-1.92473 19.48559,4.49427 v 0 c 1.59423,-1.92366 3.28851,-3.76427 5.07598,-5.51438 19.8071,-19.19927 38.46453,-24.66552 54.00428,-27.39864 v 0 c 0,0 -28.25409,21.93238 -28.25409,51.361623 0,21.88427 0.57483,75.25724 0.57483,75.25724 10.48323,9.99902 52.11664,-24.67726 52.11664,-24.67726 z"
     id="path6"
     style="fill:#ffffff;fill-opacity:1;fill-rule:evenodd;stroke:url(#linearGradient6);stroke-width:3;stroke-dasharray:none;stroke-opacity:1"
     inkscape:connector-curvature="0"
     sodipodi:nodetypes="sscccccscccccscccccscsscscscs" /></svg>
